<?xml version="1.0" encoding="UTF-8"?>
<svg xmlns="http://www.w3.org/2000/svg" xmlns:xlink="http://www.w3.org/1999/xlink" width="128px" height="128px" viewBox="0 0 128 128" version="1.1">
<defs>
<linearGradient id="linear0" gradientUnits="userSpaceOnUse" x1="27.99999" y1="-276" x2="115.999992" y2="-276" gradientTransform="matrix(-1.267103,0,0,-1,154.983902,-178)">
<stop offset="0" style="stop-color:rgb(75.294119%,74.901962%,73.725492%);stop-opacity:1;"/>
<stop offset="0.0314339" style="stop-color:rgb(100%,100%,100%);stop-opacity:1;"/>
<stop offset="0.0673067" style="stop-color:rgb(87.058824%,86.666667%,85.490197%);stop-opacity:1;"/>
<stop offset="0.928254" style="stop-color:rgb(87.058824%,86.666667%,85.490197%);stop-opacity:1;"/>
<stop offset="0.964127" style="stop-color:rgb(100%,100%,100%);stop-opacity:1;"/>
<stop offset="1" style="stop-color:rgb(75.294119%,74.901962%,73.725492%);stop-opacity:1;"/>
</linearGradient>
<clipPath id="clip1">
  <path d="M 96 90 L 116 90 L 116 110 L 96 110 Z M 96 90 "/>
</clipPath>
<clipPath id="clip2">
  <path d="M 116 90 L 96 110 L 90.285156 110 L 90.285156 84.285156 L 116 84.285156 Z M 116 90 "/>
</clipPath>
<linearGradient id="linear1" gradientUnits="userSpaceOnUse" x1="344" y1="76" x2="340" y2="72" gradientTransform="matrix(0,0.178571,0.178571,0,92.428614,38.571439)">
<stop offset="0" style="stop-color:rgb(83.529413%,82.745099%,81.176472%);stop-opacity:1;"/>
<stop offset="1" style="stop-color:rgb(100%,100%,100%);stop-opacity:1;"/>
</linearGradient>
<linearGradient id="linear2" gradientUnits="userSpaceOnUse" x1="34" y1="40" x2="34" y2="28" >
<stop offset="0" style="stop-color:rgb(23.921569%,21.960784%,27.450982%);stop-opacity:1;"/>
<stop offset="1" style="stop-color:rgb(46.666667%,46.27451%,48.235294%);stop-opacity:1;"/>
</linearGradient>
<clipPath id="clip3">
  <path d="M 48 31 L 120 31 L 120 102 L 48 102 Z M 48 31 "/>
</clipPath>
<clipPath id="clip4">
  <path d="M 112 113 L 16 113 C 11.582031 113 8 109.417969 8 105 L 8 39 C 8 34.582031 11.582031 31 16 31 L 112 31 C 116.417969 31 120 34.582031 120 39 L 120 105 C 120 109.417969 116.417969 113 112 113 Z M 112 113 "/>
</clipPath>
<linearGradient id="linear3" gradientUnits="userSpaceOnUse" x1="-48" y1="248" x2="-24" y2="248" gradientTransform="matrix(-0.589256,-0.589256,0.674966,-0.674966,-97.947792,202.612851)">
<stop offset="0" style="stop-color:rgb(87.843138%,10.588235%,14.117648%);stop-opacity:1;"/>
<stop offset="1" style="stop-color:rgb(96.470588%,38.039216%,31.764707%);stop-opacity:1;"/>
</linearGradient>
<linearGradient id="linear4" gradientUnits="userSpaceOnUse" x1="-42" y1="194" x2="-30" y2="194" gradientTransform="matrix(-0.707107,-0.707107,0.707107,-0.707107,-108.747241,204.927019)">
<stop offset="0" style="stop-color:rgb(87.843138%,10.588235%,14.117648%);stop-opacity:1;"/>
<stop offset="1" style="stop-color:rgb(96.470588%,38.039216%,31.764707%);stop-opacity:1;"/>
</linearGradient>
</defs>
<g id="surface1117">
<path style=" stroke:none;fill-rule:nonzero;fill:rgb(36.862746%,36.078432%,39.215687%);fill-opacity:1;" d="M 111.503906 116 L 16 116 C 11.582031 116 8 112.417969 8 108 L 8 93.75 C 8 89.332031 11.582031 85.75 16 85.75 L 111.503906 85.75 C 115.921875 85.75 119.503906 89.332031 119.503906 93.75 L 119.503906 108 C 119.503906 112.417969 115.921875 116 111.503906 116 Z M 111.503906 116 "/>
<path style=" stroke:none;fill-rule:nonzero;fill:url(#linear0);" d="M 111.503906 114 L 16 114 C 11.582031 114 8 110.417969 8 106 L 8 82 C 8 77.582031 11.582031 74 16 74 L 111.503906 74 C 115.921875 74 119.503906 77.582031 119.503906 82 L 119.503906 106 C 119.503906 110.417969 115.921875 114 111.503906 114 Z M 111.503906 114 "/>
<path style=" stroke:none;fill-rule:nonzero;fill:rgb(96.470588%,96.078432%,95.686275%);fill-opacity:1;" d="M 112 110 L 16 110 C 11.582031 110 8 106.417969 8 102 L 8 36 C 8 31.582031 11.582031 28 16 28 L 112 28 C 116.417969 28 120 31.582031 120 36 L 120 102 C 120 106.417969 116.417969 110 112 110 Z M 112 110 "/>
<g clip-path="url(#clip1)" clip-rule="nonzero">
<g clip-path="url(#clip2)" clip-rule="nonzero">
<path style=" stroke:none;fill-rule:nonzero;fill:url(#linear1);" d="M 96 98 L 96 107.714844 C 96 112.132812 99.582031 115.714844 104 115.714844 L 113.714844 115.714844 C 118.132812 115.714844 121.714844 112.132812 121.714844 107.714844 L 121.714844 98 C 121.714844 93.582031 118.132812 90 113.714844 90 L 104 90 C 99.582031 90 96 93.582031 96 98 Z M 96 98 "/>
</g>
</g>
<path style=" stroke:none;fill-rule:nonzero;fill:url(#linear2);" d="M 16 28 C 11.566406 28 8 31.566406 8 36 L 8 44 L 120 44 L 120 36 C 120 31.566406 116.433594 28 112 28 Z M 16 28 "/>
<path style=" stroke:none;fill-rule:nonzero;fill:rgb(23.921569%,21.960784%,27.450982%);fill-opacity:1;" d="M 8 36 L 120 36 L 120 38 L 8 38 Z M 8 36 "/>
<path style=" stroke:none;fill-rule:nonzero;fill:rgb(36.862746%,36.078432%,39.215687%);fill-opacity:1;" d="M 8 38 L 120 38 L 120 40 L 8 40 Z M 8 38 "/>
<g clip-path="url(#clip3)" clip-rule="nonzero">
<g clip-path="url(#clip4)" clip-rule="nonzero">
<path style=" stroke:none;fill-rule:nonzero;fill:rgb(0%,0%,0%);fill-opacity:0.291667;" d="M 117.285156 18.664062 L 53.886719 82.0625 L 55.300781 83.476562 L 48.230469 99.03125 L 51.058594 101.859375 L 66.617188 94.789062 L 68.03125 96.203125 L 131.425781 32.804688 Z M 117.285156 18.664062 "/>
</g>
</g>
<path style="fill:none;stroke-width:4;stroke-linecap:round;stroke-linejoin:miter;stroke:rgb(87.843138%,10.588235%,14.117648%);stroke-opacity:1;stroke-miterlimit:4;" d="M 21.902344 230.503906 C 35.285156 235.046875 16.3125 248.199219 35.820312 249.445312 C 47.289062 250.179688 47.199219 266 47.199219 266 " transform="matrix(1,0,0,1,2,-169)"/>
<path style=" stroke:none;fill-rule:nonzero;fill:url(#linear3);" d="M 68.03125 93.203125 L 53.886719 79.0625 L 113.285156 19.664062 L 127.425781 33.808594 Z M 68.03125 93.203125 "/>
<path style=" stroke:none;fill-rule:nonzero;fill:rgb(23.921569%,21.960784%,27.450982%);fill-opacity:1;" d="M 116.113281 45.121094 L 101.96875 30.980469 L 104.800781 28.148438 L 118.941406 42.292969 Z M 116.113281 45.121094 "/>
<path style=" stroke:none;fill-rule:nonzero;fill:rgb(23.921569%,21.960784%,27.450982%);fill-opacity:1;" d="M 76.515625 84.71875 L 62.371094 70.578125 L 65.199219 67.75 L 79.34375 81.890625 Z M 76.515625 84.71875 "/>
<path style=" stroke:none;fill-rule:nonzero;fill:url(#linear4);" d="M 66.617188 91.789062 L 55.300781 80.476562 L 48.230469 96.03125 L 51.058594 98.859375 Z M 66.617188 91.789062 "/>
<path style=" stroke:none;fill-rule:nonzero;fill:rgb(0%,0%,0%);fill-opacity:0.259259;" d="M 69.445312 91.789062 L 55.300781 77.648438 L 53.886719 79.0625 L 68.03125 93.203125 Z M 69.445312 91.789062 "/>
<path style=" stroke:none;fill-rule:nonzero;fill:rgb(23.921569%,21.960784%,27.450982%);fill-opacity:1;" d="M 76.515625 56.433594 C 78.46875 58.386719 83.214844 56.804688 87.121094 52.898438 C 91.027344 48.996094 92.609375 44.246094 90.65625 42.292969 Z M 76.515625 56.433594 "/>
</g>
</svg>
