<?xml version="1.0" encoding="UTF-8"?>
<svg height="128px" viewBox="0 0 128 128" width="128px" xmlns="http://www.w3.org/2000/svg" xmlns:xlink="http://www.w3.org/1999/xlink">
    <linearGradient id="a" gradientTransform="matrix(0.4 0 0 1 38.400002 -172)" gradientUnits="userSpaceOnUse" x1="42" x2="42" y1="290" y2="274">
        <stop offset="0" stop-color="#3d3846"/>
        <stop offset="1" stop-color="#9a9996"/>
    </linearGradient>
    <linearGradient id="b" gradientUnits="userSpaceOnUse" x1="76" x2="76" y1="115.999994" y2="119.999994">
        <stop offset="0" stop-color="#c0bfbc"/>
        <stop offset="1" stop-color="#77767b"/>
    </linearGradient>
    <linearGradient id="c" gradientTransform="matrix(0.269231 0 0 0.0744681 -4.923077 85.234039)" gradientUnits="userSpaceOnUse" x1="47.999996" x2="463.999969" y1="90.85717" y2="90.85717">
        <stop offset="0" stop-color="#5e5c64"/>
        <stop offset="0.0357143" stop-color="#c0bfbc"/>
        <stop offset="0.0714286" stop-color="#77767b"/>
        <stop offset="0.928571" stop-color="#77767b"/>
        <stop offset="0.964286" stop-color="#c0bfbc"/>
        <stop offset="1" stop-color="#5e5c64"/>
    </linearGradient>
    <linearGradient id="d" gradientTransform="matrix(-1.041667 0 0 -1.133333 -2.666677 -200.666641)" gradientUnits="userSpaceOnUse" x1="-106.239998" x2="-21.760008" y1="-208.823532" y2="-251.176483">
        <stop offset="0" stop-color="#0a85e1"/>
        <stop offset="0.197658" stop-color="#30b5e5"/>
        <stop offset="0.292646" stop-color="#1ccfdc"/>
        <stop offset="0.506218" stop-color="#fbf6a3"/>
        <stop offset="0.690493" stop-color="#eb5ec3"/>
        <stop offset="0.853431" stop-color="#5150e7"/>
        <stop offset="1" stop-color="#1a1ebd"/>
    </linearGradient>
    <filter id="e" height="100%" width="100%" x="0%" y="0%">
        <feColorMatrix in="SourceGraphic" type="matrix" values="0 0 0 0 1 0 0 0 0 1 0 0 0 0 1 0 0 0 1 0"/>
    </filter>
    <mask id="f">
        <g filter="url(#e)">
            <rect fill-opacity="0.35" height="128" width="128"/>
        </g>
    </mask>
    <clipPath id="g">
        <rect height="152" width="192"/>
    </clipPath>
    <path d="m 52 92 h 24 v 26 h -24 z m 0 0" fill="url(#a)"/>
    <path d="m 48 116 h 32.0625 c 1.9375 0 3.9375 2 3.9375 4 h -40 c 0 -2 2 -4 4 -4 z m 0 0" fill="url(#b)"/>
    <path d="m 16 76 h 96 c 4.417969 0 8 3.582031 8 8 v 12 c 0 4.417969 -3.582031 8 -8 8 h -96 c -4.417969 0 -8 -3.582031 -8 -8 v -12 c 0 -4.417969 3.582031 -8 8 -8 z m 0 0" fill="url(#c)"/>
    <path d="m 16 20 h 96 c 4.417969 0 8 3.582031 8 8 v 64 c 0 4.417969 -3.582031 8 -8 8 h -96 c -4.417969 0 -8 -3.582031 -8 -8 v -64 c 0 -4.417969 3.582031 -8 8 -8 z m 0 0" fill="#c0bfbc"/>
    <path d="m 16.363281 96 h 95.273438 c 2.410156 0 4.363281 -1.789062 4.363281 -4 v -64 c 0 -2.210938 -1.953125 -4 -4.363281 -4 h -95.273438 c -2.410156 0 -4.363281 1.789062 -4.363281 4 v 64 c 0 2.210938 1.953125 4 4.363281 4 z m 0 0" fill="#241f31"/>
    <path d="m 112 94 h -96 c -1.105469 0 -2 -0.894531 -2 -2 v -64 c 0 -1.105469 0.894531 -2 2 -2 h 96 c 1.105469 0 2 0.894531 2 2 v 64 c 0 1.105469 -0.894531 2 -2 2 z m 0 0" fill="url(#d)"/>
    <path d="m 90 44.011719 c -4.390625 0 -8 3.609375 -8 8 s 3.609375 8 8 8 s 8 -3.609375 8 -8 s -3.609375 -8 -8 -8 z m 0 0" fill="#ffffff"/>
    <path d="m 89 36 h 2 c 0.554688 0 1 0.445312 1 1 v 4 c 0 0.554688 -0.445312 1 -1 1 h -2 c -0.265625 0 -0.519531 -0.105469 -0.707031 -0.292969 s -0.292969 -0.441406 -0.292969 -0.707031 v -4 c 0 -0.554688 0.445312 -1 1 -1 z m 0 26 h 2 c 0.554688 0 1 0.445312 1 1 v 4 c 0 0.554688 -0.445312 1 -1 1 h -2 c -0.265625 0 -0.519531 -0.105469 -0.707031 -0.292969 s -0.292969 -0.441406 -0.292969 -0.707031 v -4 c 0 -0.554688 0.445312 -1 1 -1 z m -11.019531 -20.605469 l 1.414062 -1.414062 c 0.1875 -0.1875 0.441407 -0.292969 0.707031 -0.292969 c 0.265626 0 0.519532 0.105469 0.707032 0.292969 l 2.828125 2.828125 c 0.1875 0.1875 0.292969 0.441406 0.292969 0.707031 s -0.105469 0.519531 -0.292969 0.707031 l -1.414063 1.414063 c -0.1875 0.1875 -0.441406 0.292969 -0.707031 0.292969 s -0.519531 -0.105469 -0.707031 -0.292969 l -2.828125 -2.828125 c -0.1875 -0.1875 -0.292969 -0.441406 -0.292969 -0.707032 c 0 -0.265624 0.105469 -0.519531 0.292969 -0.707031 z m 18.382812 18.386719 l 1.414063 -1.417969 c 0.1875 -0.1875 0.441406 -0.292969 0.707031 -0.292969 s 0.519531 0.105469 0.707031 0.292969 l 2.832032 2.828125 c 0.1875 0.1875 0.292968 0.441406 0.292968 0.707032 c 0 0.265624 -0.105468 0.519531 -0.292968 0.707031 l -1.417969 1.414062 c -0.1875 0.1875 -0.441407 0.292969 -0.707031 0.292969 c -0.265626 0 -0.519532 -0.105469 -0.707032 -0.292969 l -2.828125 -2.828125 c -0.1875 -0.1875 -0.292969 -0.441406 -0.292969 -0.707031 s 0.105469 -0.519531 0.292969 -0.707031 z m -16.96875 4.238281 l -1.414062 -1.414062 c -0.1875 -0.1875 -0.292969 -0.441407 -0.292969 -0.707031 c 0 -0.265626 0.105469 -0.519532 0.292969 -0.707032 l 2.828125 -2.828125 c 0.1875 -0.1875 0.441406 -0.292969 0.707031 -0.292969 s 0.519531 0.105469 0.707031 0.292969 l 1.414063 1.414063 c 0.1875 0.1875 0.292969 0.441406 0.292969 0.707031 s -0.105469 0.519531 -0.292969 0.707031 l -2.828125 2.828125 c -0.1875 0.1875 -0.441406 0.292969 -0.707032 0.292969 c -0.265624 0 -0.519531 -0.105469 -0.707031 -0.292969 z m 18.386719 -18.382812 l -1.417969 -1.414063 c -0.1875 -0.1875 -0.292969 -0.441406 -0.292969 -0.707031 s 0.105469 -0.519531 0.292969 -0.707031 l 2.828125 -2.828125 c 0.1875 -0.1875 0.441406 -0.292969 0.707032 -0.292969 c 0.265624 0 0.519531 0.105469 0.707031 0.292969 l 1.417969 1.414062 c 0.1875 0.1875 0.292968 0.441407 0.292968 0.707031 c 0 0.265626 -0.105468 0.519532 -0.292968 0.707032 l -2.832032 2.828125 c -0.1875 0.1875 -0.441406 0.292969 -0.707031 0.292969 s -0.519531 -0.105469 -0.707031 -0.292969 z m 8.21875 5.363281 v 2 c 0 0.554688 -0.445312 1 -1 1 h -4 c -0.265625 0 -0.519531 -0.105469 -0.707031 -0.292969 s -0.292969 -0.441406 -0.292969 -0.707031 v -2 c 0 -0.554688 0.445312 -1 1 -1 h 4 c 0.554688 0 1 0.445312 1 1 z m -26 0 v 2 c 0 0.554688 -0.445312 1 -1 1 h -4 c -0.265625 0 -0.519531 -0.105469 -0.707031 -0.292969 s -0.292969 -0.441406 -0.292969 -0.707031 v -2 c 0 -0.554688 0.445312 -1 1 -1 h 4 c 0.554688 0 1 0.445312 1 1 z m 0 0" fill="#ffffff"/>
    <path d="m 52 104 h 24 v 2 h -24 z m 0 0" fill-opacity="0.301961"/>
    <g clip-path="url(#g)" mask="url(#f)" transform="matrix(1 0 0 1 -8 -16)">
        <path d="m 170 27 h 6 v -7 h -6 z m 0 0" fill="#3d3846"/>
    </g>
    <path d="m 36 56 c -7.730469 0 -14 6.269531 -14 14 s 6.269531 14 14 14 s 14 -6.269531 14 -14 c 0 -0.828125 -0.074219 -1.65625 -0.21875 -2.46875 c -0.957031 4.359375 -4.816406 7.46875 -9.28125 7.46875 c -5.246094 0 -9.5 -4.253906 -9.5 -9.5 c 0 -4.464844 3.109375 -8.324219 7.46875 -9.28125 c -0.8125 -0.144531 -1.640625 -0.21875 -2.46875 -0.21875 z m 0 0" fill="#ffffff"/>
</svg>
