<?xml version="1.0" encoding="UTF-8"?>
<svg xmlns="http://www.w3.org/2000/svg" xmlns:xlink="http://www.w3.org/1999/xlink" width="128px" height="128px" viewBox="0 0 128 128" version="1.1">
<defs>
<linearGradient id="linear0" gradientUnits="userSpaceOnUse" x1="29.185287" y1="203.999878" x2="445.185364" y2="203.999878" gradientTransform="matrix(0.173077,0,0,0.238095,22.948698,60.000031)">
<stop offset="0" style="stop-color:rgb(23.921569%,21.960784%,27.450982%);stop-opacity:1;"/>
<stop offset="0.0454546" style="stop-color:rgb(60.392159%,60.000002%,58.823532%);stop-opacity:1;"/>
<stop offset="0.0909091" style="stop-color:rgb(36.862746%,36.078432%,39.215687%);stop-opacity:1;"/>
<stop offset="0.909091" style="stop-color:rgb(36.862746%,36.078432%,39.215687%);stop-opacity:1;"/>
<stop offset="0.953418" style="stop-color:rgb(60.392159%,60.000002%,58.823532%);stop-opacity:1;"/>
<stop offset="1" style="stop-color:rgb(23.921569%,21.960784%,27.450982%);stop-opacity:1;"/>
</linearGradient>
<linearGradient id="linear1" gradientUnits="userSpaceOnUse" x1="-45.920376" y1="350.377197" x2="40.07354" y2="421.082153" gradientTransform="matrix(1.125,0,0,1,57.160423,-350.377197)">
<stop offset="0" style="stop-color:rgb(87.058824%,86.666667%,85.490197%);stop-opacity:1;"/>
<stop offset="0.339439" style="stop-color:rgb(46.666667%,46.27451%,48.235294%);stop-opacity:1;"/>
<stop offset="0.72" style="stop-color:rgb(75.294119%,74.901962%,73.725492%);stop-opacity:1;"/>
<stop offset="1" style="stop-color:rgb(46.666667%,46.27451%,48.235294%);stop-opacity:1;"/>
</linearGradient>
</defs>
<g id="surface73797">
<path style=" stroke:none;fill-rule:nonzero;fill:rgb(27.450982%,25.490198%,32.549021%);fill-opacity:1;" d="M 40 82 L 88 82 C 92.417969 82 96 85.582031 96 90 L 96 112 C 96 116.417969 92.417969 120 88 120 L 40 120 C 35.582031 120 32 116.417969 32 112 L 32 90 C 32 85.582031 35.582031 82 40 82 Z M 40 82 "/>
<path style=" stroke:none;fill-rule:nonzero;fill:url(#linear0);" d="M 36 40 L 92 40 C 96.417969 40 100 43.582031 100 48 L 100 112 C 100 116.417969 96.417969 120 92 120 L 36 120 C 31.582031 120 28 116.417969 28 112 L 28 48 C 28 43.582031 31.582031 40 36 40 Z M 36 40 "/>
<path style=" stroke:none;fill-rule:nonzero;fill:url(#linear1);" d="M 36 8 L 92 8 C 96.417969 8 100 11.582031 100 16 L 100 100 C 100 104.417969 96.417969 108 92 108 L 36 108 C 31.582031 108 28 104.417969 28 100 L 28 16 C 28 11.582031 31.582031 8 36 8 Z M 36 8 "/>
<path style=" stroke:none;fill-rule:nonzero;fill:rgb(23.921569%,21.960784%,27.450982%);fill-opacity:1;" d="M 36 12 L 92 12 C 94.210938 12 96 13.789062 96 16 L 96 100 C 96 102.210938 94.210938 104 92 104 L 36 104 C 33.789062 104 32 102.210938 32 100 L 32 16 C 32 13.789062 33.789062 12 36 12 Z M 36 12 "/>
<path style=" stroke:none;fill-rule:nonzero;fill:rgb(60.392159%,60.000002%,58.823532%);fill-opacity:1;" d="M 82 17 C 82 18.105469 81.105469 19 80 19 C 78.894531 19 78 18.105469 78 17 C 78 15.894531 78.894531 15 80 15 C 81.105469 15 82 15.894531 82 17 Z M 82 17 "/>
<path style=" stroke:none;fill-rule:nonzero;fill:rgb(60.392159%,60.000002%,58.823532%);fill-opacity:1;" d="M 60 16 L 68 16 C 68.550781 16 69 16.449219 69 17 C 69 17.550781 68.550781 18 68 18 L 60 18 C 59.449219 18 59 17.550781 59 17 C 59 16.449219 59.449219 16 60 16 Z M 60 16 "/>
<path style=" stroke:none;fill-rule:nonzero;fill:rgb(75.294119%,74.901962%,73.725492%);fill-opacity:1;" d="M 38 8 L 42 8 L 42 12 L 38 12 Z M 38 8 "/>
<path style=" stroke:none;fill-rule:nonzero;fill:rgb(87.058824%,86.666667%,85.490197%);fill-opacity:1;" d="M 38 104 L 42 104 L 42 108 L 38 108 Z M 38 104 "/>
<path style=" stroke:none;fill-rule:nonzero;fill:rgb(46.666667%,46.27451%,48.235294%);fill-opacity:1;" d="M 38 120 L 42 120 L 42 108 L 38 108 Z M 38 120 "/>
<path style=" stroke:none;fill-rule:nonzero;fill:rgb(87.058824%,86.666667%,85.490197%);fill-opacity:1;" d="M 86 8 L 90 8 L 90 12 L 86 12 Z M 86 8 "/>
<path style=" stroke:none;fill-rule:nonzero;fill:rgb(75.294119%,74.901962%,73.725492%);fill-opacity:1;" d="M 86 104 L 90 104 L 90 108 L 86 108 Z M 86 104 "/>
<path style=" stroke:none;fill-rule:nonzero;fill:rgb(46.666667%,46.27451%,48.235294%);fill-opacity:1;" d="M 86 120 L 90 120 L 90 108 L 86 108 Z M 86 120 "/>
<path style=" stroke:none;fill-rule:nonzero;fill:rgb(14.117648%,12.156863%,19.215687%);fill-opacity:1;" d="M 61.5 111 L 66.5 111 C 67.878906 111 69 112.121094 69 113.5 C 69 114.878906 67.878906 116 66.5 116 L 61.5 116 C 60.121094 116 59 114.878906 59 113.5 C 59 112.121094 60.121094 111 61.5 111 Z M 61.5 111 "/>
<path style=" stroke:none;fill-rule:nonzero;fill:rgb(60.392159%,60.000002%,58.823532%);fill-opacity:1;" d="M 59.050781 113 C 59.019531 113.160156 59 113.328125 59 113.5 C 59 114.886719 60.113281 116 61.5 116 L 66.5 116 C 67.886719 116 69 114.886719 69 113.5 C 69 113.328125 68.980469 113.160156 68.949219 113 C 68.71875 114.144531 67.714844 115 66.5 115 L 61.5 115 C 60.285156 115 59.28125 114.144531 59.050781 113 Z M 59.050781 113 "/>
<path style=" stroke:none;fill-rule:nonzero;fill:rgb(14.117648%,12.156863%,19.215687%);fill-opacity:1;" d="M 46.5 112 C 45.671875 112 45 112.671875 45 113.5 C 45 114.328125 45.671875 115 46.5 115 C 47.328125 115 48 114.328125 48 113.5 C 48 112.671875 47.328125 112 46.5 112 Z M 50.5 112 C 49.671875 112 49 112.671875 49 113.5 C 49 114.328125 49.671875 115 50.5 115 C 51.328125 115 52 114.328125 52 113.5 C 52 112.671875 51.328125 112 50.5 112 Z M 54.5 112 C 53.671875 112 53 112.671875 53 113.5 C 53 114.328125 53.671875 115 54.5 115 C 55.328125 115 56 114.328125 56 113.5 C 56 112.671875 55.328125 112 54.5 112 Z M 54.5 112 "/>
<path style=" stroke:none;fill-rule:nonzero;fill:rgb(14.117648%,12.156863%,19.215687%);fill-opacity:1;" d="M 75 113.5 C 75 114.328125 74.328125 115 73.5 115 C 72.671875 115 72 114.328125 72 113.5 C 72 112.671875 72.671875 112 73.5 112 C 74.328125 112 75 112.671875 75 113.5 Z M 75 113.5 "/>
<path style=" stroke:none;fill-rule:nonzero;fill:rgb(14.117648%,12.156863%,19.215687%);fill-opacity:1;" d="M 79 113.5 C 79 114.328125 78.328125 115 77.5 115 C 76.671875 115 76 114.328125 76 113.5 C 76 112.671875 76.671875 112 77.5 112 C 78.328125 112 79 112.671875 79 113.5 Z M 79 113.5 "/>
<path style=" stroke:none;fill-rule:nonzero;fill:rgb(14.117648%,12.156863%,19.215687%);fill-opacity:1;" d="M 83 113.5 C 83 114.328125 82.328125 115 81.5 115 C 80.671875 115 80 114.328125 80 113.5 C 80 112.671875 80.671875 112 81.5 112 C 82.328125 112 83 112.671875 83 113.5 Z M 83 113.5 "/>
<path style=" stroke:none;fill-rule:nonzero;fill:rgb(60.392159%,60.000002%,58.823532%);fill-opacity:1;" d="M 47.914062 113 C 47.703125 113.597656 47.136719 114 46.5 114 C 45.863281 114 45.296875 113.601562 45.085938 113 C 45.03125 113.160156 45 113.332031 45 113.5 C 45 114.328125 45.671875 115 46.5 115 C 47.328125 115 48 114.328125 48 113.5 C 48 113.328125 47.972656 113.160156 47.914062 113 Z M 51.914062 113 C 51.703125 113.597656 51.136719 114 50.5 114 C 49.863281 114 49.296875 113.601562 49.085938 113 C 49.03125 113.160156 49 113.332031 49 113.5 C 49 114.328125 49.671875 115 50.5 115 C 51.328125 115 52 114.328125 52 113.5 C 52 113.328125 51.972656 113.160156 51.914062 113 Z M 55.914062 113 C 55.703125 113.597656 55.136719 114 54.5 114 C 53.863281 114 53.296875 113.601562 53.085938 113 C 53.03125 113.160156 53 113.332031 53 113.5 C 53 114.328125 53.671875 115 54.5 115 C 55.328125 115 56 114.328125 56 113.5 C 56 113.328125 55.972656 113.160156 55.914062 113 Z M 55.914062 113 "/>
<path style=" stroke:none;fill-rule:nonzero;fill:rgb(60.392159%,60.000002%,58.823532%);fill-opacity:1;" d="M 74.914062 113 C 74.703125 113.597656 74.136719 114 73.5 114 C 72.863281 114 72.296875 113.601562 72.085938 113 C 72.03125 113.160156 72 113.332031 72 113.5 C 72 114.328125 72.671875 115 73.5 115 C 74.328125 115 75 114.328125 75 113.5 C 75 113.328125 74.972656 113.160156 74.914062 113 Z M 78.914062 113 C 78.703125 113.597656 78.136719 114 77.5 114 C 76.863281 114 76.296875 113.601562 76.085938 113 C 76.03125 113.160156 76 113.332031 76 113.5 C 76 114.328125 76.671875 115 77.5 115 C 78.328125 115 79 114.328125 79 113.5 C 79 113.328125 78.972656 113.160156 78.914062 113 Z M 82.914062 113 C 82.703125 113.597656 82.136719 114 81.5 114 C 80.863281 114 80.296875 113.601562 80.085938 113 C 80.03125 113.160156 80 113.332031 80 113.5 C 80 114.328125 80.671875 115 81.5 115 C 82.328125 115 83 114.328125 83 113.5 C 83 113.328125 82.972656 113.160156 82.914062 113 Z M 82.914062 113 "/>
<path style=" stroke:none;fill-rule:nonzero;fill:rgb(97.254902%,89.411765%,36.078432%);fill-opacity:1;" d="M 52 89 C 52 92.3125 49.3125 95 46 95 C 42.6875 95 40 92.3125 40 89 C 40 85.6875 42.6875 83 46 83 C 49.3125 83 52 85.6875 52 89 Z M 52 89 "/>
<path style=" stroke:none;fill-rule:nonzero;fill:rgb(20%,81.960785%,47.843137%);fill-opacity:1;" d="M 70 89 C 70 92.3125 67.3125 95 64 95 C 60.6875 95 58 92.3125 58 89 C 58 85.6875 60.6875 83 64 83 C 67.3125 83 70 85.6875 70 89 Z M 70 89 "/>
<path style=" stroke:none;fill-rule:nonzero;fill:rgb(92.941177%,20%,23.137255%);fill-opacity:1;" d="M 88 89 C 88 92.3125 85.3125 95 82 95 C 78.6875 95 76 92.3125 76 89 C 76 85.6875 78.6875 83 82 83 C 85.3125 83 88 85.6875 88 89 Z M 88 89 "/>
<path style=" stroke:none;fill-rule:nonzero;fill:rgb(92.941177%,20%,23.137255%);fill-opacity:1;" d="M 52 70 C 52 73.3125 49.3125 76 46 76 C 42.6875 76 40 73.3125 40 70 C 40 66.6875 42.6875 64 46 64 C 49.3125 64 52 66.6875 52 70 Z M 52 70 "/>
<path style=" stroke:none;fill-rule:nonzero;fill:rgb(38.431373%,62.7451%,91.764706%);fill-opacity:1;" d="M 70 70 C 70 73.3125 67.3125 76 64 76 C 60.6875 76 58 73.3125 58 70 C 58 66.6875 60.6875 64 64 64 C 67.3125 64 70 66.6875 70 70 Z M 70 70 "/>
<path style=" stroke:none;fill-rule:nonzero;fill:rgb(20%,81.960785%,47.843137%);fill-opacity:1;" d="M 88 70 C 88 73.3125 85.3125 76 82 76 C 78.6875 76 76 73.3125 76 70 C 76 66.6875 78.6875 64 82 64 C 85.3125 64 88 66.6875 88 70 Z M 88 70 "/>
<path style=" stroke:none;fill-rule:nonzero;fill:rgb(20%,81.960785%,47.843137%);fill-opacity:1;" d="M 52 51 C 52 54.3125 49.3125 57 46 57 C 42.6875 57 40 54.3125 40 51 C 40 47.6875 42.6875 45 46 45 C 49.3125 45 52 47.6875 52 51 Z M 52 51 "/>
<path style=" stroke:none;fill-rule:nonzero;fill:rgb(87.058824%,86.666667%,85.490197%);fill-opacity:1;" d="M 70 51 C 70 54.3125 67.3125 57 64 57 C 60.6875 57 58 54.3125 58 51 C 58 47.6875 60.6875 45 64 45 C 67.3125 45 70 47.6875 70 51 Z M 70 51 "/>
<path style=" stroke:none;fill-rule:nonzero;fill:rgb(97.254902%,89.411765%,36.078432%);fill-opacity:1;" d="M 88 51 C 88 54.3125 85.3125 57 82 57 C 78.6875 57 76 54.3125 76 51 C 76 47.6875 78.6875 45 82 45 C 85.3125 45 88 47.6875 88 51 Z M 88 51 "/>
<path style=" stroke:none;fill-rule:nonzero;fill:rgb(38.431373%,62.7451%,91.764706%);fill-opacity:1;" d="M 52 32 C 52 35.3125 49.3125 38 46 38 C 42.6875 38 40 35.3125 40 32 C 40 28.6875 42.6875 26 46 26 C 49.3125 26 52 28.6875 52 32 Z M 52 32 "/>
<path style=" stroke:none;fill-rule:nonzero;fill:rgb(92.941177%,20%,23.137255%);fill-opacity:1;" d="M 70 32 C 70 35.3125 67.3125 38 64 38 C 60.6875 38 58 35.3125 58 32 C 58 28.6875 60.6875 26 64 26 C 67.3125 26 70 28.6875 70 32 Z M 70 32 "/>
<path style=" stroke:none;fill-rule:nonzero;fill:rgb(87.058824%,86.666667%,85.490197%);fill-opacity:1;" d="M 88 32 C 88 35.3125 85.3125 38 82 38 C 78.6875 38 76 35.3125 76 32 C 76 28.6875 78.6875 26 82 26 C 85.3125 26 88 28.6875 88 32 Z M 88 32 "/>
</g>
</svg>
