<?xml version="1.0" encoding="UTF-8"?>
<svg xmlns="http://www.w3.org/2000/svg" xmlns:xlink="http://www.w3.org/1999/xlink" width="128px" height="128px" viewBox="0 0 128 128" version="1.1">
<defs>
<linearGradient id="linear0" gradientUnits="userSpaceOnUse" x1="4" y1="62.000427" x2="124" y2="62.000427" gradientTransform="matrix(0.866667,0,0,0.866667,8.533341,-18.570435)">
<stop offset="0" style="stop-color:rgb(18.039216%,76.078433%,49.411765%);stop-opacity:1;"/>
<stop offset="0.5" style="stop-color:rgb(56.078434%,94.117647%,64.313728%);stop-opacity:1;"/>
<stop offset="1" style="stop-color:rgb(18.039216%,76.078433%,49.411765%);stop-opacity:1;"/>
</linearGradient>
<radialGradient id="radial0" gradientUnits="userSpaceOnUse" cx="64.123077" cy="312.503876" fx="64.123077" fy="312.503876" r="40" gradientTransform="matrix(2.4,-0.00000015122,0.0000000933182,1.8,-89.895401,-426.507095)">
<stop offset="0" style="stop-color:rgb(36.862746%,36.078432%,39.215687%);stop-opacity:1;"/>
<stop offset="1" style="stop-color:rgb(9.019608%,8.627451%,9.411765%);stop-opacity:1;"/>
</radialGradient>
<filter id="alpha" filterUnits="objectBoundingBox" x="0%" y="0%" width="100%" height="100%">
  <feColorMatrix type="matrix" in="SourceGraphic" values="0 0 0 0 1 0 0 0 0 1 0 0 0 0 1 0 0 0 1 0"/>
</filter>
<mask id="mask0">
  <g filter="url(#alpha)">
<rect x="0" y="0" width="128" height="128" style="fill:rgb(0%,0%,0%);fill-opacity:0.35;stroke:none;"/>
  </g>
</mask>
<clipPath id="clip1">
  <rect x="0" y="0" width="192" height="152"/>
</clipPath>
<g id="surface24933" clip-path="url(#clip1)">
<path style=" stroke:none;fill-rule:nonzero;fill:rgb(14.117648%,12.156863%,19.215687%);fill-opacity:1;" d="M 176.117188 24.007812 C 175.199219 23.984375 174.292969 24.214844 173.5 24.675781 C 171.953125 25.566406 171 27.21875 171 29.003906 L 171 31 L 181 31 L 181 29.003906 C 181 27.21875 180.046875 25.566406 178.5 24.675781 C 177.773438 24.257812 176.957031 24.027344 176.117188 24.007812 Z M 176.117188 24.007812 "/>
</g>
</defs>
<g id="surface24929">
<path style=" stroke:none;fill-rule:nonzero;fill:url(#linear0);" d="M 65.226562 3.972656 C 55.683594 3.746094 46.265625 6.152344 38 10.925781 C 21.910156 20.210938 12 37.378906 12 55.957031 L 12 96 L 116 96 L 116 55.957031 C 116 37.378906 106.089844 20.210938 90 10.925781 C 82.457031 6.566406 73.9375 4.175781 65.226562 3.972656 Z M 65.226562 3.972656 "/>
<path style=" stroke:none;fill-rule:nonzero;fill:rgb(14.901961%,63.529414%,41.176471%);fill-opacity:1;" d="M 116 100 C 116 81.421875 106.089844 64.253906 90 54.964844 C 73.910156 45.679688 54.089844 45.679688 38 54.964844 C 21.910156 64.253906 12 81.421875 12 100 "/>
<path style=" stroke:none;fill-rule:nonzero;fill:rgb(14.901961%,63.529414%,41.176471%);fill-opacity:1;" d="M 12 100 L 116 100 L 116 116 L 12 116 Z M 12 100 "/>
<path style=" stroke:none;fill-rule:nonzero;fill:url(#radial0);" d="M 64.941406 60.050781 C 57.601562 59.878906 50.359375 61.730469 44 65.402344 C 31.625 72.546875 24 85.75 24 100.042969 L 24 116 L 104 116 L 104 100.042969 C 104 85.75 96.375 72.546875 84 65.402344 C 78.195312 62.050781 71.644531 60.210938 64.941406 60.050781 Z M 64.941406 60.050781 "/>
<use xlink:href="#surface24933" transform="matrix(1,0,0,1,-8,-16)" mask="url(#mask0)"/>
</g>
</svg>
