<?xml version="1.0" encoding="UTF-8"?>
<svg xmlns="http://www.w3.org/2000/svg" xmlns:xlink="http://www.w3.org/1999/xlink" width="128px" height="128px" viewBox="0 0 128 128" version="1.1">
<defs>
<linearGradient id="linear0" gradientUnits="userSpaceOnUse" x1="88.595886" y1="-449.394012" x2="536.595886" y2="-449.394012" gradientTransform="matrix(0.232143,0,0,0.328947,-8.566925,263.826965)">
<stop offset="0" style="stop-color:rgb(10.196079%,37.254903%,70.588237%);stop-opacity:1;"/>
<stop offset="0.0384615" style="stop-color:rgb(38.431373%,62.7451%,91.764706%);stop-opacity:1;"/>
<stop offset="0.0768555" style="stop-color:rgb(10.196079%,37.254903%,70.588237%);stop-opacity:1;"/>
<stop offset="0.923077" style="stop-color:rgb(10.196079%,37.254903%,70.588237%);stop-opacity:1;"/>
<stop offset="0.961538" style="stop-color:rgb(38.431373%,62.7451%,91.764706%);stop-opacity:1;"/>
<stop offset="1" style="stop-color:rgb(10.196079%,37.254903%,70.588237%);stop-opacity:1;"/>
</linearGradient>
<linearGradient id="linear1" gradientUnits="userSpaceOnUse" x1="207.156738" y1="279.539429" x2="224.285904" y2="257.174683" gradientTransform="matrix(0.866025,0.5,-0.5,0.866025,-1.865334,-250.951344)">
<stop offset="0" style="stop-color:rgb(75.294119%,74.901962%,73.725492%);stop-opacity:1;"/>
<stop offset="1" style="stop-color:rgb(87.058824%,86.666667%,85.490197%);stop-opacity:1;"/>
</linearGradient>
<linearGradient id="linear2" gradientUnits="userSpaceOnUse" x1="74.794571" y1="65.304047" x2="99.04425" y2="79.304604" gradientTransform="matrix(1,-0.000000000000000611,0.000000000000000611,1,-8.09223,-19.020236)">
<stop offset="0" style="stop-color:rgb(90.196079%,38.039216%,0%);stop-opacity:1;"/>
<stop offset="0.162426" style="stop-color:rgb(100%,63.921571%,28.235295%);stop-opacity:1;"/>
<stop offset="0.832485" style="stop-color:rgb(100%,47.058824%,0%);stop-opacity:1;"/>
<stop offset="1" style="stop-color:rgb(77.64706%,27.450982%,0%);stop-opacity:1;"/>
</linearGradient>
<linearGradient id="linear3" gradientUnits="userSpaceOnUse" x1="208" y1="256" x2="236" y2="256" gradientTransform="matrix(0.866025,0.5,-0.5,0.866025,-1.865341,-250.951354)">
<stop offset="0" style="stop-color:rgb(36.862746%,36.078432%,39.215687%);stop-opacity:1;"/>
<stop offset="0.162426" style="stop-color:rgb(46.666667%,46.27451%,48.235294%);stop-opacity:1;"/>
<stop offset="0.832485" style="stop-color:rgb(46.666667%,46.27451%,48.235294%);stop-opacity:1;"/>
<stop offset="1" style="stop-color:rgb(36.862746%,36.078432%,39.215687%);stop-opacity:1;"/>
</linearGradient>
<radialGradient id="radial0" gradientUnits="userSpaceOnUse" cx="222" cy="180" fx="222" fy="180" r="6" gradientTransform="matrix(0.866025,0.5,-0.5,0.866025,-15.365333,-227.568658)">
<stop offset="0" style="stop-color:rgb(60.392159%,60.000002%,58.823532%);stop-opacity:1;"/>
<stop offset="1" style="stop-color:rgb(23.921569%,21.960784%,27.450982%);stop-opacity:1;"/>
</radialGradient>
</defs>
<g id="surface27941">
<path style=" stroke:none;fill-rule:nonzero;fill:url(#linear0);" d="M 20 16 L 108 16 C 112.417969 16 116 19.582031 116 24 L 116 108 C 116 112.417969 112.417969 116 108 116 L 20 116 C 15.582031 116 12 112.417969 12 108 L 12 24 C 12 19.582031 15.582031 16 20 16 Z M 20 16 "/>
<path style=" stroke:none;fill-rule:nonzero;fill:rgb(20.784314%,51.764709%,89.411765%);fill-opacity:1;" d="M 20 12 L 108 12 C 112.417969 12 116 15.582031 116 20 L 116 104 C 116 108.417969 112.417969 112 108 112 L 20 112 C 15.582031 112 12 108.417969 12 104 L 12 20 C 12 15.582031 15.582031 12 20 12 Z M 20 12 "/>
<path style="fill:none;stroke-width:4;stroke-linecap:butt;stroke-linejoin:miter;stroke:rgb(96.470588%,96.078432%,95.686275%);stroke-opacity:1;stroke-dasharray:12,4;stroke-dashoffset:12.8;stroke-miterlimit:4;" d="M 68.269528 114 L 105.999997 114 C 108.214841 114 109.999997 112.214844 109.999997 110 L 109.999997 46 C 109.999997 43.785156 108.214841 42 105.999997 42 L 59.269528 42 " transform="matrix(1,0,0,1,-7.999997,-16)"/>
<path style="fill:none;stroke-width:4;stroke-linecap:butt;stroke-linejoin:miter;stroke:rgb(6.666667%,24.705882%,47.058824%);stroke-opacity:1;stroke-miterlimit:4;" d="M 59.000003 270 L 39.000003 270 C 36.785159 270 35.000003 268.214844 35.000003 266 L 35.000003 202 C 35.000003 199.785156 36.785159 198 39.000003 198 L 58.000003 198 " transform="matrix(1,0,0,1,-9.000003,-172)"/>
<path style=" stroke:none;fill-rule:nonzero;fill:url(#linear1);" d="M 92 6.46875 L 38 100 L 65.679688 100.007812 L 112.785156 18.46875 Z M 92 6.46875 "/>
<path style=" stroke:none;fill-rule:nonzero;fill:rgb(75.294119%,74.901962%,73.725492%);fill-opacity:1;" d="M 77.019531 48.59375 L 83.949219 52.59375 L 82.949219 54.328125 L 76.019531 50.328125 Z M 77.019531 48.59375 "/>
<path style=" stroke:none;fill-rule:nonzero;fill:rgb(75.294119%,74.901962%,73.725492%);fill-opacity:1;" d="M 73.019531 55.523438 L 79.949219 59.523438 L 78.949219 61.253906 L 72.019531 57.253906 Z M 73.019531 55.523438 "/>
<path style=" stroke:none;fill-rule:nonzero;fill:rgb(75.294119%,74.901962%,73.725492%);fill-opacity:1;" d="M 69.019531 62.449219 L 75.949219 66.449219 L 74.949219 68.183594 L 68.019531 64.183594 Z M 69.019531 62.449219 "/>
<path style=" stroke:none;fill-rule:nonzero;fill:url(#linear2);" d="M 107.390625 3.808594 C 105.070312 2.46875 102.410156 1.824219 99.730469 1.949219 C 94.96875 2.175781 90.652344 4.804688 88.269531 8.933594 L 48.269531 78.214844 L 53.230469 81.082031 L 57.027344 83.273438 L 63.757812 87.15625 L 67.1875 89.136719 L 72.515625 92.214844 L 112.515625 22.933594 C 116.382812 16.238281 114.089844 7.675781 107.390625 3.808594 Z M 102.390625 12.46875 C 103.089844 12.871094 103.617188 13.457031 103.945312 14.128906 C 104.054688 14.355469 104.140625 14.585938 104.207031 14.828125 C 104.460938 15.789062 104.351562 16.847656 103.816406 17.777344 L 74.546875 68.472656 L 73.757812 69.835938 C 72.679688 71.703125 70.3125 72.335938 68.449219 71.261719 C 66.585938 70.183594 65.953125 67.816406 67.027344 65.953125 L 67.816406 64.589844 L 97.085938 13.890625 C 97.621094 12.960938 98.484375 12.335938 99.441406 12.078125 C 99.683594 12.011719 99.925781 11.972656 100.175781 11.953125 C 100.921875 11.902344 101.691406 12.066406 102.390625 12.46875 Z M 102.390625 12.46875 "/>
<path style="fill-rule:nonzero;fill:rgb(46.666667%,46.27451%,48.235294%);fill-opacity:1;stroke-width:2;stroke-linecap:butt;stroke-linejoin:round;stroke:rgb(36.862746%,36.078432%,39.215687%);stroke-opacity:1;stroke-miterlimit:4;" d="M 292.470859 475.51782 L 319.584839 475.519673 C 321.735597 475.518333 323.472618 473.784754 323.469325 471.630613 C 323.471368 469.477902 321.73636 467.746217 319.585601 467.747556 L 292.471622 467.745704 " transform="matrix(0.5,-0.866025,0.866025,0.5,-467.78813,56.786096)"/>
<path style="fill:none;stroke-width:2;stroke-linecap:butt;stroke-linejoin:round;stroke:rgb(36.862746%,36.078432%,39.215687%);stroke-opacity:1;stroke-miterlimit:4;" d="M 255.582417 471.632977 C 255.584461 469.480266 257.318099 467.748641 259.468857 467.747301 L 319.585601 467.747556 C 321.73636 467.746217 323.471368 469.477902 323.469325 471.630613 C 323.472618 473.784754 321.735597 475.518333 319.584839 475.519673 L 259.471477 475.517464 C 257.317336 475.520757 255.583757 473.783736 255.582417 471.632977 Z M 255.582417 471.632977 " transform="matrix(0.5,-0.866025,0.866025,0.5,-467.78813,56.786096)"/>
<path style=" stroke:none;fill-rule:nonzero;fill:url(#linear3);" d="M 52.269531 71.285156 L 76.515625 85.285156 L 72.515625 92.214844 L 48.269531 78.214844 Z M 52.269531 71.285156 "/>
<path style=" stroke:none;fill-rule:nonzero;fill:rgb(36.862746%,36.078432%,39.215687%);fill-opacity:1;" d="M 93.820312 45.316406 C 91.613281 49.140625 86.71875 50.453125 82.890625 48.242188 C 79.066406 46.035156 77.753906 41.140625 79.964844 37.316406 C 82.171875 33.488281 87.066406 32.179688 90.890625 34.386719 C 94.71875 36.597656 96.03125 41.488281 93.820312 45.316406 Z M 93.820312 45.316406 "/>
<path style=" stroke:none;fill-rule:nonzero;fill:rgb(60.392159%,60.000002%,58.823532%);fill-opacity:1;" d="M 93.820312 43.316406 C 91.613281 47.140625 86.71875 48.453125 82.890625 46.242188 C 79.066406 44.035156 77.753906 39.140625 79.964844 35.316406 C 82.171875 31.488281 87.066406 30.179688 90.890625 32.386719 C 94.71875 34.597656 96.03125 39.488281 93.820312 43.316406 Z M 93.820312 43.316406 "/>
<path style=" stroke:none;fill-rule:nonzero;fill:url(#radial0);" d="M 92.089844 42.316406 C 90.429688 45.1875 86.761719 46.167969 83.890625 44.511719 C 81.023438 42.855469 80.039062 39.1875 81.695312 36.316406 C 83.351562 33.445312 87.023438 32.464844 89.890625 34.121094 C 92.761719 35.777344 93.746094 39.445312 92.089844 42.316406 Z M 92.089844 42.316406 "/>
<path style=" stroke:none;fill-rule:nonzero;fill:rgb(75.294119%,74.901962%,73.725492%);fill-opacity:1;" d="M 88.625 40.316406 C 88.070312 41.273438 86.847656 41.601562 85.890625 41.046875 C 84.9375 40.496094 84.609375 39.273438 85.160156 38.316406 C 85.710938 37.359375 86.9375 37.03125 87.890625 37.582031 C 88.847656 38.136719 89.175781 39.359375 88.625 40.316406 Z M 88.625 40.316406 "/>
<path style=" stroke:none;fill-rule:nonzero;fill:rgb(36.862746%,36.078432%,39.215687%);fill-opacity:1;" d="M 83.269531 17.59375 L 57.769531 61.761719 C 59.6875 62.867188 62.125 62.214844 63.230469 60.296875 L 84.730469 23.058594 C 85.839844 21.136719 85.1875 18.699219 83.269531 17.59375 Z M 83.269531 17.59375 "/>
<path style=" stroke:none;fill-rule:nonzero;fill:rgb(36.862746%,36.078432%,39.215687%);fill-opacity:1;" d="M 97.515625 48.914062 L 82.015625 75.761719 C 80.097656 74.652344 79.445312 72.214844 80.550781 70.296875 L 92.050781 50.378906 C 93.160156 48.457031 95.597656 47.804688 97.515625 48.914062 Z M 97.515625 48.914062 "/>
<path style=" stroke:none;fill-rule:nonzero;fill:rgb(60.392159%,60.000002%,58.823532%);fill-opacity:1;" d="M 39.15625 98 L 38 100 L 65.683594 100 L 66.839844 98 Z M 39.15625 98 "/>
</g>
</svg>
