<?xml version="1.0" encoding="UTF-8" standalone="no"?>
<!-- Created with Inkscape (http://www.inkscape.org/) -->

<svg
   xmlns:dc="http://purl.org/dc/elements/1.1/"
   xmlns:cc="http://creativecommons.org/ns#"
   xmlns:rdf="http://www.w3.org/1999/02/22-rdf-syntax-ns#"
   xmlns:svg="http://www.w3.org/2000/svg"
   xmlns="http://www.w3.org/2000/svg"
   xmlns:sodipodi="http://sodipodi.sourceforge.net/DTD/sodipodi-0.dtd"
   xmlns:inkscape="http://www.inkscape.org/namespaces/inkscape"
   width="770"
   height="360.00018"
   id="svg8303"
   version="1.1"
   inkscape:version="0.48.3.1 r9886"
   sodipodi:docname="favicon.svg">
  <defs
     id="defs8305" />
  <sodipodi:namedview
     id="base"
     pagecolor="#ffffff"
     bordercolor="#666666"
     borderopacity="1.0"
     inkscape:pageopacity="0.0"
     inkscape:pageshadow="2"
     inkscape:zoom="1.4142136"
     inkscape:cx="475.092"
     inkscape:cy="144.92942"
     inkscape:document-units="px"
     inkscape:current-layer="layer1"
     showgrid="false"
     fit-margin-top="0"
     fit-margin-left="0"
     fit-margin-right="0"
     fit-margin-bottom="0"
     inkscape:window-width="1920"
     inkscape:window-height="1026"
     inkscape:window-x="0"
     inkscape:window-y="26"
     inkscape:window-maximized="1"
     inkscape:object-paths="true"
     inkscape:snap-intersection-paths="true"
     inkscape:snap-smooth-nodes="true"
     inkscape:object-nodes="true"
     inkscape:snap-midpoints="true"
     inkscape:snap-object-midpoints="true"
     inkscape:snap-center="true"
     inkscape:snap-bbox="false"
     inkscape:bbox-paths="true"
     inkscape:bbox-nodes="true"
     inkscape:snap-bbox-edge-midpoints="true"
     inkscape:snap-bbox-midpoints="true">
    <inkscape:grid
       type="xygrid"
       id="grid8382"
       empspacing="5"
       visible="true"
       enabled="true"
       snapvisiblegridlinesonly="true"
       originx="-80px"
       originy="-540px" />
  </sodipodi:namedview>
  <metadata
     id="metadata8308">
    <rdf:RDF>
      <cc:Work
         rdf:about="">
        <dc:format>image/svg+xml</dc:format>
        <dc:type
           rdf:resource="http://purl.org/dc/dcmitype/StillImage" />
        <dc:title></dc:title>
      </cc:Work>
    </rdf:RDF>
  </metadata>
  <g
     inkscape:label="Ebene 1"
     inkscape:groupmode="layer"
     id="layer1"
     transform="translate(-80,-152.362)">
    <g
       transform="translate(595.1836,-212.7313)"
       id="layer1-2"
       inkscape:label="Ebene 1">
      <path
         inkscape:connector-curvature="0"
         id="path303-5"
         d="m 327.8125,397.3125 0,0.75 0,10.6875 0,0.75 0,0.75 0,10.6875 0,0.75 0.75,0 11.4375,0 c 3.56123,0 6.46875,-2.90734 6.46875,-6.46875 0,-2.47187 -1.38941,-4.63048 -3.4375,-5.71875 2.04809,-1.08818 3.4375,-3.2466 3.4375,-5.71875 0,-3.56102 -2.90745,-6.46875 -6.46875,-6.46875 l -11.4375,0 -0.75,0 z m 1.5,1.5 10.6875,0 c 2.75056,0 4.96875,2.21845 4.96875,4.96875 0,2.75082 -2.21812,4.96875 -4.96875,4.96875 l -10.6875,0 0,-9.9375 z m 0,11.4375 10.6875,0 c 2.75056,0 4.96875,2.21845 4.96875,4.96875 0,2.75081 -2.21812,4.96875 -4.96875,4.96875 l -10.6875,0 0,-9.9375 z"
         style="font-size:medium;font-style:normal;font-variant:normal;font-weight:normal;font-stretch:normal;text-indent:0;text-align:start;text-decoration:none;line-height:normal;letter-spacing:normal;word-spacing:normal;text-transform:none;direction:ltr;block-progression:tb;writing-mode:lr-tb;text-anchor:start;baseline-shift:baseline;color:#000000;fill:#666666;fill-opacity:1;stroke:none;stroke-width:1.5;marker:none;visibility:visible;display:inline;overflow:visible;enable-background:accumulate;font-family:Sans;-inkscape-font-specification:Sans" />
    </g>
    <rect
       style="color:#000000;fill:#eeeeee;fill-opacity:1;fill-rule:nonzero;stroke:none;stroke-width:1.5;marker:none;visibility:visible;display:inline;overflow:visible;enable-background:accumulate"
       id="rect8230"
       width="200.0002"
       height="200"
       x="890"
       y="262.362" />
    <g
       inkscape:label="Ebene 1"
       id="g8232"
       transform="translate(595.1836,-22.731291)">
      <path
         style="font-size:medium;font-style:normal;font-variant:normal;font-weight:normal;font-stretch:normal;text-indent:0;text-align:start;text-decoration:none;line-height:normal;letter-spacing:normal;word-spacing:normal;text-transform:none;direction:ltr;block-progression:tb;writing-mode:lr-tb;text-anchor:start;baseline-shift:baseline;color:#000000;fill:#666666;fill-opacity:1;stroke:none;stroke-width:1.5;marker:none;visibility:visible;display:inline;overflow:visible;enable-background:accumulate;font-family:Sans;-inkscape-font-specification:Sans"
         d="m 327.8125,397.3125 0,0.75 0,10.6875 0,0.75 0,0.75 0,10.6875 0,0.75 0.75,0 11.4375,0 c 3.56123,0 6.46875,-2.90734 6.46875,-6.46875 0,-2.47187 -1.38941,-4.63048 -3.4375,-5.71875 2.04809,-1.08818 3.4375,-3.2466 3.4375,-5.71875 0,-3.56102 -2.90745,-6.46875 -6.46875,-6.46875 l -11.4375,0 -0.75,0 z m 1.5,1.5 10.6875,0 c 2.75056,0 4.96875,2.21845 4.96875,4.96875 0,2.75082 -2.21812,4.96875 -4.96875,4.96875 l -10.6875,0 0,-9.9375 z m 0,11.4375 10.6875,0 c 2.75056,0 4.96875,2.21845 4.96875,4.96875 0,2.75081 -2.21812,4.96875 -4.96875,4.96875 l -10.6875,0 0,-9.9375 z"
         id="path8234"
         inkscape:connector-curvature="0" />
    </g>
    <rect
       y="446.362"
       x="-65"
       height="15.999985"
       width="16"
       id="rect8236"
       style="color:#000000;fill:#eeeeee;fill-opacity:1;fill-rule:nonzero;stroke:none;stroke-width:1.5;marker:none;visibility:visible;display:inline;overflow:visible;enable-background:accumulate" />
    <g
       inkscape:label="Ebene 1"
       id="g8238"
       transform="matrix(0.41026676,0,0,0.41026676,-195.3176,286.35781)">
      <path
         style="font-size:medium;font-style:normal;font-variant:normal;font-weight:normal;font-stretch:normal;text-indent:0;text-align:start;text-decoration:none;line-height:normal;letter-spacing:normal;word-spacing:normal;text-transform:none;direction:ltr;block-progression:tb;writing-mode:lr-tb;text-anchor:start;baseline-shift:baseline;color:#000000;fill:#666666;fill-opacity:1;stroke:none;stroke-width:1.5;marker:none;visibility:visible;display:inline;overflow:visible;enable-background:accumulate;font-family:Sans;-inkscape-font-specification:Sans"
         d="m 327.8125,397.3125 0,0.75 0,10.6875 0,0.75 0,0.75 0,10.6875 0,0.75 0.75,0 11.4375,0 c 3.56123,0 6.46875,-2.90734 6.46875,-6.46875 0,-2.47187 -1.38941,-4.63048 -3.4375,-5.71875 2.04809,-1.08818 3.4375,-3.2466 3.4375,-5.71875 0,-3.56102 -2.90745,-6.46875 -6.46875,-6.46875 l -11.4375,0 -0.75,0 z m 1.5,1.5 10.6875,0 c 2.75056,0 4.96875,2.21845 4.96875,4.96875 0,2.75082 -2.21812,4.96875 -4.96875,4.96875 l -10.6875,0 0,-9.9375 z m 0,11.4375 10.6875,0 c 2.75056,0 4.96875,2.21845 4.96875,4.96875 0,2.75081 -2.21812,4.96875 -4.96875,4.96875 l -10.6875,0 0,-9.9375 z"
         id="path8240"
         inkscape:connector-curvature="0" />
    </g>
    <rect
       style="color:#000000;fill:#eeeeee;fill-opacity:1;fill-rule:nonzero;stroke:none;stroke-width:1.5;marker:none;visibility:visible;display:inline;overflow:visible;enable-background:accumulate"
       id="rect9010"
       width="16"
       height="15.999985"
       x="-35"
       y="446.362" />
    <g
       transform="matrix(0.41026676,0,0,0.41026676,-165.3176,286.35781)"
       id="g9012"
       inkscape:label="Ebene 1"
       style="stroke:#666666;stroke-width:1.21871924;stroke-opacity:1">
      <path
         inkscape:connector-curvature="0"
         id="path9014"
         d="m 327.8125,397.3125 0,0.75 0,10.6875 0,0.75 0,0.75 0,10.6875 0,0.75 0.75,0 11.4375,0 c 3.56123,0 6.46875,-2.90734 6.46875,-6.46875 0,-2.47187 -1.38941,-4.63048 -3.4375,-5.71875 2.04809,-1.08818 3.4375,-3.2466 3.4375,-5.71875 0,-3.56102 -2.90745,-6.46875 -6.46875,-6.46875 l -11.4375,0 -0.75,0 z m 1.5,1.5 10.6875,0 c 2.75056,0 4.96875,2.21845 4.96875,4.96875 0,2.75082 -2.21812,4.96875 -4.96875,4.96875 l -10.6875,0 0,-9.9375 z m 0,11.4375 10.6875,0 c 2.75056,0 4.96875,2.21845 4.96875,4.96875 0,2.75081 -2.21812,4.96875 -4.96875,4.96875 l -10.6875,0 0,-9.9375 z"
         style="font-size:medium;font-style:normal;font-variant:normal;font-weight:normal;font-stretch:normal;text-indent:0;text-align:start;text-decoration:none;line-height:normal;letter-spacing:normal;word-spacing:normal;text-transform:none;direction:ltr;block-progression:tb;writing-mode:lr-tb;text-anchor:start;baseline-shift:baseline;color:#000000;fill:#666666;fill-opacity:1;stroke:#666666;stroke-width:1.21871924;stroke-opacity:1;marker:none;visibility:visible;display:inline;overflow:visible;enable-background:accumulate;font-family:Sans;-inkscape-font-specification:Sans" />
    </g>
    <g
       id="g8422">
      <rect
         style="color:#000000;fill:#eeeeee;fill-opacity:1;fill-rule:nonzero;stroke:none;stroke-width:1.5;marker:none;visibility:visible;display:inline;overflow:visible;enable-background:accumulate"
         id="rect9018"
         width="16"
         height="15.999985"
         x="135"
         y="446.362" />
      <g
         transform="matrix(0.41026676,0,0,0.41026676,4.6824,286.35781)"
         id="g9020"
         inkscape:label="Ebene 1"
         style="stroke:#666666;stroke-width:1.70620692;stroke-miterlimit:4;stroke-opacity:1;stroke-dasharray:none">
        <path
           inkscape:connector-curvature="0"
           id="path9022"
           d="m 327.8125,397.3125 0,0.75 0,10.6875 0,0.75 0,0.75 0,10.6875 0,0.75 0.75,0 11.4375,0 c 3.56123,0 6.46875,-2.90734 6.46875,-6.46875 0,-2.47187 -1.38941,-4.63048 -3.4375,-5.71875 2.04809,-1.08818 3.4375,-3.2466 3.4375,-5.71875 0,-3.56102 -2.90745,-6.46875 -6.46875,-6.46875 l -11.4375,0 -0.75,0 z m 1.5,1.5 10.6875,0 c 2.75056,0 4.96875,2.21845 4.96875,4.96875 0,2.75082 -2.21812,4.96875 -4.96875,4.96875 l -10.6875,0 0,-9.9375 z m 0,11.4375 10.6875,0 c 2.75056,0 4.96875,2.21845 4.96875,4.96875 0,2.75081 -2.21812,4.96875 -4.96875,4.96875 l -10.6875,0 0,-9.9375 z"
           style="font-size:medium;font-style:normal;font-variant:normal;font-weight:normal;font-stretch:normal;text-indent:0;text-align:start;text-decoration:none;line-height:normal;letter-spacing:normal;word-spacing:normal;text-transform:none;direction:ltr;block-progression:tb;writing-mode:lr-tb;text-anchor:start;baseline-shift:baseline;color:#000000;fill:#666666;fill-opacity:1;stroke:#666666;stroke-width:1.70620692;stroke-miterlimit:4;stroke-opacity:1;stroke-dasharray:none;marker:none;visibility:visible;display:inline;overflow:visible;enable-background:accumulate;font-family:Sans;-inkscape-font-specification:Sans" />
      </g>
    </g>
    <g
       id="g8427">
      <rect
         style="color:#000000;fill:#eeeeee;fill-opacity:1;fill-rule:nonzero;stroke:none;stroke-width:1.5;marker:none;visibility:visible;display:inline;overflow:visible;enable-background:accumulate"
         id="rect9024"
         width="31.999954"
         height="31.999924"
         x="165"
         y="430.362" />
      <g
         transform="matrix(0.82053234,0,0,0.82053236,-95.6351,110.3539)"
         id="g9026"
         inkscape:label="Ebene 1"
         style="stroke:#666666;stroke-width:0.60936052;stroke-opacity:1">
        <path
           inkscape:connector-curvature="0"
           id="path9028"
           d="m 327.8125,397.3125 0,0.75 0,10.6875 0,0.75 0,0.75 0,10.6875 0,0.75 0.75,0 11.4375,0 c 3.56123,0 6.46875,-2.90734 6.46875,-6.46875 0,-2.47187 -1.38941,-4.63048 -3.4375,-5.71875 2.04809,-1.08818 3.4375,-3.2466 3.4375,-5.71875 0,-3.56102 -2.90745,-6.46875 -6.46875,-6.46875 l -11.4375,0 -0.75,0 z m 1.5,1.5 10.6875,0 c 2.75056,0 4.96875,2.21845 4.96875,4.96875 0,2.75082 -2.21812,4.96875 -4.96875,4.96875 l -10.6875,0 0,-9.9375 z m 0,11.4375 10.6875,0 c 2.75056,0 4.96875,2.21845 4.96875,4.96875 0,2.75081 -2.21812,4.96875 -4.96875,4.96875 l -10.6875,0 0,-9.9375 z"
           style="font-size:medium;font-style:normal;font-variant:normal;font-weight:normal;font-stretch:normal;text-indent:0;text-align:start;text-decoration:none;line-height:normal;letter-spacing:normal;word-spacing:normal;text-transform:none;direction:ltr;block-progression:tb;writing-mode:lr-tb;text-anchor:start;baseline-shift:baseline;color:#000000;fill:#666666;fill-opacity:1;stroke:#666666;stroke-width:0.60936052;stroke-opacity:1;marker:none;visibility:visible;display:inline;overflow:visible;enable-background:accumulate;font-family:Sans;-inkscape-font-specification:Sans" />
      </g>
    </g>
    <g
       id="g8432"
       transform="translate(130,0)">
      <rect
         y="405.362"
         x="210"
         height="56.999947"
         width="57"
         id="rect9030"
         style="color:#000000;fill:#eeeeee;fill-opacity:1;fill-rule:nonzero;stroke:none;stroke-width:1.5;marker:none;visibility:visible;display:inline;overflow:visible;enable-background:accumulate" />
      <g
         transform="matrix(1.3538558,0,0,1.3538558,-217.9398,-120.54189)"
         id="g9032"
         inkscape:label="Ebene 1">
        <path
           inkscape:connector-curvature="0"
           id="path9034"
           d="m 327.8125,397.3125 0,0.75 0,10.6875 0,0.75 0,0.75 0,10.6875 0,0.75 0.75,0 11.4375,0 c 3.56123,0 6.46875,-2.90734 6.46875,-6.46875 0,-2.47187 -1.38941,-4.63048 -3.4375,-5.71875 2.04809,-1.08818 3.4375,-3.2466 3.4375,-5.71875 0,-3.56102 -2.90745,-6.46875 -6.46875,-6.46875 l -11.4375,0 -0.75,0 z m 1.5,1.5 10.6875,0 c 2.75056,0 4.96875,2.21845 4.96875,4.96875 0,2.75082 -2.21812,4.96875 -4.96875,4.96875 l -10.6875,0 0,-9.9375 z m 0,11.4375 10.6875,0 c 2.75056,0 4.96875,2.21845 4.96875,4.96875 0,2.75081 -2.21812,4.96875 -4.96875,4.96875 l -10.6875,0 0,-9.9375 z"
           style="font-size:medium;font-style:normal;font-variant:normal;font-weight:normal;font-stretch:normal;text-indent:0;text-align:start;text-decoration:none;line-height:normal;letter-spacing:normal;word-spacing:normal;text-transform:none;direction:ltr;block-progression:tb;writing-mode:lr-tb;text-anchor:start;baseline-shift:baseline;color:#000000;fill:#666666;fill-opacity:1;stroke:none;stroke-width:1.5;marker:none;visibility:visible;display:inline;overflow:visible;enable-background:accumulate;font-family:Sans;-inkscape-font-specification:Sans" />
      </g>
    </g>
    <g
       id="g9042"
       transform="matrix(1.2631579,0,0,1.2631579,-7042.6316,-4909.043)">
      <rect
         style="color:#000000;fill:#eeeeee;fill-opacity:1;fill-rule:nonzero;stroke:none;stroke-width:1.5;marker:none;visibility:visible;display:inline;overflow:visible;enable-background:accumulate"
         id="rect9036"
         width="57"
         height="56.999947"
         x="5900"
         y="4195.3623" />
      <g
         inkscape:label="Ebene 1"
         id="g9038"
         transform="matrix(1.3538558,0,0,1.3538558,5472.0602,3669.4584)">
        <path
           style="font-size:medium;font-style:normal;font-variant:normal;font-weight:normal;font-stretch:normal;text-indent:0;text-align:start;text-decoration:none;line-height:normal;letter-spacing:normal;word-spacing:normal;text-transform:none;direction:ltr;block-progression:tb;writing-mode:lr-tb;text-anchor:start;baseline-shift:baseline;color:#000000;fill:#666666;fill-opacity:1;stroke:none;stroke-width:1.5;marker:none;visibility:visible;display:inline;overflow:visible;enable-background:accumulate;font-family:Sans;-inkscape-font-specification:Sans"
           d="m 327.8125,397.3125 0,0.75 0,10.6875 0,0.75 0,0.75 0,10.6875 0,0.75 0.75,0 11.4375,0 c 3.56123,0 6.46875,-2.90734 6.46875,-6.46875 0,-2.47187 -1.38941,-4.63048 -3.4375,-5.71875 2.04809,-1.08818 3.4375,-3.2466 3.4375,-5.71875 0,-3.56102 -2.90745,-6.46875 -6.46875,-6.46875 l -11.4375,0 -0.75,0 z m 1.5,1.5 10.6875,0 c 2.75056,0 4.96875,2.21845 4.96875,4.96875 0,2.75082 -2.21812,4.96875 -4.96875,4.96875 l -10.6875,0 0,-9.9375 z m 0,11.4375 10.6875,0 c 2.75056,0 4.96875,2.21845 4.96875,4.96875 0,2.75081 -2.21812,4.96875 -4.96875,4.96875 l -10.6875,0 0,-9.9375 z"
           id="path9040"
           inkscape:connector-curvature="0" />
      </g>
    </g>
    <g
       transform="matrix(2,0,0,2,-11305,-8042.3626)"
       id="g9047">
      <rect
         y="4195.3623"
         x="5900"
         height="56.999947"
         width="57"
         id="rect9049"
         style="color:#000000;fill:#eeeeee;fill-opacity:1;fill-rule:nonzero;stroke:none;stroke-width:1.5;marker:none;visibility:visible;display:inline;overflow:visible;enable-background:accumulate" />
      <g
         transform="matrix(1.3538558,0,0,1.3538558,5472.0602,3669.4584)"
         id="g9051"
         inkscape:label="Ebene 1">
        <path
           inkscape:connector-curvature="0"
           id="path9053"
           d="m 327.8125,397.3125 0,0.75 0,10.6875 0,0.75 0,0.75 0,10.6875 0,0.75 0.75,0 11.4375,0 c 3.56123,0 6.46875,-2.90734 6.46875,-6.46875 0,-2.47187 -1.38941,-4.63048 -3.4375,-5.71875 2.04809,-1.08818 3.4375,-3.2466 3.4375,-5.71875 0,-3.56102 -2.90745,-6.46875 -6.46875,-6.46875 l -11.4375,0 -0.75,0 z m 1.5,1.5 10.6875,0 c 2.75056,0 4.96875,2.21845 4.96875,4.96875 0,2.75082 -2.21812,4.96875 -4.96875,4.96875 l -10.6875,0 0,-9.9375 z m 0,11.4375 10.6875,0 c 2.75056,0 4.96875,2.21845 4.96875,4.96875 0,2.75081 -2.21812,4.96875 -4.96875,4.96875 l -10.6875,0 0,-9.9375 z"
           style="font-size:medium;font-style:normal;font-variant:normal;font-weight:normal;font-stretch:normal;text-indent:0;text-align:start;text-decoration:none;line-height:normal;letter-spacing:normal;word-spacing:normal;text-transform:none;direction:ltr;block-progression:tb;writing-mode:lr-tb;text-anchor:start;baseline-shift:baseline;color:#000000;fill:#666666;fill-opacity:1;stroke:none;stroke-width:1.5;marker:none;visibility:visible;display:inline;overflow:visible;enable-background:accumulate;font-family:Sans;-inkscape-font-specification:Sans" />
      </g>
    </g>
    <g
       id="g8251"
       transform="matrix(2.5263158,0,0,2.5263158,-14280.263,-10280.448)">
      <rect
         style="color:#000000;fill:#eeeeee;fill-opacity:1;fill-rule:nonzero;stroke:none;stroke-width:1.5;marker:none;visibility:visible;display:inline;overflow:visible;enable-background:accumulate"
         id="rect8253"
         width="57"
         height="56.999947"
         x="5900"
         y="4195.3623" />
      <g
         inkscape:label="Ebene 1"
         id="g8255"
         transform="matrix(1.3538558,0,0,1.3538558,5472.0602,3669.4584)">
        <path
           style="font-size:medium;font-style:normal;font-variant:normal;font-weight:normal;font-stretch:normal;text-indent:0;text-align:start;text-decoration:none;line-height:normal;letter-spacing:normal;word-spacing:normal;text-transform:none;direction:ltr;block-progression:tb;writing-mode:lr-tb;text-anchor:start;baseline-shift:baseline;color:#000000;fill:#666666;fill-opacity:1;stroke:none;stroke-width:1.5;marker:none;visibility:visible;display:inline;overflow:visible;enable-background:accumulate;font-family:Sans;-inkscape-font-specification:Sans"
           d="m 327.8125,397.3125 0,0.75 0,10.6875 0,0.75 0,0.75 0,10.6875 0,0.75 0.75,0 11.4375,0 c 3.56123,0 6.46875,-2.90734 6.46875,-6.46875 0,-2.47187 -1.38941,-4.63048 -3.4375,-5.71875 2.04809,-1.08818 3.4375,-3.2466 3.4375,-5.71875 0,-3.56102 -2.90745,-6.46875 -6.46875,-6.46875 l -11.4375,0 -0.75,0 z m 1.5,1.5 10.6875,0 c 2.75056,0 4.96875,2.21845 4.96875,4.96875 0,2.75082 -2.21812,4.96875 -4.96875,4.96875 l -10.6875,0 0,-9.9375 z m 0,11.4375 10.6875,0 c 2.75056,0 4.96875,2.21845 4.96875,4.96875 0,2.75081 -2.21812,4.96875 -4.96875,4.96875 l -10.6875,0 0,-9.9375 z"
           id="path8258"
           inkscape:connector-curvature="0" />
      </g>
    </g>
    <g
       id="g8456"
       transform="matrix(0.75000107,0,0,0.75000107,86.249822,115.59024)">
      <rect
         y="430.362"
         x="165"
         height="31.999924"
         width="31.999954"
         id="rect8458"
         style="color:#000000;fill:#eeeeee;fill-opacity:1;fill-rule:nonzero;stroke:none;stroke-width:1.5;marker:none;visibility:visible;display:inline;overflow:visible;enable-background:accumulate" />
      <g
         style="stroke:#666666;stroke-width:0.81247956;stroke-opacity:1"
         inkscape:label="Ebene 1"
         id="g8460"
         transform="matrix(0.82053234,0,0,0.82053236,-95.6351,110.3539)">
        <path
           style="font-size:medium;font-style:normal;font-variant:normal;font-weight:normal;font-stretch:normal;text-indent:0;text-align:start;text-decoration:none;line-height:normal;letter-spacing:normal;word-spacing:normal;text-transform:none;direction:ltr;block-progression:tb;writing-mode:lr-tb;text-anchor:start;baseline-shift:baseline;color:#000000;fill:#666666;fill-opacity:1;stroke:#666666;stroke-width:0.81247956;stroke-opacity:1;marker:none;visibility:visible;display:inline;overflow:visible;enable-background:accumulate;font-family:Sans;-inkscape-font-specification:Sans"
           d="m 327.8125,397.3125 0,0.75 0,10.6875 0,0.75 0,0.75 0,10.6875 0,0.75 0.75,0 11.4375,0 c 3.56123,0 6.46875,-2.90734 6.46875,-6.46875 0,-2.47187 -1.38941,-4.63048 -3.4375,-5.71875 2.04809,-1.08818 3.4375,-3.2466 3.4375,-5.71875 0,-3.56102 -2.90745,-6.46875 -6.46875,-6.46875 l -11.4375,0 -0.75,0 z m 1.5,1.5 10.6875,0 c 2.75056,0 4.96875,2.21845 4.96875,4.96875 0,2.75082 -2.21812,4.96875 -4.96875,4.96875 l -10.6875,0 0,-9.9375 z m 0,11.4375 10.6875,0 c 2.75056,0 4.96875,2.21845 4.96875,4.96875 0,2.75081 -2.21812,4.96875 -4.96875,4.96875 l -10.6875,0 0,-9.9375 z"
           id="path8462"
           inkscape:connector-curvature="0" />
      </g>
    </g>
    <g
       transform="matrix(1.122807,0,0,1.122807,9.2105145,-56.781073)"
       id="g8472"
       inkscape:export-xdpi="90"
       inkscape:export-ydpi="90">
      <rect
         style="color:#000000;fill:#eeeeee;fill-opacity:1;fill-rule:nonzero;stroke:none;stroke-width:1.5;marker:none;visibility:visible;display:inline;overflow:visible;enable-background:accumulate"
         id="rect8474"
         width="57"
         height="56.999947"
         x="210"
         y="405.362" />
      <g
         inkscape:label="Ebene 1"
         id="g8476"
         transform="matrix(1.3538558,0,0,1.3538558,-217.9398,-120.54189)">
        <path
           style="font-size:medium;font-style:normal;font-variant:normal;font-weight:normal;font-stretch:normal;text-indent:0;text-align:start;text-decoration:none;line-height:normal;letter-spacing:normal;word-spacing:normal;text-transform:none;direction:ltr;block-progression:tb;writing-mode:lr-tb;text-anchor:start;baseline-shift:baseline;color:#000000;fill:#666666;fill-opacity:1;stroke:none;stroke-width:1.5;marker:none;visibility:visible;display:inline;overflow:visible;enable-background:accumulate;font-family:Sans;-inkscape-font-specification:Sans"
           d="m 327.8125,397.3125 0,0.75 0,10.6875 0,0.75 0,0.75 0,10.6875 0,0.75 0.75,0 11.4375,0 c 3.56123,0 6.46875,-2.90734 6.46875,-6.46875 0,-2.47187 -1.38941,-4.63048 -3.4375,-5.71875 2.04809,-1.08818 3.4375,-3.2466 3.4375,-5.71875 0,-3.56102 -2.90745,-6.46875 -6.46875,-6.46875 l -11.4375,0 -0.75,0 z m 1.5,1.5 10.6875,0 c 2.75056,0 4.96875,2.21845 4.96875,4.96875 0,2.75082 -2.21812,4.96875 -4.96875,4.96875 l -10.6875,0 0,-9.9375 z m 0,11.4375 10.6875,0 c 2.75056,0 4.96875,2.21845 4.96875,4.96875 0,2.75081 -2.21812,4.96875 -4.96875,4.96875 l -10.6875,0 0,-9.9375 z"
           id="path8478"
           inkscape:connector-curvature="0" />
      </g>
    </g>
  </g>
</svg>
