<?xml version="1.0" encoding="UTF-8" standalone="no"?>
<svg
   xmlns:dc="http://purl.org/dc/elements/1.1/"
   xmlns:cc="http://creativecommons.org/ns#"
   xmlns:rdf="http://www.w3.org/1999/02/22-rdf-syntax-ns#"
   xmlns:svg="http://www.w3.org/2000/svg"
   xmlns="http://www.w3.org/2000/svg"
   id="svg8"
   version="1.1"
   viewBox="0 0 145.52083 145.52083"
   height="550"
   width="550">
  <defs
     id="defs2" />
  <metadata
     id="metadata5">
    <rdf:RDF>
      <cc:Work
         rdf:about="">
        <dc:format>image/svg+xml</dc:format>
        <dc:type
           rdf:resource="http://purl.org/dc/dcmitype/StillImage" />
        <dc:title></dc:title>
      </cc:Work>
    </rdf:RDF>
  </metadata>
  <g
     transform="translate(39.498508,-121.43005)"
     id="layer1">
    <rect
       y="121.43005"
       x="-39.498508"
       height="145.52083"
       width="145.52083"
       id="rect5962"
       style="color:#000000;clip-rule:nonzero;display:inline;overflow:visible;visibility:visible;opacity:1;color-interpolation:sRGB;color-interpolation-filters:linearRGB;fill:#ffffff;fill-opacity:1;fill-rule:nonzero;stroke:none;stroke-width:0.92604166;stroke-linecap:round;stroke-linejoin:round;stroke-miterlimit:4;stroke-dasharray:none;stroke-dashoffset:0;stroke-opacity:1;marker:none;color-rendering:auto;image-rendering:auto;shape-rendering:auto;text-rendering:auto;enable-background:accumulate" />
    <g
       transform="translate(-1280.4013,-11.528347)"
       id="g6022"
       style="fill:none;stroke:#ff6731;stroke-width:0.79374999;stroke-opacity:1">
      <path
         style="fill:none;fill-rule:evenodd;stroke:#ff6731;stroke-width:0.79374999;stroke-linecap:round;stroke-linejoin:round;stroke-miterlimit:4;stroke-dasharray:none;stroke-opacity:1"
         d="m 1247.5107,222.91666 h 18.5209 v -1.32292 h -2.6458 v -1.32292 h 5.2916 v -1.32291 h -3.9687 v -1.32292 h 19.8438 v -1.32292 h -2.6459 v -2.64583 h -1.3229 v 2.64583 h -1.3229 v -2.64583 h -1.323 v 2.64583 h -2.6458 v -2.64583 h -1.3229 v 2.64583 h -1.3229 v -2.64583 h -1.3229 v 2.64583 h -2.6459 v -5.29166 h 15.8751 v -3.96875 h 17.1979 v -6.61459 h -1.323 v -1.32291 h 1.323 v -3.96875 h -1.323 v -1.32292 h 2.6459 v 10.58333 h 1.3229 v -11.90625 h -2.6458 l 4e-4,-6.00067"
         id="path5977" />
      <path
         id="path5988"
         style="color:#000000;clip-rule:nonzero;display:inline;overflow:visible;visibility:visible;opacity:1;color-interpolation:sRGB;color-interpolation-filters:linearRGB;fill:none;fill-opacity:1;fill-rule:nonzero;stroke:#ff6731;stroke-width:0.79374999;stroke-linecap:round;stroke-linejoin:round;stroke-miterlimit:4;stroke-dasharray:none;stroke-dashoffset:0;stroke-opacity:1;marker:none;color-rendering:auto;image-rendering:auto;shape-rendering:auto;text-rendering:auto;enable-background:accumulate"
         d="m 1301.7498,186.48895 a 5.2916665,5.2916665 0 0 1 -2.6224,-5.07996 5.2916665,5.2916665 0 0 1 3.5266,-4.49959" />
      <path
         id="path5991"
         style="color:#000000;clip-rule:nonzero;display:inline;overflow:visible;visibility:visible;opacity:1;color-interpolation:sRGB;color-interpolation-filters:linearRGB;fill:none;fill-opacity:1;fill-rule:nonzero;stroke:#ff6731;stroke-width:0.79374999;stroke-linecap:round;stroke-linejoin:round;stroke-miterlimit:4;stroke-dasharray:none;stroke-dashoffset:0;stroke-opacity:1;marker:none;color-rendering:auto;image-rendering:auto;shape-rendering:auto;text-rendering:auto;enable-background:accumulate"
         d="m 1302.6279,176.85347 a 1.984375,1.984375 0 0 1 0.5283,-2.44959 1.984375,1.984375 0 0 1 2.5059,0.021 1.984375,1.984375 0 0 1 0.4872,2.45809" />
      <path
         style="fill:none;fill-rule:evenodd;stroke:#ff6731;stroke-width:0.79374999;stroke-linecap:round;stroke-linejoin:round;stroke-miterlimit:4;stroke-dasharray:none;stroke-opacity:1"
         d="m 1304.3967,173.96873 v -2.64582"
         id="path5993" />
      <path
         d="m -1307.0421,186.48895 a 5.2916665,5.2916665 0 0 1 -2.6224,-5.07996 5.2916665,5.2916665 0 0 1 3.5266,-4.49959"
         style="color:#000000;clip-rule:nonzero;display:inline;overflow:visible;visibility:visible;opacity:1;color-interpolation:sRGB;color-interpolation-filters:linearRGB;fill:none;fill-opacity:1;fill-rule:nonzero;stroke:#ff6731;stroke-width:0.79374999;stroke-linecap:round;stroke-linejoin:round;stroke-miterlimit:4;stroke-dasharray:none;stroke-dashoffset:0;stroke-opacity:1;marker:none;color-rendering:auto;image-rendering:auto;shape-rendering:auto;text-rendering:auto;enable-background:accumulate"
         id="path5995"
         transform="scale(-1,1)" />
      <path
         style="color:#000000;clip-rule:nonzero;display:inline;overflow:visible;visibility:visible;opacity:1;color-interpolation:sRGB;color-interpolation-filters:linearRGB;fill:none;fill-opacity:1;fill-rule:nonzero;stroke:#ff6731;stroke-width:0.79374999;stroke-linecap:round;stroke-linejoin:round;stroke-miterlimit:4;stroke-dasharray:none;stroke-dashoffset:0;stroke-opacity:1;marker:none;color-rendering:auto;image-rendering:auto;shape-rendering:auto;text-rendering:auto;enable-background:accumulate"
         id="path5997"
         d="m 1300.4275,181.90623 a 3.9687448,3.9687448 0 0 1 3.2796,-3.90845 3.9687448,3.9687448 0 0 1 4.4185,2.55106 3.9687448,3.9687448 0 0 1 -1.745,4.79443" />
      <path
         id="path5999"
         style="color:#000000;clip-rule:nonzero;display:inline;overflow:visible;visibility:visible;opacity:1;color-interpolation:sRGB;color-interpolation-filters:linearRGB;fill:none;fill-opacity:1;fill-rule:nonzero;stroke:#ff6731;stroke-width:0.79374999;stroke-linecap:round;stroke-linejoin:round;stroke-miterlimit:4;stroke-dasharray:none;stroke-dashoffset:0;stroke-opacity:1;marker:none;color-rendering:auto;image-rendering:auto;shape-rendering:auto;text-rendering:auto;enable-background:accumulate"
         d="m 1301.7504,181.90623 a 2.6458282,2.6458282 0 0 1 1.5277,-2.39793 2.6458282,2.6458282 0 0 1 2.8188,0.37111 2.6458282,2.6458282 0 0 1 0.855,2.71162" />
      <path
         style="fill:none;fill-rule:evenodd;stroke:#ff6731;stroke-width:0.79374999;stroke-linecap:round;stroke-linejoin:round;stroke-miterlimit:4;stroke-dasharray:none;stroke-opacity:1"
         d="m 1304.3962,184.28749 v 2.91042 h -1.3229 v 1.32291 h 1.3229 v 1.32292 h -1.3229 v 1.32292 h 3.9687 v 2.64583 h 1.3229 v 1.32292 h -2.6458 v 1.32291 h 1.3229 v 1.32292 h -1.3229 v 1.32292 h 2.6458 v 1.32291 h -1.3229 v 3.96875 h -1.3229 v 2.64584 h -2.6458 v 7.9375 h 2.6458 l -10e-5,2.64583 h -1.3229 v -1.32292 h -2.6458 v 2.64584 h -1.323 v -2.64584 h -1.3229 v 2.64584 h -1.3229 v 2.64583 h 1.3229 v -1.32292 h 1.3229 v 2.64584 l -7e-4,2.64583 h 3.9688 v -2.64583 h 3.9694 1.3227 1.3229 l 4e-4,1.32291 h -3.9688 v 1.32292 h 1.3229 v 1.32292 h -1.3229 v 1.32291 2.64584 h 1.3229 v -2.64584 h 1.3229 v 2.64584 h 3.9688 v 17.19792"
         id="path6001" />
      <path
         style="color:#000000;clip-rule:nonzero;display:inline;overflow:visible;visibility:visible;opacity:1;color-interpolation:sRGB;color-interpolation-filters:linearRGB;fill:none;fill-opacity:1;fill-rule:nonzero;stroke:#ff6731;stroke-width:0.79374999;stroke-linecap:round;stroke-linejoin:round;stroke-miterlimit:4;stroke-dasharray:none;stroke-dashoffset:0;stroke-opacity:1;marker:none;color-rendering:auto;image-rendering:auto;shape-rendering:auto;text-rendering:auto;enable-background:accumulate"
         id="path6003"
         transform="matrix(0.25881905,-0.96592583,-0.96592583,-0.25881905,0,0)"
         d="m 161.89467,-1308.3537 a 0.6614573,0.6614573 0 0 1 -0.57284,-0.3307 0.6614573,0.6614573 0 0 1 0,-0.6615 0.6614573,0.6614573 0 0 1 0.57284,-0.3307" />
      <path
         d="m 1303.5468,182.92093 a 1.3229727,1.3229727 0 0 1 -0.2777,-1.70812 1.3229727,1.3229727 0 0 1 1.6501,-0.52153 1.3229727,1.3229727 0 0 1 0.7544,1.55743"
         id="path6005"
         style="color:#000000;clip-rule:nonzero;display:inline;overflow:visible;visibility:visible;opacity:1;color-interpolation:sRGB;color-interpolation-filters:linearRGB;fill:none;fill-opacity:1;fill-rule:nonzero;stroke:#ff6731;stroke-width:0.79374999;stroke-linecap:round;stroke-linejoin:round;stroke-miterlimit:4;stroke-dasharray:none;stroke-dashoffset:0;stroke-opacity:1;marker:none;color-rendering:auto;image-rendering:auto;shape-rendering:auto;text-rendering:auto;enable-background:accumulate" />
      <g
         transform="translate(667.54371,-2.1166525)"
         style="fill:none;stroke:#ff6731;stroke-width:0.79374999;stroke-opacity:1"
         id="g6009">
        <path
           d="m 643.54156,-157.73465 a 1.3229727,1.3229727 0 0 1 1.14573,0.66148"
           style="color:#000000;clip-rule:nonzero;display:inline;overflow:visible;visibility:visible;opacity:1;color-interpolation:sRGB;color-interpolation-filters:linearRGB;fill:none;fill-opacity:1;fill-rule:nonzero;stroke:#ff6731;stroke-width:0.79374999;stroke-linecap:round;stroke-linejoin:round;stroke-miterlimit:4;stroke-dasharray:none;stroke-dashoffset:0;stroke-opacity:1;marker:none;color-rendering:auto;image-rendering:auto;shape-rendering:auto;text-rendering:auto;enable-background:accumulate"
           id="path6007"
           transform="rotate(30)" />
      </g>
      <path
         d="m 1038.7473,815.02474 a 0.6614573,0.6614573 0 0 1 -0.5728,-0.33073 0.6614573,0.6614573 0 0 1 0,-0.66146 0.6614573,0.6614573 0 0 1 0.5728,-0.33073"
         transform="rotate(-30)"
         id="path6011"
         style="color:#000000;clip-rule:nonzero;display:inline;overflow:visible;visibility:visible;opacity:1;color-interpolation:sRGB;color-interpolation-filters:linearRGB;fill:none;fill-opacity:1;fill-rule:nonzero;stroke:#ff6731;stroke-width:0.79374999;stroke-linecap:round;stroke-linejoin:round;stroke-miterlimit:4;stroke-dasharray:none;stroke-dashoffset:0;stroke-opacity:1;marker:none;color-rendering:auto;image-rendering:auto;shape-rendering:auto;text-rendering:auto;enable-background:accumulate" />
      <path
         d="m -181.90623,1301.7508 a 0.6614573,0.6614573 0 0 1 -0.57284,-0.3307 0.6614573,0.6614573 0 0 1 0,-0.6615 0.6614573,0.6614573 0 0 1 0.57284,-0.3307"
         transform="rotate(-90)"
         id="path6020"
         style="color:#000000;clip-rule:nonzero;display:inline;overflow:visible;visibility:visible;opacity:1;color-interpolation:sRGB;color-interpolation-filters:linearRGB;fill:none;fill-opacity:1;fill-rule:nonzero;stroke:#ff6731;stroke-width:0.79374999;stroke-linecap:round;stroke-linejoin:round;stroke-miterlimit:4;stroke-dasharray:none;stroke-dashoffset:0;stroke-opacity:1;marker:none;color-rendering:auto;image-rendering:auto;shape-rendering:auto;text-rendering:auto;enable-background:accumulate" />
    </g>
    <g
       transform="translate(-992.00612,-11.528347)"
       id="g6046"
       style="fill:none;stroke:#a368ff;stroke-width:0.79374999;stroke-opacity:1">
      <path
         style="fill:none;fill-opacity:1;fill-rule:evenodd;stroke:#a368ff;stroke-width:0.79374999;stroke-linecap:round;stroke-linejoin:round;stroke-opacity:1"
         d="m 978.95835,184.55207 v 19.84375 h 1.32292 v 5.29167 h 2.64583 v -2.64583 h 1.32292 v 2.64583 h 1.32292 v -2.64583 h 1.32291 v 2.64583 h 2.64584 v -2.64583 h 1.32291 v 2.64583 h 1.32292 v -2.64583 h 1.32292 v 2.64583 h 1.32291 v -3.96875 h 2.64584 v -1.32292 h -3.96876 v 1.32292 h -11.90624 v -2.64583"
         id="path6032" />
      <path
         style="color:#000000;clip-rule:nonzero;display:inline;overflow:visible;visibility:visible;opacity:1;color-interpolation:sRGB;color-interpolation-filters:linearRGB;fill:none;fill-opacity:1;fill-rule:nonzero;stroke:#a368ff;stroke-width:0.79374999;stroke-linecap:round;stroke-linejoin:round;stroke-miterlimit:4;stroke-dasharray:none;stroke-dashoffset:0;stroke-opacity:1;marker:none;color-rendering:auto;image-rendering:auto;shape-rendering:auto;text-rendering:auto;enable-background:accumulate"
         id="path6034"
         d="m 984.25016,-203.07291 a 1.3229116,1.3229116 0 0 1 -0.66146,1.14568 1.3229116,1.3229116 0 0 1 -1.32291,0 1.3229116,1.3229116 0 0 1 -0.66146,-1.14568"
         transform="scale(1,-1)" />
      <path
         transform="scale(1,-1)"
         d="m 990.86477,-203.07291 a 2.645833,2.645833 0 0 1 -1.32292,2.29136 2.645833,2.645833 0 0 1 -2.64583,0 2.645833,2.645833 0 0 1 -1.32292,-2.29136"
         id="path6036"
         style="color:#000000;clip-rule:nonzero;display:inline;overflow:visible;visibility:visible;opacity:1;color-interpolation:sRGB;color-interpolation-filters:linearRGB;fill:none;fill-opacity:1;fill-rule:nonzero;stroke:#a368ff;stroke-width:0.79374999;stroke-linecap:round;stroke-linejoin:round;stroke-miterlimit:4;stroke-dasharray:none;stroke-dashoffset:0;stroke-opacity:1;marker:none;color-rendering:auto;image-rendering:auto;shape-rendering:auto;text-rendering:auto;enable-background:accumulate" />
      <path
         style="fill:none;fill-rule:evenodd;stroke:#a368ff;stroke-width:0.79374999;stroke-linecap:round;stroke-linejoin:round;stroke-opacity:1"
         d="m 984.25002,203.07291 -8e-5,1.32291 h 1.32291 l 9e-5,-1.32291"
         id="path6038" />
      <path
         style="fill:none;fill-rule:evenodd;stroke:#a368ff;stroke-width:0.79374999;stroke-linecap:round;stroke-linejoin:round;stroke-opacity:1"
         d="m 992.18752,203.07291 v 1.32291 h -5.29167 v -1.32291 h 3.9696"
         id="path6040" />
      <path
         transform="scale(1,-1)"
         d="m 994.83347,-203.07291 a 1.3229116,1.3229116 0 0 1 -0.66146,1.14568 1.3229116,1.3229116 0 0 1 -1.32291,0 1.3229116,1.3229116 0 0 1 -0.66145,-1.14568"
         id="path6042"
         style="color:#000000;clip-rule:nonzero;display:inline;overflow:visible;visibility:visible;opacity:1;color-interpolation:sRGB;color-interpolation-filters:linearRGB;fill:none;fill-opacity:1;fill-rule:nonzero;stroke:#a368ff;stroke-width:0.79374999;stroke-linecap:round;stroke-linejoin:round;stroke-miterlimit:4;stroke-dasharray:none;stroke-dashoffset:0;stroke-opacity:1;marker:none;color-rendering:auto;image-rendering:auto;shape-rendering:auto;text-rendering:auto;enable-background:accumulate" />
      <path
         id="path6044"
         d="m 994.83335,203.07291 h 9.26045 v -2.64584 h -1.323 v 1.32292 h -1.3229 v -1.32292 h -1.3229 v 1.32292 h -1.3229 v -1.32292 h -1.32291 l -10e-6,1.32292 h -1.32291 v -1.32292 h -1.32292 v -3.96875 h 1.32292 v 2.64584 h 1.32291 v -2.64584 h 1.32292 v 2.64584 h 1.3229 v -2.64584 h 1.3229 v 2.64584 h 1.3229 v -2.64584 h 1.323 v 2.64584 h 1.3229 v -2.64584 h 1.3229 v 6.61459 h -1.3229 v 2.64583 l 1.3235,4e-5 -6e-4,3.96871 h 1.3229 v -1.32292 h 1.323 v 1.32292 h 1.3229 v -1.32292 h 1.3229 v 1.32292 h 1.3229 v 2.64583 h -1.3229 v 2.64584 h -2.6458 v -2.64584 h -1.323 v 2.64584 h -2.6458 v -1.32292 h 1.3229 v -1.32292 h -1.3229 v -3.96875 h -7.93752 v 3.96875 h 1.32292 v -2.64583 h 1.3229 v 2.64583 h 1.3229 v -2.64583 h 1.3229 v 2.64583 h 1.323 v 1.32292 h -7.93753 v 1.32292 h 1.32291 v 3.96875 h 2.64582 v -3.96875 h 1.3229 v 3.96875 h 1.3229 v -3.96875 h 1.323 v 3.96875 h 2.6458 v -2.64584 h 1.3229 l 6e-4,6.61459 h 2.6451 v 1.32291 l -3.9684,-10e-6 -2e-4,1.32292 h 2.6458 v 3.96876 h 3.9688 v 1.32292 h -3.9688 v 7.9375"
         style="fill:none;fill-rule:evenodd;stroke:#a368ff;stroke-width:0.79374999;stroke-linecap:round;stroke-linejoin:round;stroke-opacity:1" />
    </g>
    <g
       transform="translate(-992.00612,-11.528347)"
       style="fill:none;stroke:#00c47d;stroke-width:0.79374999;stroke-opacity:1"
       id="g6108">
      <path
         style="fill:none;fill-rule:evenodd;stroke:#00c47d;stroke-width:0.79374999;stroke-linecap:round;stroke-linejoin:round;stroke-opacity:1"
         d="m 1041.1354,212.33332 h 1.3229 v 3.96875 h 1.3229 v -3.96875 h 1.323 v 3.96875 h 1.3229 v -3.96875 h 1.3229 v 5.29167 h 3.9687 6.6146 v -6.61458 h 3.9687 v 1.32291 h -1.3229 v 1.32292 h 1.3229 v 1.32292 h -1.3229 v 1.32291 h 1.3229 v 1.32292 h 1.323 v -5.29167 h 1.3229 v -1.32291 h 6.6146 v -3.96875 h -1.323 v 2.64583 h -1.3229 v -2.64583 h -1.3229 v 2.64583 h -3.9687 v -1.32292 0 -2.64583 h 1.3229 v -1.32292 h -3.9688 v -2.64583 h -1.3229 v 3.96875 h 2.6458 v 1.32292 h -5.2916 v -1.32292 h -1.3229 v -1.32292 h 2.6458 v -1.32291 h -1.3229 v -1.32292 h 1.3229 v -1.32292 h -1.3229 v -1.32291 h -1.3229 v -1.32292 h 6.6145 v 5.29167 h 1.323 v -3.96875 h 1.3229 v -1.32292 h -1.3229 v -1.32292 h -2.6459 v -1.32291 h 2.6459 v -1.32292 h -5.2917 v 2.64583 h -1.3229 v -3.96875 h -1.3229 v -6.61458 h 1.3229 v 2.64583 h 1.3229 v -2.64583 h 1.3229 v 2.64583 h 1.3229 v -2.64583 h 1.3229 v 2.64583 h 1.323 v -2.64583 h 1.3229 v 5.29172 h -5.2917 v 1.32292 h 21.1666 v 3.96875"
         id="path6048" />
      <path
         transform="scale(1,-1)"
         d="m 1030.552,-212.33331 a 1.3229116,1.3229116 0 0 1 -0.6614,1.14567 1.3229116,1.3229116 0 0 1 -1.3229,0 1.3229116,1.3229116 0 0 1 -0.6615,-1.14567"
         id="path6050"
         style="color:#000000;clip-rule:nonzero;display:inline;overflow:visible;visibility:visible;opacity:1;color-interpolation:sRGB;color-interpolation-filters:linearRGB;fill:none;fill-opacity:1;fill-rule:nonzero;stroke:#00c47d;stroke-width:0.79374999;stroke-linecap:round;stroke-linejoin:round;stroke-miterlimit:4;stroke-dasharray:none;stroke-dashoffset:0;stroke-opacity:1;marker:none;color-rendering:auto;image-rendering:auto;shape-rendering:auto;text-rendering:auto;enable-background:accumulate" />
      <path
         style="color:#000000;clip-rule:nonzero;display:inline;overflow:visible;visibility:visible;opacity:1;color-interpolation:sRGB;color-interpolation-filters:linearRGB;fill:none;fill-opacity:1;fill-rule:nonzero;stroke:#00c47d;stroke-width:0.79374999;stroke-linecap:round;stroke-linejoin:round;stroke-miterlimit:4;stroke-dasharray:none;stroke-dashoffset:0;stroke-opacity:1;marker:none;color-rendering:auto;image-rendering:auto;shape-rendering:auto;text-rendering:auto;enable-background:accumulate"
         id="path6052"
         d="m 1041.1354,-212.33334 a 11.90624,11.90624 0 0 1 -10.3522,11.80438 11.90624,11.90624 0 0 1 -13.0546,-8.72282"
         transform="scale(1,-1)" />
      <path
         transform="scale(1,-1)"
         d="m 1039.8125,-212.33334 a 10.583376,10.583376 0 0 1 -9.202,10.49283 10.583376,10.583376 0 0 1 -11.6041,-7.75365"
         id="path6054"
         style="color:#000000;clip-rule:nonzero;display:inline;overflow:visible;visibility:visible;opacity:1;color-interpolation:sRGB;color-interpolation-filters:linearRGB;fill:none;fill-opacity:1;fill-rule:nonzero;stroke:#00c47d;stroke-width:0.79374999;stroke-linecap:round;stroke-linejoin:round;stroke-miterlimit:4;stroke-dasharray:none;stroke-dashoffset:0;stroke-opacity:1;marker:none;color-rendering:auto;image-rendering:auto;shape-rendering:auto;text-rendering:auto;enable-background:accumulate" />
      <path
         style="fill:none;fill-rule:evenodd;stroke:#00c47d;stroke-width:0.79374999;stroke-linecap:round;stroke-linejoin:round;stroke-opacity:1"
         d="m 1039.8124,212.33324 -1.3229,8e-5"
         id="path6056" />
      <path
         d="m 1038.4895,-212.33333 a 9.2604218,9.2604218 0 0 1 -3.623,7.34679 9.2604218,9.2604218 0 0 1 -8.0341,1.59809"
         transform="scale(1,-1)"
         id="path6058"
         style="color:#000000;clip-rule:nonzero;display:inline;overflow:visible;visibility:visible;opacity:1;color-interpolation:sRGB;color-interpolation-filters:linearRGB;fill:none;fill-opacity:1;fill-rule:nonzero;stroke:#00c47d;stroke-width:0.79374999;stroke-linecap:round;stroke-linejoin:round;stroke-miterlimit:4;stroke-dasharray:none;stroke-dashoffset:0;stroke-opacity:1;marker:none;color-rendering:auto;image-rendering:auto;shape-rendering:auto;text-rendering:auto;enable-background:accumulate" />
      <path
         d="m 1037.1666,-212.33333 a 7.9375052,7.9375052 0 0 1 -3.1054,6.29725 7.9375052,7.9375052 0 0 1 -6.8865,1.36979"
         style="color:#000000;clip-rule:nonzero;display:inline;overflow:visible;visibility:visible;opacity:1;color-interpolation:sRGB;color-interpolation-filters:linearRGB;fill:none;fill-opacity:1;fill-rule:nonzero;stroke:#00c47d;stroke-width:0.79374999;stroke-linecap:round;stroke-linejoin:round;stroke-miterlimit:4;stroke-dasharray:none;stroke-dashoffset:0;stroke-opacity:1;marker:none;color-rendering:auto;image-rendering:auto;shape-rendering:auto;text-rendering:auto;enable-background:accumulate"
         id="path6060"
         transform="scale(1,-1)" />
      <path
         d="m 1035.8437,-212.33333 a 6.6145892,6.6145892 0 0 1 -4.9026,6.3892 6.6145892,6.6145892 0 0 1 -7.4404,-3.0819"
         transform="scale(1,-1)"
         id="path6062"
         style="color:#000000;clip-rule:nonzero;display:inline;overflow:visible;visibility:visible;opacity:1;color-interpolation:sRGB;color-interpolation-filters:linearRGB;fill:none;fill-opacity:1;fill-rule:nonzero;stroke:#00c47d;stroke-width:0.79374999;stroke-linecap:round;stroke-linejoin:round;stroke-miterlimit:4;stroke-dasharray:none;stroke-dashoffset:0;stroke-opacity:1;marker:none;color-rendering:auto;image-rendering:auto;shape-rendering:auto;text-rendering:auto;enable-background:accumulate" />
      <path
         d="m -1024.6464,-209.68749 a 5.291667,5.291667 0 0 1 -5.9523,2.46552 5.291667,5.291667 0 0 1 -3.9221,-5.11136"
         transform="scale(-1)"
         style="color:#000000;clip-rule:nonzero;display:inline;overflow:visible;visibility:visible;opacity:1;color-interpolation:sRGB;color-interpolation-filters:linearRGB;fill:none;fill-opacity:1;fill-rule:nonzero;stroke:#00c47d;stroke-width:0.79374999;stroke-linecap:round;stroke-linejoin:round;stroke-miterlimit:4;stroke-dasharray:none;stroke-dashoffset:0;stroke-opacity:1;marker:none;color-rendering:auto;image-rendering:auto;shape-rendering:auto;text-rendering:auto;enable-background:accumulate"
         id="path6064" />
      <path
         d="m -1031.2135,-208.89629 a 3.9687505,3.9687505 0 0 1 -1.9844,-3.43704"
         id="path6066"
         style="color:#000000;clip-rule:nonzero;display:inline;overflow:visible;visibility:visible;opacity:1;color-interpolation:sRGB;color-interpolation-filters:linearRGB;fill:none;fill-opacity:1;fill-rule:nonzero;stroke:#00c47d;stroke-width:0.79374999;stroke-linecap:round;stroke-linejoin:round;stroke-miterlimit:4;stroke-dasharray:none;stroke-dashoffset:0;stroke-opacity:1;marker:none;color-rendering:auto;image-rendering:auto;shape-rendering:auto;text-rendering:auto;enable-background:accumulate"
         transform="scale(-1)" />
      <path
         d="m -1030.552,-210.04197 a 2.645834,2.645834 0 0 1 -1.323,-2.29136"
         transform="scale(-1)"
         style="color:#000000;clip-rule:nonzero;display:inline;overflow:visible;visibility:visible;opacity:1;color-interpolation:sRGB;color-interpolation-filters:linearRGB;fill:none;fill-opacity:1;fill-rule:nonzero;stroke:#00c47d;stroke-width:0.79374999;stroke-linecap:round;stroke-linejoin:round;stroke-miterlimit:4;stroke-dasharray:none;stroke-dashoffset:0;stroke-opacity:1;marker:none;color-rendering:auto;image-rendering:auto;shape-rendering:auto;text-rendering:auto;enable-background:accumulate"
         id="path6068" />
      <path
         id="path6070"
         d="m 1037.1666,212.33324 -1.3229,8e-5"
         style="fill:none;fill-rule:evenodd;stroke:#00c47d;stroke-width:0.79374999;stroke-linecap:round;stroke-linejoin:round;stroke-opacity:1" />
      <path
         style="fill:none;fill-rule:evenodd;stroke:#00c47d;stroke-width:0.79374999;stroke-linecap:round;stroke-linejoin:round;stroke-opacity:1"
         d="m 1034.5208,212.33325 -1.3229,8e-5"
         id="path6072" />
      <path
         id="path6074"
         d="m 1031.8749,212.33324 -1.3229,8e-5"
         style="fill:none;fill-rule:evenodd;stroke:#00c47d;stroke-width:0.79374999;stroke-linecap:round;stroke-linejoin:round;stroke-opacity:1" />
      <path
         style="fill:none;fill-rule:evenodd;stroke:#00c47d;stroke-width:0.79374999;stroke-linecap:round;stroke-linejoin:round;stroke-opacity:1"
         d="m 1027.9062,212.33324 -9.2604,8e-5 10e-5,1.32291 1.3228,1e-5 v 5.29167 h 1.323 v -5.29167 h 1.3229 v 5.29167 h 1.3229 v -5.29167 h 1.3229 v 5.29167 h 2.6458 v 1.32291 h -2.6458 v 1.32292 h 2.6458 v 1.32292 h -2.6458 v 1.32291 5.29167 h 1.3229 v -2.64583 h 1.3229 v 2.64583 l 3e-4,5.29165 h 6.6147 v -2.64583 h 1.3229 v 2.64583 h 1.3229 l -3e-4,-3.96874 h -7.9376 v -1.32291 h 2.6459 v -1.32292 h -2.6459 v -1.32291 h 3.9688 v -2.64584 h 1.3229 v 2.64584 h 1.3229 v -2.64584 h 2.6458 v 6.61459 h 1.323 v 26.45833"
         id="path6076" />
      <path
         style="fill:none;fill-rule:evenodd;stroke:#00c47d;stroke-width:0.79374999;stroke-linecap:round;stroke-linejoin:round;stroke-miterlimit:4;stroke-dasharray:none;stroke-opacity:1"
         d="m 1029.2292,200.42707 v -2.64582"
         id="path6078" />
      <path
         d="m 939.20294,463.54491 a 0.6614573,0.6614573 0 0 1 -0.57284,-0.33073 0.6614573,0.6614573 0 0 1 0,-0.66146 0.6614573,0.6614573 0 0 1 0.57284,-0.33072"
         transform="rotate(-15)"
         id="path6080"
         style="color:#000000;clip-rule:nonzero;display:inline;overflow:visible;visibility:visible;opacity:1;color-interpolation:sRGB;color-interpolation-filters:linearRGB;fill:none;fill-opacity:1;fill-rule:nonzero;stroke:#00c47d;stroke-width:0.79374999;stroke-linecap:round;stroke-linejoin:round;stroke-miterlimit:4;stroke-dasharray:none;stroke-dashoffset:0;stroke-opacity:1;marker:none;color-rendering:auto;image-rendering:auto;shape-rendering:auto;text-rendering:auto;enable-background:accumulate" />
      <path
         style="color:#000000;clip-rule:nonzero;display:inline;overflow:visible;visibility:visible;opacity:1;color-interpolation:sRGB;color-interpolation-filters:linearRGB;fill:none;fill-opacity:1;fill-rule:nonzero;stroke:#00c47d;stroke-width:0.79374999;stroke-linecap:round;stroke-linejoin:round;stroke-miterlimit:4;stroke-dasharray:none;stroke-dashoffset:0;stroke-opacity:1;marker:none;color-rendering:auto;image-rendering:auto;shape-rendering:auto;text-rendering:auto;enable-background:accumulate"
         id="path6082"
         transform="rotate(-75)"
         d="m 61.290176,1038.5318 a 0.6614573,0.6614573 0 0 1 -0.572838,-0.3307 0.6614573,0.6614573 0 0 1 0,-0.6615 0.6614573,0.6614573 0 0 1 0.572838,-0.3307" />
      <path
         d="m 330.72849,992.21383 a 0.6614573,0.6614573 0 0 1 -0.57284,-0.33073 0.6614573,0.6614573 0 0 1 0,-0.66146 0.6614573,0.6614573 0 0 1 0.57284,-0.33073"
         transform="rotate(-60)"
         id="path6099"
         style="color:#000000;clip-rule:nonzero;display:inline;overflow:visible;visibility:visible;opacity:1;color-interpolation:sRGB;color-interpolation-filters:linearRGB;fill:none;fill-opacity:1;fill-rule:nonzero;stroke:#00c47d;stroke-width:0.79374999;stroke-linecap:round;stroke-linejoin:round;stroke-miterlimit:4;stroke-dasharray:none;stroke-dashoffset:0;stroke-opacity:1;marker:none;color-rendering:auto;image-rendering:auto;shape-rendering:auto;text-rendering:auto;enable-background:accumulate" />
      <path
         style="color:#000000;clip-rule:nonzero;display:inline;overflow:visible;visibility:visible;opacity:1;color-interpolation:sRGB;color-interpolation-filters:linearRGB;fill:none;fill-opacity:1;fill-rule:nonzero;stroke:#00c47d;stroke-width:0.79374999;stroke-linecap:round;stroke-linejoin:round;stroke-miterlimit:4;stroke-dasharray:none;stroke-dashoffset:0;stroke-opacity:1;marker:none;color-rendering:auto;image-rendering:auto;shape-rendering:auto;text-rendering:auto;enable-background:accumulate"
         id="path6106"
         transform="rotate(30)"
         d="m 997.50525,-333.37434 a 0.6614573,0.6614573 0 0 1 -0.57284,-0.33073 0.6614573,0.6614573 0 0 1 0,-0.66146 0.6614573,0.6614573 0 0 1 0.57284,-0.33072" />
    </g>
    <g
       id="g6140"
       transform="translate(-1436.5055,-11.528347)"
       style="fill:none;stroke:#fec040;stroke-width:0.79374999;stroke-opacity:1">
      <path
         style="fill:none;fill-rule:evenodd;stroke:#fec040;stroke-width:0.79374999;stroke-linecap:round;stroke-linejoin:round;stroke-opacity:1"
         d="M 1537.2292,238.79166 H 1492.25 v -6.61459 h -1.3229 v -6.61458 h 1.3229"
         id="path6110" />
      <path
         transform="scale(1,-1)"
         d="m 1497.5417,-225.56248 a 2.645833,2.645833 0 0 1 -1.3229,2.29135 2.645833,2.645833 0 0 1 -2.6458,0 2.645833,2.645833 0 0 1 -1.323,-2.29135"
         id="path6112"
         style="color:#000000;clip-rule:nonzero;display:inline;overflow:visible;visibility:visible;opacity:1;color-interpolation:sRGB;color-interpolation-filters:linearRGB;fill:none;fill-opacity:1;fill-rule:nonzero;stroke:#fec040;stroke-width:0.79374999;stroke-linecap:round;stroke-linejoin:round;stroke-miterlimit:4;stroke-dasharray:none;stroke-dashoffset:0;stroke-opacity:1;marker:none;color-rendering:auto;image-rendering:auto;shape-rendering:auto;text-rendering:auto;enable-background:accumulate" />
      <path
         style="color:#000000;clip-rule:nonzero;display:inline;overflow:visible;visibility:visible;opacity:1;color-interpolation:sRGB;color-interpolation-filters:linearRGB;fill:none;fill-opacity:1;fill-rule:nonzero;stroke:#fec040;stroke-width:0.79374999;stroke-linecap:round;stroke-linejoin:round;stroke-miterlimit:4;stroke-dasharray:none;stroke-dashoffset:0;stroke-opacity:1;marker:none;color-rendering:auto;image-rendering:auto;shape-rendering:auto;text-rendering:auto;enable-background:accumulate"
         id="path6114"
         d="m 1496.2188,-225.56248 a 1.3229116,1.3229116 0 0 1 -0.6615,1.14567 1.3229116,1.3229116 0 0 1 -1.3229,0 1.3229116,1.3229116 0 0 1 -0.6614,-1.14567"
         transform="scale(1,-1)" />
      <path
         id="path6116"
         d="m 1497.5416,225.56249 10e-5,1.32292 v 1.32292 h -1.323 v 1.32292 h 1.323 v 1.32291 h -2.6459 v -3.96875 h 1.3229 v -1.32292"
         style="fill:none;fill-rule:evenodd;stroke:#fec040;stroke-width:0.79374999;stroke-linecap:round;stroke-linejoin:round;stroke-opacity:1" />
      <path
         style="fill:none;fill-rule:evenodd;stroke:#fec040;stroke-width:0.79374999;stroke-linecap:round;stroke-linejoin:round;stroke-opacity:1"
         d="m 1493.5729,225.56249 v 1.32292 h -1.3229 v 1.32291 h 1.3229 v 1.32292 h -1.3229 v 1.32292 h 1.3229 v 1.32291 h 9.2604 v -2.64583 h 1.3229 v 2.64583 h 2.6458 v -2.64583 h 1.323 v 2.64583 h 1.3229 v -3.96875 h -7.9375 v -1.32291 h -2.6459 v -1.32292 h 2.6459 v -1.32292 h -2.6459 v -2.64583 h 1.323 v 1.32292 h 2.6458"
         id="path6118" />
      <path
         style="color:#000000;clip-rule:nonzero;display:inline;overflow:visible;visibility:visible;opacity:1;color-interpolation:sRGB;color-interpolation-filters:linearRGB;fill:none;fill-opacity:1;fill-rule:nonzero;stroke:#fec040;stroke-width:0.79374999;stroke-linecap:round;stroke-linejoin:round;stroke-miterlimit:4;stroke-dasharray:none;stroke-dashoffset:0;stroke-opacity:1;marker:none;color-rendering:auto;image-rendering:auto;shape-rendering:auto;text-rendering:auto;enable-background:accumulate"
         id="path6120"
         d="m 1508.125,-222.91666 a 2.645833,2.645833 0 0 1 -1.323,2.29136 2.645833,2.645833 0 0 1 -2.6458,0 2.645833,2.645833 0 0 1 -1.3229,-2.29136"
         transform="scale(1,-1)" />
      <path
         transform="scale(1,-1)"
         d="m 1506.802,-222.91666 a 1.3229116,1.3229116 0 0 1 -0.6614,1.14568 1.3229116,1.3229116 0 0 1 -1.3229,0 1.3229116,1.3229116 0 0 1 -0.6615,-1.14568"
         id="path6122"
         style="color:#000000;clip-rule:nonzero;display:inline;overflow:visible;visibility:visible;opacity:1;color-interpolation:sRGB;color-interpolation-filters:linearRGB;fill:none;fill-opacity:1;fill-rule:nonzero;stroke:#fec040;stroke-width:0.79374999;stroke-linecap:round;stroke-linejoin:round;stroke-miterlimit:4;stroke-dasharray:none;stroke-dashoffset:0;stroke-opacity:1;marker:none;color-rendering:auto;image-rendering:auto;shape-rendering:auto;text-rendering:auto;enable-background:accumulate" />
      <path
         id="path6124"
         d="m 1508.125,222.91666 v 2.64583 h -2.6459 v -1.32292 h 1.3229 v -1.32291"
         style="fill:none;fill-rule:evenodd;stroke:#fec040;stroke-width:0.79374999;stroke-linecap:round;stroke-linejoin:round;stroke-opacity:1" />
      <path
         style="fill:none;fill-rule:evenodd;stroke:#fec040;stroke-width:0.79374999;stroke-linecap:round;stroke-linejoin:round;stroke-opacity:1"
         d="m 1504.1562,222.91666 v 2.64583 h -1.3229 v 1.32292 h 2.6459 6.6145 v 1.32291 h 2.6458 2.6459 v -3.96875 h 1.3229 v 3.96875 h 1.3229 v -5.29166 h -5.2917 v -1.32292 h 5.2917 v -1.32292 h -1.3229 v -1.32291 h -1.323 l 10e-5,1.32291 h -1.3229 v -1.32291 h -1.323 v 1.32291 h -1.3229 v 3.96875 h -3.9687 v -1.32291 h 2.6458 v -2.64584 h -1.3229 v -2.64583 h 1.3229 v 1.32292 h 1.3229 v -1.32292 h 2.6459 v -1.32292 h -2.008 -3.2837 v -3.96875 h 6.6146 v -7.9375 h -6.6146 v 3.96875 h -3.9688 v 1.32292 h -1.3229 v -1.32292 h -1.3229 v 1.32292 h -1.3229 v -1.32292 h -2.6458 v 5.29167 h -3.9688 v 1.32292 h 3.9688 v 1.32291 h -3.9688 -1.3229 v -5.29166 h -5.2917 v 0 -1.32292 h 5.2917 v -1.32292 h -7.9375 v -1.32291 h 7.9375 v -1.32292 h -10.5834 v -2.64583 h 1.323 v 1.32291 h 1.3229 v -1.32291 h 1.3229 v 1.32291 h 1.3229 v -1.32291 h 1.3229 v 1.32291 h 1.3229 v -1.32291 h 1.323 v 0 1.32291 h 1.3229 v -5.29166 h -10.5834 v 1.32291 h 5.2917 v 1.32292 h -6.6146 v -3.96875 h 1.3229 v -2.64583 h 1.323 v 2.64583 h 1.3229 v -2.64583 h 1.3229 v 2.64583 h 1.3229 v -2.64583 h 1.3229 v 2.64583 h 1.3229 v -2.64583 h 1.323 v 2.64583 h 1.3229 v -3.96875 h -3.9688 v -2.64583 h 1.3229 v 1.32291 h 1.323 v -1.32291 h 2.6458 v -1.32292 h -1.3229"
         id="path6126" />
      <path
         id="path6128"
         d="m 1492.2499,189.84374 h -1.3229 v -2.64583"
         style="fill:none;fill-rule:evenodd;stroke:#fec040;stroke-width:0.79374999;stroke-linecap:round;stroke-linejoin:round;stroke-opacity:1" />
      <path
         style="fill:none;fill-rule:evenodd;stroke:#fec040;stroke-width:0.79374999;stroke-linecap:round;stroke-linejoin:round;stroke-opacity:1"
         d="m 1486.9583,187.19791 v 1.3229 h 2.6459 l -10e-5,1.32293 h -2.6458 v 1.32292 h 2.6458 v 1.32291 h -6.6146 v -1.32291 h 2.6459 v -1.32292"
         id="path6130" />
      <path
         style="fill:none;fill-rule:evenodd;stroke:#fec040;stroke-width:0.79374999;stroke-linecap:round;stroke-linejoin:round;stroke-opacity:1"
         d="m 1482.9895,189.84374 h -3.9688 v -33.07292"
         id="path6132" />
      <path
         style="color:#000000;clip-rule:nonzero;display:inline;overflow:visible;visibility:visible;opacity:1;color-interpolation:sRGB;color-interpolation-filters:linearRGB;fill:none;fill-opacity:1;fill-rule:nonzero;stroke:#fec040;stroke-width:0.79374999;stroke-linecap:round;stroke-linejoin:round;stroke-miterlimit:4;stroke-dasharray:none;stroke-dashoffset:0;stroke-opacity:1;marker:none;color-rendering:auto;image-rendering:auto;shape-rendering:auto;text-rendering:auto;enable-background:accumulate"
         id="path6134"
         d="m 1490.9271,-187.19791 a 1.9843866,1.9843866 0 0 1 -0.9922,1.71853 1.9843866,1.9843866 0 0 1 -1.9843,0 1.9843866,1.9843866 0 0 1 -0.9922,-1.71853"
         transform="scale(1,-1)" />
      <path
         transform="scale(1,-1)"
         d="m 1494.8958,-189.84373 a 1.3229116,1.3229116 0 0 1 -0.6615,1.14567 1.3229116,1.3229116 0 0 1 -1.3229,0 1.3229116,1.3229116 0 0 1 -0.6614,-1.14567"
         id="path6136"
         style="color:#000000;clip-rule:nonzero;display:inline;overflow:visible;visibility:visible;opacity:1;color-interpolation:sRGB;color-interpolation-filters:linearRGB;fill:none;fill-opacity:1;fill-rule:nonzero;stroke:#fec040;stroke-width:0.79374999;stroke-linecap:round;stroke-linejoin:round;stroke-miterlimit:4;stroke-dasharray:none;stroke-dashoffset:0;stroke-opacity:1;marker:none;color-rendering:auto;image-rendering:auto;shape-rendering:auto;text-rendering:auto;enable-background:accumulate" />
      <path
         style="color:#000000;clip-rule:nonzero;display:inline;overflow:visible;visibility:visible;opacity:1;color-interpolation:sRGB;color-interpolation-filters:linearRGB;fill:none;fill-opacity:1;fill-rule:nonzero;stroke:#fec040;stroke-width:0.79374999;stroke-linecap:round;stroke-linejoin:round;stroke-miterlimit:4;stroke-dasharray:none;stroke-dashoffset:0;stroke-opacity:1;marker:none;color-rendering:auto;image-rendering:auto;shape-rendering:auto;text-rendering:auto;enable-background:accumulate"
         id="path6138"
         d="m 1485.6354,-189.84373 a 1.3229116,1.3229116 0 0 1 -0.6614,1.14567 1.3229116,1.3229116 0 0 1 -1.323,0 1.3229116,1.3229116 0 0 1 -0.6614,-1.14567"
         transform="scale(1,-1)" />
    </g>
    <g
       id="g6154"
       transform="translate(-1436.5055,-11.528347)"
       style="fill:none;stroke:#40c3fe;stroke-width:0.79374999;stroke-opacity:1">
      <g
         id="g6152"
         style="fill:none;stroke:#40c3fe;stroke-width:0.79374999;stroke-opacity:1">
        <path
           style="fill:none;fill-rule:evenodd;stroke:#40c3fe;stroke-width:0.79374999;stroke-linecap:round;stroke-linejoin:round;stroke-opacity:1"
           d="m 1408.9066,241.43744 -10e-5,-9.26037 h 9.2604 v -7.9375 h 1.3229 v 2.64584 h 1.3229 v -2.64584 h 1.3229 v 2.64584 h 2.6459 v -2.64584 h 1.3229 v 2.64584 h 2.6458 v -5.29167 h -2.6458 v -2.64583 h 1.3229 v 1.32291 h 1.3229 v -1.32291 h 11.9063 v 1.32291 h -2.6459 v 2.64584 h -2.6458 v -2.64584 h -1.3229 v 2.64584 h -1.3229 v 1.32291 h -1.323 v -3.96875 h -1.3229 v 5.29167 h 2.6459 v 6.61458 h 2.6458 v -2.64583 h 1.3229 v 2.64583 h 5.2917 v -1.32291 h -3.9688 v -3.96875 h 1.3229 v 2.64583 h 1.323 v -2.64583 h 1.3229 v -1.32292 h -3.9688 v -1.32292 h 5.2917 l 5e-4,-3.96874 h 3.9687 v 2.64583 h 1.323 v -2.64583 h 1.3229 l -8e-4,3.96874 h -2.6458 v 1.32292 h 2.6458 v 1.32292 h -5.2916 -1.3229 v 1.32291 h 1.3229 v 5.29167 h 1.3229 v -2.64583 h 1.3229 v 2.64583 h 2.6458 v -3.96875 h -1.3229 v -1.32292 h 2.6459 v -1.32292 h 5.2916 v 1.32292 h 2.6459 v 2.64584 h 2.6458 v -1.32292 H 1460.5 v -1.32292 h 1.3229 v -6.61458"
           id="path6142" />
        <path
           transform="scale(1,-1)"
           d="m 1463.1458,-221.59373 a 2.645833,2.645833 0 0 1 -1.3229,2.29135 2.645833,2.645833 0 0 1 -2.6458,0 2.645833,2.645833 0 0 1 -1.3229,-2.29135"
           id="path6144"
           style="color:#000000;clip-rule:nonzero;display:inline;overflow:visible;visibility:visible;opacity:1;color-interpolation:sRGB;color-interpolation-filters:linearRGB;fill:none;fill-opacity:1;fill-rule:nonzero;stroke:#40c3fe;stroke-width:0.79374999;stroke-linecap:round;stroke-linejoin:round;stroke-miterlimit:4;stroke-dasharray:none;stroke-dashoffset:0;stroke-opacity:1;marker:none;color-rendering:auto;image-rendering:auto;shape-rendering:auto;text-rendering:auto;enable-background:accumulate" />
        <path
           style="color:#000000;clip-rule:nonzero;display:inline;overflow:visible;visibility:visible;opacity:1;color-interpolation:sRGB;color-interpolation-filters:linearRGB;fill:none;fill-opacity:1;fill-rule:nonzero;stroke:#40c3fe;stroke-width:0.79374999;stroke-linecap:round;stroke-linejoin:round;stroke-miterlimit:4;stroke-dasharray:none;stroke-dashoffset:0;stroke-opacity:1;marker:none;color-rendering:auto;image-rendering:auto;shape-rendering:auto;text-rendering:auto;enable-background:accumulate"
           id="path6146"
           d="m 1461.8229,-221.59373 a 1.3229116,1.3229116 0 0 1 -0.6614,1.14567 1.3229116,1.3229116 0 0 1 -1.323,0 1.3229116,1.3229116 0 0 1 -0.6614,-1.14567"
           transform="scale(1,-1)" />
        <path
           id="path6148"
           d="m 1459.1771,221.59374 v 2.64582 l -1.323,10e-6 v -2.64583"
           style="fill:none;fill-rule:evenodd;stroke:#40c3fe;stroke-width:0.79374999;stroke-linecap:round;stroke-linejoin:round;stroke-opacity:1" />
        <path
           style="fill:none;fill-rule:evenodd;stroke:#40c3fe;stroke-width:0.79374999;stroke-linecap:round;stroke-linejoin:round;stroke-opacity:1"
           d="m 1463.1458,221.59374 h 5.2917 v 3.96875 h 7.9375 v -2.64583 h -2.6459 v -1.32292 h 5.2917 v -1.32292 h -5.2917 v -1.32291 h 6.6146 v 3.96875 h 1.3229 v -1.32292 h 1.323 v 1.32292 h 1.3229 v -1.32292 h 1.3229 v 1.32292 3.96875 h -1.3229 v 2.64583 h 1.3229 v -1.32292 h 1.3229 v 2.64584 h 2.6458 v -5.29167 h -2.6458 v -1.32292 h 3.9688 v -1.32291 h -3.9688 v -1.32292 h 1.3229 v -1.32292 h -6.6146 v -2.64583 h -1.3229 v -1.32292 h -5.2916 v 1.32292 h -1.323 v -1.32292 h -1.3229 v 1.32292 h -1.3229 v -2.64583 h 6.6146 v -1.32292 h 1.3229 v 1.32292 h 1.3229 v -1.32292 h 1.3229 v 2.64583 h 1.323 v -2.64583 h 1.3229 v 5.29167 h 7.9375 v 2.64583 h 2.6458 v -2.64583 h 1.3229 v 2.64583 h 1.3229 v -2.64583 h 3.9688 v 1.32291 h 1.3229 v -1.32291 h 6.6146 v -5.29167 h 7.9375 v 3.96875 h 13.2292"
           id="path6150" />
      </g>
    </g>
  </g>
</svg>
