<?xml version="1.0" encoding="UTF-8" standalone="no"?>
<!-- Created with Inkscape (http://www.inkscape.org/) -->

<svg
   xmlns:dc="http://purl.org/dc/elements/1.1/"
   xmlns:cc="http://creativecommons.org/ns#"
   xmlns:rdf="http://www.w3.org/1999/02/22-rdf-syntax-ns#"
   xmlns:svg="http://www.w3.org/2000/svg"
   xmlns="http://www.w3.org/2000/svg"
   xmlns:sodipodi="http://sodipodi.sourceforge.net/DTD/sodipodi-0.dtd"
   xmlns:inkscape="http://www.inkscape.org/namespaces/inkscape"
   width="287.86667mm"
   height="169.33327mm"
   viewBox="0 0 1020 599.99976"
   id="svg18810"
   version="1.1"
   inkscape:version="0.91 r13725"
   sodipodi:docname="flyingsheep.svg">
  <defs
     id="defs18812" />
  <sodipodi:namedview
     id="base"
     pagecolor="#ffffff"
     bordercolor="#666666"
     borderopacity="1.0"
     inkscape:pageopacity="0.0"
     inkscape:pageshadow="2"
     inkscape:zoom="0.35"
     inkscape:cx="26.428585"
     inkscape:cy="1085.7142"
     inkscape:document-units="px"
     inkscape:current-layer="layer1"
     showgrid="false"
     fit-margin-top="0"
     fit-margin-left="0"
     fit-margin-right="0"
     fit-margin-bottom="0"
     inkscape:window-width="1920"
     inkscape:window-height="1053"
     inkscape:window-x="1366"
     inkscape:window-y="27"
     inkscape:window-maximized="1"
     units="in" />
  <metadata
     id="metadata18815">
    <rdf:RDF>
      <cc:Work
         rdf:about="">
        <dc:format>image/svg+xml</dc:format>
        <dc:type
           rdf:resource="http://purl.org/dc/dcmitype/StillImage" />
        <dc:title></dc:title>
      </cc:Work>
    </rdf:RDF>
  </metadata>
  <g
     inkscape:label="Tavolo 1"
     inkscape:groupmode="layer"
     id="layer1"
     transform="translate(458.57144,-1018.0766)">
    <rect
       inkscape:export-ydpi="90"
       inkscape:export-xdpi="90"
       style="fill:#eae1c1;fill-opacity:1;stroke:none"
       id="rect15867"
       width="1020"
       height="599.99976"
       x="-458.57144"
       y="1018.0766" />
    <g
       id="g15832"
       transform="translate(-39678.571,-354.28563)">
      <rect
         y="1372.3622"
         x="39430"
         height="599.99988"
         width="600"
         id="rect14856"
         style="fill:#eae1c1;fill-opacity:1;stroke:none"
         inkscape:export-xdpi="90"
         inkscape:export-ydpi="90" />
      <g
         id="g14858"
         transform="matrix(1.171422,0,0,1.171422,26449.749,-10625.419)">
        <g
           inkscape:export-ydpi="104"
           inkscape:export-xdpi="104"
           transform="translate(10271.558,10320)"
           id="g14860"
           style="fill:none;stroke:#4c1625;stroke-width:2;stroke-opacity:1">
          <path
             style="color:#000000;font-style:normal;font-variant:normal;font-weight:normal;font-stretch:normal;font-size:xx-small;line-height:normal;font-family:sans-serif;-inkscape-font-specification:sans-serif;text-indent:0;text-align:start;text-decoration:none;text-decoration-line:none;letter-spacing:normal;word-spacing:normal;text-transform:none;direction:ltr;block-progression:tb;writing-mode:lr-tb;baseline-shift:baseline;text-anchor:start;display:inline;overflow:visible;visibility:visible;fill:#4c1625;fill-opacity:1;stroke:none;stroke-width:2;marker:none;enable-background:accumulate"
             d="m 1045.9375,135.78125 -1.875,0.65625 c 0,0 12.7254,32.03327 17.2143,48.63393 2.8386,10.49752 3.9187,21.39467 6.0967,32.04886 2.0804,10.17677 6.6577,30.44221 6.6577,30.44221 l 1.9376,-0.40625 c 0,0 -4.6707,-19.54452 -6.6908,-29.38503 -0.6666,-3.24704 -1.1698,-6.52562 -1.7907,-9.7817 -1.645,-8.62642 -2.7991,-17.3741 -5.1256,-25.8422 -4.3437,-15.81054 -16.4242,-46.36607 -16.4242,-46.36607 z"
             id="path14862"
             inkscape:connector-curvature="0"
             sodipodi:nodetypes="ccssccsssc" />
          <path
             style="color:#000000;font-style:normal;font-variant:normal;font-weight:normal;font-stretch:normal;font-size:xx-small;line-height:normal;font-family:sans-serif;-inkscape-font-specification:sans-serif;text-indent:0;text-align:start;text-decoration:none;text-decoration-line:none;letter-spacing:normal;word-spacing:normal;text-transform:none;direction:ltr;block-progression:tb;writing-mode:lr-tb;baseline-shift:baseline;text-anchor:start;display:inline;overflow:visible;visibility:visible;fill:#4c1625;fill-opacity:1;stroke:none;stroke-width:2;marker:none;enable-background:accumulate"
             d="m 1020.4732,151.03125 -1.3278,1.0625 c 0,0 11.0284,16.38862 15.824,25.82143 3.4439,6.77404 7.8646,17.34796 11.1443,24.20298 1.8392,3.84423 4.0681,7.49488 6.311,11.11845 3.6486,5.89458 6.3875,9.4036 10.1046,15.25522 4.0447,6.3672 11.6269,19.41442 11.6269,19.41442 l 1.6876,-1.09375 c 0,0 -7.3752,-12.52756 -11.2079,-18.70284 -5.6759,-9.145 -11.2795,-15.59391 -16.2007,-25.1662 -3.953,-7.68912 -8.5455,-19.46843 -12.6091,-27.09971 -4.8996,-9.20131 -15.3529,-24.8125 -15.3529,-24.8125 z"
             id="path14864"
             inkscape:connector-curvature="0"
             sodipodi:nodetypes="ccssssccsssc" />
          <path
             style="color:#000000;font-style:normal;font-variant:normal;font-weight:normal;font-stretch:normal;font-size:xx-small;line-height:normal;font-family:sans-serif;-inkscape-font-specification:sans-serif;text-indent:0;text-align:start;text-decoration:none;text-decoration-line:none;letter-spacing:normal;word-spacing:normal;text-transform:none;direction:ltr;block-progression:tb;writing-mode:lr-tb;baseline-shift:baseline;text-anchor:start;display:inline;overflow:visible;visibility:visible;fill:#4c1625;fill-opacity:1;stroke:none;stroke-width:2;marker:none;enable-background:accumulate"
             d="m 1074.2398,185.28125 c 0,0 0.031,12.7868 -0.015,18.2991 -0.053,6.3301 0.2865,10.86186 0.3375,17.19197 0.072,8.85884 -0.5625,26.57143 -0.5625,26.57143 l 1.7475,0.0313 c 0,0 0.2726,-13.22689 0.3807,-19.84084 0.073,-4.49036 0.3045,-8.44525 0.2525,-12.93595 -0.055,-5.03407 -0.2916,-10.59547 -0.3527,-15.62946 -0.051,-4.51037 0.1508,-13.5313 0.1508,-13.5313 z"
             id="path14866"
             inkscape:connector-curvature="0"
             sodipodi:nodetypes="cssccssscc" />
          <path
             style="color:#000000;font-style:normal;font-variant:normal;font-weight:normal;font-stretch:normal;font-size:xx-small;line-height:normal;font-family:sans-serif;-inkscape-font-specification:sans-serif;text-indent:0;text-align:start;text-decoration:none;text-decoration-line:none;letter-spacing:normal;word-spacing:normal;text-transform:none;direction:ltr;block-progression:tb;writing-mode:lr-tb;baseline-shift:baseline;text-anchor:start;display:inline;overflow:visible;visibility:visible;fill:#4c1625;fill-opacity:1;stroke:none;stroke-width:2;marker:none;enable-background:accumulate"
             d="m 1123.6518,141.53125 c 0,0 -9.8539,23.30074 -15.1651,35.54018 -3.8402,8.84941 -5.9868,13.7364 -10.4492,22.28892 -2.6934,5.16216 -7.2465,14.34786 -10.0643,19.44322 -4.8949,8.85145 -13.8482,28.07143 -13.8482,28.07143 l 1.4975,0.96875 c 0,0 9.0468,-18.70349 14.1199,-27.57716 2.7817,-4.86561 7.176,-14.42836 9.7884,-19.38691 4.2424,-8.05248 6.1266,-12.69905 9.915,-20.97483 8.0344,-20.94535 11.3885,-24.32466 15.1034,-37.59362 z"
             id="path14869"
             inkscape:connector-curvature="0"
             sodipodi:nodetypes="csssccssccc" />
        </g>
        <path
           sodipodi:nodetypes="ccccccc"
           inkscape:connector-curvature="0"
           id="path14871"
           d="m 11359.019,10654.811 -1.526,0.258 0.91,14.87 -1.324,3.317 c 0.526,1.881 4.679,1.891 5.851,0.452 l -1.994,-4.186 z"
           style="fill:#4c1625;fill-opacity:1;stroke:none"
           inkscape:export-xdpi="104"
           inkscape:export-ydpi="104" />
        <path
           style="fill:#4c1625;fill-opacity:1;stroke:none"
           d="m 11329.07,10658.276 1.495,0.397 -2.271,14.745 1.013,3.425 c -0.696,1.825 -4.832,1.454 -5.868,-0.09 l 2.371,-3.982 z"
           id="path14873"
           inkscape:connector-curvature="0"
           sodipodi:nodetypes="ccccccc"
           inkscape:export-xdpi="104"
           inkscape:export-ydpi="104" />
        <path
           inkscape:connector-curvature="0"
           style="fill:#707f6a;fill-opacity:1;stroke:none"
           d="m 11406.558,10372.13 c 0,21.963 -16.79,39.768 -37.5,39.768 -20.711,0 -37.5,-17.805 -37.5,-39.768 0,-21.963 16.789,-39.768 37.5,-39.768 20.71,0 37.5,17.805 37.5,39.768 z"
           id="path14875"
           inkscape:export-xdpi="104"
           inkscape:export-ydpi="104" />
        <path
           sodipodi:nodetypes="sssss"
           inkscape:connector-curvature="0"
           id="path14877"
           d="m 11372.334,10415.724 c -4.138,20.657 10.883,42.71 23.974,46.638 14.334,4.302 32.208,-7.442 41.706,-26.147 9.69,-19.082 -2.614,-43.558 -21.449,-48.658 -18.834,-5.101 -40.027,7.183 -44.231,28.167 z"
           style="fill:#a1372c;fill-opacity:1;stroke:none"
           inkscape:export-xdpi="104"
           inkscape:export-ydpi="104" />
        <path
           style="fill:#e5aa54;fill-opacity:1;stroke:none"
           d="m 11372.085,10345.7 c -1.32,20.959 -13.549,46.723 -30.263,46.723 -16.715,0 -30.264,-25.719 -30.264,-46.723 0,-17.511 16.537,-29.494 30.264,-29.338 14.809,0.169 31.391,11.439 30.263,29.338 z"
           id="path14879"
           inkscape:connector-curvature="0"
           sodipodi:nodetypes="sssss"
           inkscape:export-xdpi="104"
           inkscape:export-ydpi="104" />
        <path
           style="fill:#a1372c;fill-opacity:1;stroke:none"
           d="m 11324.683,10367.434 c 2.857,19.889 -13.012,38.072 -29.063,38.072 -16.051,0 -31.562,-17.112 -29.062,-38.072 2.228,-18.685 13.011,-30.072 29.062,-30.072 16.051,0 26.387,11.446 29.063,30.072 z"
           id="path14881"
           inkscape:connector-curvature="0"
           sodipodi:nodetypes="sssss"
           inkscape:export-xdpi="104"
           inkscape:export-ydpi="104" />
        <path
           sodipodi:nodetypes="sssssssss"
           inkscape:connector-curvature="0"
           id="path14884"
           d="m 11406.558,10617.362 c 0,11.842 -3.691,23.616 -11.947,32.182 -10.997,11.408 -29.127,17.818 -48.053,17.818 -11.576,0 -27.921,-2.017 -37.088,-6.749 -17.075,-8.814 -22.912,-25.283 -22.912,-43.251 0,-20.639 11.613,-38.179 33.03,-45.813 7.237,-2.58 18.6,-4.187 26.97,-4.187 13.846,0 27.669,1.23 37.823,7.796 14.145,9.147 22.177,26.129 22.177,42.204 z"
           style="fill:#e5aa54;fill-opacity:1;stroke:none"
           inkscape:export-xdpi="104"
           inkscape:export-ydpi="104" />
        <path
           style="fill:#4c1625;fill-opacity:1;stroke:none"
           d="m 11370.601,10657.356 -1.504,0.36 1.891,14.789 -1.098,3.398 c 0.65,1.842 4.795,1.574 5.868,0.06 l -2.271,-4.044 z"
           id="path14886"
           inkscape:connector-curvature="0"
           sodipodi:nodetypes="ccccccc"
           inkscape:export-xdpi="104"
           inkscape:export-ydpi="104" />
        <path
           sodipodi:nodetypes="ccccccc"
           inkscape:connector-curvature="0"
           id="path14888"
           d="m 11341.4,10660.024 1.535,0.199 -0.353,14.887 1.452,3.263 c -0.451,1.901 -4.601,2.074 -5.829,0.681 l 1.829,-4.261 z"
           style="fill:#4c1625;fill-opacity:1;stroke:none"
           inkscape:export-xdpi="104"
           inkscape:export-ydpi="104" />
        <path
           style="fill:#4c1625;fill-opacity:1;stroke:none"
           d="m 11309.982,10413.603 c 8.923,22.359 -3.398,50.25 -17.297,57.372 -15.219,7.799 -37.757,1.251 -49.421,-17.902 -12.855,-22.473 -9.019,-52.373 11.183,-61.978 20.667,-8.369 46.47,-0.206 55.535,22.508 z"
           id="path14890"
           inkscape:connector-curvature="0"
           sodipodi:nodetypes="ssccs"
           inkscape:export-xdpi="104"
           inkscape:export-ydpi="104" />
        <path
           style="fill:#4c1625;fill-opacity:1;stroke:none"
           d="m 11381.558,10398.612 c 0,22.782 -16.23,51.25 -36.25,51.25 -20.021,0 -36.25,-28.468 -36.25,-51.25 0,-22.782 16.229,-41.25 36.25,-41.25 20.02,0 36.25,18.468 36.25,41.25 z"
           id="path14893"
           inkscape:connector-curvature="0"
           sodipodi:nodetypes="sssss"
           inkscape:export-xdpi="104"
           inkscape:export-ydpi="104" />
        <path
           style="fill:#e5aa54;fill-opacity:1;stroke:none"
           d="m 11351.889,10413.362 c -0.715,24.973 -15.823,42.338 -35.331,42.75 -19.242,0.407 -33.869,-19.155 -35.331,-42.75 -1.324,-21.36 15.818,-36.75 35.331,-36.75 19.512,0 35.942,15.358 35.331,36.75 z"
           id="path14895"
           inkscape:connector-curvature="0"
           sodipodi:nodetypes="sssss"
           inkscape:export-xdpi="104"
           inkscape:export-ydpi="104" />
        <path
           style="fill:#707f6a;fill-opacity:1;stroke:none"
           d="m 11381.558,10454.362 c 0,22.092 -16.896,48 -33.75,48 -15.069,0 -33.75,-25.908 -33.75,-48 0,-22.091 15.11,-34 33.75,-34 18.639,0 33.75,11.909 33.75,34 z"
           id="path14897"
           inkscape:connector-curvature="0"
           sodipodi:nodetypes="sssss"
           inkscape:export-xdpi="104"
           inkscape:export-ydpi="104" />
        <g
           style="fill:#28182d;fill-opacity:1"
           id="g14899"
           transform="translate(9491.5576,10320)"
           inkscape:export-xdpi="104"
           inkscape:export-ydpi="104">
          <path
             style="fill:#4c1625;fill-opacity:1;stroke:none"
             d="m 1839.2851,282.31303 c -3.7108,12.58091 -14.234,20.56318 -23.5041,17.82891 -4.8606,-1.43367 -10.376,-4.27893 -12.1196,-9.66407 -1.5817,-4.88532 -0.396,-12.32826 2.0535,-18.06654 4.8739,-11.41781 15.9082,-18.88894 23.5041,-17.82891 9.5722,1.33584 13.7769,15.14969 10.0661,27.73061 z"
             id="path14901"
             inkscape:connector-curvature="0"
             sodipodi:nodetypes="ssssss" />
          <path
             style="fill:#4c1625;fill-opacity:1;stroke:none"
             d="m 1819.2232,258.29969 c 0,0 2.5979,-1.14857 2.5968,-1.6519 -0.01,-2.59541 -2.3669,-9.96278 -5.3914,-9.99989 -3.1072,-0.0381 -3.4462,1.17038 -2.8572,3.92857 0.6598,3.08966 5.6518,7.72322 5.6518,7.72322 z"
             id="path14903"
             inkscape:connector-curvature="0"
             sodipodi:nodetypes="csssc" />
          <path
             sodipodi:nodetypes="csssc"
             inkscape:connector-curvature="0"
             id="path14905"
             d="m 1834.056,259.2185 c -0.2428,-0.48562 3.9621,-8.5147 8.1857,-8.79644 2.5136,-0.16768 4.453,2.62802 2.5512,4.39467 -1.0332,0.95976 -6.5815,4.57055 -8.3139,6.19953 -1.9922,1.87332 -2.423,-1.79776 -2.423,-1.79776 z"
             style="fill:#4c1625;fill-opacity:1;stroke:none" />
        </g>
        <g
           id="g14907"
           transform="matrix(0.51595847,0,0,0.51595847,10376.522,10450.131)"
           inkscape:export-xdpi="104"
           inkscape:export-ydpi="104">
          <circle
             r="4.7321429"
             cy="270.13004"
             cx="399.375"
             style="fill:#ffffff;fill-opacity:1;stroke:none"
             id="circle14909"
             transform="matrix(0.58490567,0,0,0.58490567,1593.814,103.57655)" />
          <circle
             r="4.7321429"
             cy="270.13004"
             cx="399.375"
             transform="matrix(0.82505514,0,0,0.82505514,1488.0606,38.704947)"
             id="circle14911"
             style="fill:#ffffff;fill-opacity:1;stroke:none" />
        </g>
        <path
           sodipodi:nodetypes="cccc"
           inkscape:connector-curvature="0"
           id="path14913"
           d="m 11396.956,10459.85 2.058,8.173 c -5.257,0.207 -7.229,-1.163 -9.631,-3.335 z"
           style="fill:#a1372c;fill-opacity:1;stroke:none"
           inkscape:export-xdpi="104"
           inkscape:export-ydpi="104" />
        <path
           style="fill:#707f6a;fill-opacity:1;stroke:none"
           d="m 11347.528,10500.318 4.957,7.426 c -3.067,0.604 -5.875,1.531 -10.773,-0.154 z"
           id="path14915"
           inkscape:connector-curvature="0"
           sodipodi:nodetypes="cccc"
           inkscape:export-xdpi="104"
           inkscape:export-ydpi="104" />
        <path
           sodipodi:nodetypes="cscccccccccccccccccscsccccscccscccscccscccccscccccsccccccccccccccccscsccccscccscccscccscccccsccsccsccccccccscccccccscccccccccccscccccccccccccccccsccccccccccscccsccccccccccccccccccccccccccccccccccccccsssscscccscccccccccccccsccccsccsccscsscccccccssscccscsscsccscscccsccccscccccscscccscsccssscccccccsccccsccccccccsscscsccccsccccccccccccccscscccssccccccccccccccccccccccccccccccccccccccccccccsccccccccccccccccccccccccsccccccccccccccccccccccscccccccsccccccccccccccscccccccc"
           inkscape:connector-curvature="0"
           id="path14917"
           d="m 11450.344,10500.514 c -0.05,0.701 -0.08,1.577 -0.08,2.707 l 0,1.781 1.672,18.795 -0.995,0.138 c -0.426,0.03 -1.239,0.126 -1.343,0.797 -0.05,1.014 0.751,1.121 1.397,1.159 l 1.114,-0.09 0.223,2.258 0.05,10.424 -0.134,6.282 0,0.03 c 0.268,2.088 0.02,3.619 0.442,4.562 0.214,0.474 0.439,0.8 0.625,0.969 0.126,0.114 0.212,0.132 0.312,0.156 0.01,0 0.02,-0.03 0.03,-0.03 0.19,-0.08 0.381,-0.137 0.625,-0.188 0.488,-0.101 1.17,-0.185 2.063,-0.281 1.787,-0.191 4.447,-0.367 7.969,-0.562 l 0.03,0 c 1.311,0 2.241,-0.173 2.75,-0.407 0.514,-0.233 0.593,-0.365 0.593,-0.718 0,-0.303 -0.07,-0.433 -0.218,-0.563 -0.137,-0.118 -0.457,-0.239 -0.907,-0.312 -3.873,0.255 -7.635,0.04 -11.508,0.535 -0.258,-0.09 -0.243,-0.184 -0.331,-0.388 -0.452,-1.597 -0.401,-1.402 -0.401,-4.317 l 0,-0.03 -0.112,-16.589 0,-0.969 6.375,-0.505 c 0.833,-0.07 1.39,-0.169 1.656,-0.344 0.254,-0.169 0.344,-0.304 0.344,-0.687 -0.1,-0.375 -0.23,-0.621 -0.375,-0.75 -0.161,-0.145 -0.379,-0.245 -0.75,-0.219 l -7.156,0.505 -0.09,-0.688 c -0.742,-6.525 -1.018,-7.179 -1.388,-10.91 -0.37,-3.732 -0.563,-6.014 -0.563,-7.031 l 0,-3.219 5.844,-0.813 0.03,0 c 2.607,-0.173 4.536,-0.474 5.75,-0.843 0.606,-0.185 1.037,-0.397 1.25,-0.563 0.217,-0.166 0.187,-0.201 0.187,-0.25 0,-0.287 -0.05,-0.458 -0.187,-0.625 -0.12,-0.147 -0.371,-0.306 -0.688,-0.437 -5.816,0.785 -9.45,1.25 -10.906,1.25 -1.062,0.327 -3.259,0.09 -3.199,0.98 z m 22.871,-0.201 c -0.07,0.835 -0.328,1.83 -0.111,2.908 l 0,1.781 2.052,20.163 -1.256,0.09 c -0.405,-0.02 -1.247,0.349 -1.118,0.923 -0.06,0.607 0.425,0.85 1.075,0.925 l 1.395,0.03 -0.117,15.371 0.313,4.406 0,0.03 c 0.267,2.089 0.638,3.62 1.062,4.562 0.214,0.475 0.439,0.801 0.625,0.969 0.126,0.114 0.213,0.132 0.313,0.156 0.01,0 0.02,-0.03 0.03,-0.03 0.19,-0.08 0.381,-0.136 0.625,-0.187 0.488,-0.101 1.169,-0.185 2.062,-0.281 1.787,-0.191 4.448,-0.367 7.969,-0.563 l 0.03,0 c 1.311,0 2.241,-0.173 2.75,-0.406 0.514,-0.233 0.594,-0.366 0.594,-0.719 0,-0.302 -0.07,-0.432 -0.219,-0.562 -0.137,-0.118 -0.455,-0.24 -0.906,-0.313 l -12.063,0.781 -0.219,-0.5 c -0.665,-1.51 -0.937,-3.652 -0.937,-6.593 l 0,-0.03 0.156,-15.125 0,-0.969 7.375,0 c 0.836,0 1.39,-0.169 1.656,-0.344 0.254,-0.169 0.344,-0.304 0.344,-0.687 -0.1,-0.375 -0.231,-0.621 -0.375,-0.75 -0.161,-0.145 -0.382,-0.264 -0.75,-0.219 l -8.156,0 -0.09,-0.687 c -0.742,-6.526 -1.286,-8.644 -1.656,-12.375 -0.369,-3.732 -0.563,-6.014 -0.563,-7.032 l 0,-3.218 5.844,-0.349 0.03,0 c 2.607,-0.173 4.537,-0.474 5.75,-0.843 0.607,-0.185 1.037,-0.397 1.25,-0.563 0.217,-0.166 0.187,-0.201 0.187,-0.25 0,-0.287 -0.05,-0.458 -0.187,-0.625 -0.119,-0.147 -0.372,-0.306 -0.688,-0.437 -5.818,0.785 -9.449,0.779 -10.906,0.785 l -0.531,0 z m 30.483,-3.06 c -1.287,0 -2.615,0.401 -4,1.312 l -0.219,0.156 -1.25,-0.187 c -0.36,0 -0.507,0.06 -0.75,0.625 -0.241,0.564 -0.406,1.621 -0.406,3.031 l 0.593,18.688 -0.625,0.125 c -0.528,0.102 -0.874,0.273 -1.031,0.406 -0.157,0.133 -0.187,0.208 -0.187,0.406 0,0.337 0.366,1.27 1.218,2.5 0.03,0.02 0.04,0.04 0.06,0.06 0.02,0.03 0.04,0.06 0.06,0.09 0.05,0.05 0.129,0.08 0.157,0.125 0.107,0.169 0.137,0.297 0.187,0.469 0.105,0.342 0.211,0.789 0.281,1.344 0.145,1.108 0.254,2.7 0.344,4.843 0.191,4.287 0.281,10.71 0.281,19.25 0,0.653 0.15,1.034 0.282,1.219 0.118,0.165 0.246,0.236 0.531,0.25 0.454,-0.09 0.765,-0.214 0.906,-0.344 0.149,-0.139 0.219,-0.249 0.219,-0.531 l -0.344,-22.875 -0.25,-2.219 0.594,-0.187 c 1.238,-0.413 2.7,-1.401 4.312,-2.969 2.558,-2.724 4.231,-5.465 5.323,-7.988 1.476,-3.618 2.283,-7.245 1.677,-11.043 -0.66,-2.319 -2.062,-3.906 -3.375,-4.969 -1.322,-1.077 -2.828,-1.587 -4.588,-1.587 z m -291.992,0.5 c -0.01,0.02 -0.04,0.03 -0.09,0.09 -0.156,0.211 -0.381,0.586 -0.594,1.125 -0.427,1.08 -0.89,2.789 -1.375,5.032 -0.97,4.485 -2.012,11.224 -3.125,20.187 l -0.187,1.496 c -0.887,-1.055 -1.321,-1.958 -1.875,-2.902 -3.732,-6.583 -6.757,-13.167 -10.063,-19.75 l -0.03,-0.06 -0.03,-0.06 c -0.655,-1.349 -1.233,-2.373 -1.687,-3.031 -0.419,-0.607 -0.728,-0.766 -0.688,-0.782 -0.433,0.104 -0.783,0.246 -0.937,0.375 -0.149,0.129 -0.199,0.259 -0.219,0.438 l 0.406,1.094 c 0.01,0.02 0.02,0.04 0.03,0.06 l 0.03,0.06 c 2.436,5.127 6.089,12.922 8.869,18.163 2.151,4.055 3.277,5.506 6.069,9.774 l 0.187,0.25 -3.5,23.25 0,0.03 c 0,0.1 0.04,0.139 0.25,0.313 0.178,0.145 0.573,0.338 1,0.5 l 0.469,-0.344 c 1.607,-7.292 2.863,-15.846 3.75,-25.719 0.891,-9.912 2.463,-19.342 4.656,-28.344 -0.195,-0.385 -0.38,-0.72 -0.531,-0.875 -0.177,-0.177 -0.262,-0.187 -0.312,-0.187 l -0.317,0 z m 61.209,0.968 c -0.185,0.109 -0.546,0.224 -0.726,0.346 -4.571,3.08 -7.443,10.111 -8.358,21.279 l -0.125,1.219 c -0.28,3.411 -0.281,7.132 -0.03,11.188 l 0,0.03 c 0.69,6.77 1.911,11.886 3.594,15.281 1.634,3.296 3.612,4.902 6.031,5.187 0.179,-0.07 0.35,-0.102 0.532,-0.125 0.291,-0.04 0.713,-0.03 1.156,-0.03 2.027,-0.95 3.695,-2.771 4.969,-5.625 1.283,-2.876 2.156,-6.76 2.562,-11.656 l 0,-0.375 c -0.03,-1.67 -0.324,-2.886 -0.781,-3.625 -0.456,-0.739 -1.021,-1.05 -1.938,-1.125 -0.857,-0.07 -2.603,0.424 -4.968,1.687 l -0.03,0.03 -0.06,0 c -1.355,0.462 -2.368,0.928 -3,1.344 -0.561,0.371 -0.678,0.646 -0.718,0.781 0.139,0.355 0.277,0.696 0.406,0.844 0.164,0.188 0.25,0.24 0.375,0.25 l 0.844,-0.09 c 2.838,-1.447 5,-2.391 6.468,-2.844 l 0.157,-0.06 0.125,0.03 c 0.438,0.04 0.702,0.359 0.812,0.594 0.11,0.236 0.179,0.479 0.219,0.75 0.08,0.542 0.08,1.248 0.06,2.188 l 0,0.06 -0.438,2.594 0,0.03 c -0.65,4.066 -1.471,7.134 -2.531,9.218 -0.532,1.045 -1.133,1.849 -1.844,2.407 -0.71,0.558 -1.57,0.821 -2.437,0.75 -0.92,-0.07 -1.66,-0.669 -2.688,-1.657 l -0.06,-0.06 -0.06,-0.06 c -4.266,-6.136 -5.748,-15.682 -4.687,-28.656 0.885,-10.795 3.315,-17.463 7.75,-20.154 0.07,-0.06 0.172,-0.05 0.25,-0.09 0.545,-0.306 1.641,-0.415 2.661,0.1 0.913,0.46 1.667,1.5 1.803,2.006 0.263,0.975 1.022,0.596 1.212,0.462 0.19,-0.134 0.298,-0.166 0.358,-1.205 -0.575,-1.172 -1.555,-2.195 -2.684,-2.844 -1.098,-0.644 -2.969,-0.691 -4.181,-0.374 z m 166.291,-0.719 c -0.495,0 -0.694,0.116 -0.906,0.438 -0.216,0.323 -0.406,0.955 -0.406,1.906 0,4.304 0.626,11.506 1.875,21.531 l 0.09,0.75 -8.719,0.875 -0.969,0.09 -0.06,-0.776 c -0.82,-8.08 -1.446,-13.427 -1.937,-15.844 l -0.03,-0.03 0,-0.03 c -0.252,-2.81 -0.551,-4.92 -0.907,-6.25 -0.177,-0.665 -0.38,-1.131 -0.531,-1.375 -0.08,-0.122 -0.114,-0.148 -0.125,-0.156 -0.55,0.08 -0.976,0.237 -1.156,0.375 -0.19,0.146 -0.25,0.262 -0.25,0.531 1.982,12.831 2.978,19.924 2.978,23.053 l 0,0.688 -0.719,0.06 c -0.502,0.02 -0.965,0.303 -1.5,1 l 0,0.344 c 0.377,0.577 0.76,0.843 1.469,0.843 l 1.062,-0.111 0.03,0.799 c 0.508,7.324 0.772,15.681 0.772,23.509 l 0,4.406 c 0.04,0.547 0.173,0.912 0.282,1.063 0.115,0.158 0.173,0.218 0.437,0.218 0.522,0 0.772,-0.15 0.969,-0.406 0.198,-0.256 0.344,-0.729 0.344,-1.531 l 0,-4.688 c 0,-6.633 -0.247,-13.999 -0.75,-22.031 -0.01,-0.156 -0.01,-0.312 -0.01,-0.469 0,-0.377 -0.03,-1.08 -0.03,-1.08 0,0 1.892,-0.142 2.598,-0.277 1.398,-0.22 3.36,-0.517 6.067,-0.674 l 0.687,-0.06 0.09,0.687 c 0.997,7.035 1.725,12.592 2.219,16.688 0.494,4.095 0.75,6.71 0.75,7.969 l 0,1.312 c 0,0.319 0.06,0.442 0.188,0.563 0.114,0.111 0.396,0.213 0.781,0.281 0.342,-0.01 0.527,-0.1 0.687,-0.344 0.175,-0.266 0.313,-0.789 0.313,-1.625 l 0,-0.844 c -3.165,-25.631 -4.75,-40.946 -4.75,-46.218 l 0,-3.688 c 0,-0.648 -0.117,-1.043 -0.25,-1.219 -0.129,-0.179 -0.278,-0.252 -0.683,-0.252 z m -27.094,0.282 -2.062,0.343 c -3.515,1.839 -5.188,4.922 -5.188,9.625 0,4.154 1.902,10.139 5.782,17.782 5.418,8.123 8.218,14.294 8.218,18.781 l 0,0.812 -0.03,0.09 c -0.487,1.805 -1.113,3.19 -1.968,4.188 -0.856,0.998 -1.99,1.594 -3.219,1.594 l -0.625,0 -1.25,-0.313 -0.09,-0.03 c -2.143,-1.101 -3.769,-2.259 -4.906,-3.531 -1.138,-1.272 -1.782,-2.68 -1.782,-4.156 l 0,-0.188 0.344,-1.625 c 0,-0.08 -0.277,-0.47 -0.781,-0.875 l -0.219,0 c -0.453,0.09 -0.718,0.261 -0.937,0.625 -0.234,0.387 -0.407,1.056 -0.407,1.969 0,1.101 0.272,2.093 0.813,3.062 0.01,0.01 0.03,0.02 0.03,0.03 l 0,0.03 c 3.177,4.744 6.375,6.973 9.593,7 l 1.813,-0.312 c 3.85,-2.093 5.625,-4.823 5.625,-8.531 0,-2.73 -1.039,-6.275 -3.219,-10.532 -7.178,-11.414 -10.844,-19.932 -10.844,-25.875 l 0,-0.218 0,-0.03 c 0.22,-2.407 0.702,-4.262 1.5,-5.594 0.799,-1.332 2.031,-2.094 3.469,-2.094 l 0.813,0 c 1.982,0 3.727,1.343 5.125,3.688 l 0.06,0.156 0.03,0.156 c 0.131,1.238 0.367,2.132 0.625,2.625 0.251,0.48 0.376,0.563 0.593,0.563 0.01,0 0.03,0 0.03,0 0.454,-0.06 0.748,-0.2 0.875,-0.313 0.138,-0.12 0.188,-0.228 0.188,-0.562 0,-0.838 -0.107,-1.463 -0.25,-1.75 l -0.03,-0.03 0,-0.03 c -0.789,-2.255 -1.865,-3.909 -3.125,-4.969 -1.26,-1.059 -2.728,-1.561 -4.531,-1.561 z m -171.75,0.468 -0.75,0.09 c -0.05,0.1 -0.138,0.291 -0.218,0.594 -0.182,0.672 -0.336,1.765 -0.469,3.25 -0.265,2.963 -0.406,7.497 -0.406,13.5 l 0.187,15 0,0.03 c -0.04,10.273 -0.06,16.466 -0.06,18.531 l 0,1.875 c 0,0.876 0.157,1.431 0.344,1.719 0.188,0.288 0.348,0.406 0.781,0.406 0.457,0 0.691,-0.105 0.781,-0.187 0.1,-0.08 0.157,-0.185 0.157,-0.531 l 0,-2.938 0,-19.281 -0.188,-13.125 0,-1.094 0.158,-5.2 c 0.897,2.303 1.266,4.982 1.936,7.169 0.252,0.979 0.545,2.396 0.875,4.281 l 0,0.03 c 2.455,11.093 4.724,19.022 6.75,23.688 l 0.03,0.03 0,0.03 c 0.615,1.943 1.22,3.386 1.75,4.281 0.265,0.448 0.496,0.771 0.688,0.938 0.157,0.137 0.221,0.146 0.281,0.156 l 0.687,-0.313 c 0.02,-0.05 0.06,-0.139 0.125,-0.312 0.144,-0.418 0.312,-1.125 0.469,-2.094 0.313,-1.937 0.628,-4.892 0.906,-8.844 0.556,-7.896 1.017,-19.792 1.407,-35.625 l 0,-1.343 c 0,-1.149 -0.161,-1.973 -0.375,-2.407 -0.214,-0.434 -0.338,-0.5 -0.688,-0.5 -0.317,0 -0.502,0.07 -0.719,0.282 -0.164,0.159 -0.321,0.509 -0.468,0.875 0.06,0.131 0.126,0.267 0.156,0.406 0.08,0.405 0.09,0.909 0.09,1.562 l 0,0.594 c 0,9.562 -0.586,22.592 -1.719,39.125 l -0.03,0.719 c -0.08,0.879 -0.1,1.852 -0.336,2.498 -0.424,-0.503 -0.757,-1.372 -1.1,-2.198 l -0.314,-0.8 c -3.076,-8.437 -6.02,-20.829 -8.875,-37.219 l -0.03,-0.03 0,-0.03 c -0.272,-2.73 -0.592,-4.765 -0.969,-6.062 -0.188,-0.649 -0.403,-1.107 -0.562,-1.344 -0.155,-0.232 -0.195,-0.181 -0.125,-0.181 z m -77.375,0.25 c -0.362,-0.01 -0.547,0.03 -0.718,0.157 -0.15,0.111 -0.293,0.336 -0.407,0.656 2.137,25.909 3.121,42.222 2.907,49.062 l -0.09,2.813 c -0.01,0.307 0.204,0.571 0.625,0.906 l 0.406,0.03 c 0.374,0.01 0.484,-0.07 0.625,-0.25 0.141,-0.179 0.292,-0.57 0.312,-1.219 l 0.125,-3.562 c 0.08,-2.553 -0.243,-9.789 -0.968,-21.531 l 0,-0.03 0,-0.969 5.593,0.187 c 0.525,0.02 0.877,-0.08 1.094,-0.218 0.187,-0.116 0.285,-0.313 0.375,-0.563 -0.01,-0.456 -0.07,-0.755 -0.219,-0.906 -0.161,-0.167 -0.438,-0.294 -1,-0.313 l -0.03,0 -5.968,-0.218 -1.438,-19.75 10.438,0.312 c 0.526,0.02 0.879,-0.08 1.093,-0.219 0.186,-0.115 0.285,-0.325 0.375,-0.593 -0.01,-0.435 -0.07,-0.725 -0.218,-0.875 -0.163,-0.167 -0.441,-0.296 -1,-0.313 l -10.938,-0.344 -0.09,-0.625 c -0.09,-0.671 -0.245,-1.146 -0.406,-1.375 -0.169,-0.228 -0.265,-0.239 -0.478,-0.249 z m 19.469,0.125 c -0.675,-0.05 -0.868,0.1 -1.125,0.594 -0.712,21.18 -1.06,34.831 -1,40.594 l 0,0.03 c -0.123,4.537 -0.05,7.955 0.188,10.187 0.116,1.117 -0.05,1.501 0.121,1.981 0.288,0.649 0.865,0.68 1.334,0.689 1.263,-0.282 2.563,-0.283 3.38,-0.306 l 5.383,0.04 c 1.334,0.09 2.331,-0.04 3,-0.312 0.582,-0.234 0.835,-0.589 1.032,-1.031 -0.148,-0.298 -0.313,-0.609 -0.438,-0.75 -0.695,-0.393 -1.86,0.122 -2.5,0.156 -2.291,-0.115 -4.18,-0.31 -6.877,-0.344 l -1.589,0 c -0.293,-0.02 -0.363,-0.216 -0.468,-0.344 -0.108,-0.128 -0.147,-0.237 -0.187,-0.343 -0.08,-0.213 -0.148,-0.418 -0.188,-0.688 -0.09,-0.539 -0.137,-1.275 -0.187,-2.25 -0.09,-1.95 -0.124,-4.823 -0.09,-8.656 0.07,-7.666 0.386,-19.133 0.969,-34.406 l 0,-0.03 c 0.126,-1.79 0.05,-3.113 -0.157,-3.907 -0.101,-0.396 -0.209,-0.661 -0.312,-0.781 -0.11,-0.112 -0.176,-0.112 -0.289,-0.122 z m 321.71,0.125 c 1.363,0 2.617,0.549 3.594,1.563 1.674,2.083 2.353,3.83 2.126,6.21 -0.259,2.263 -0.792,4.693 -1.485,6.097 -1.78,4.014 -4.497,8.399 -7.548,10.068 l -0.938,0.375 -0.187,-2.312 -0.407,-19.5 0.157,-0.188 c 1.574,-1.736 2.616,-2.313 4.688,-2.313 z m -280.46,0.657 0,0.03 -0.03,0.125 -0.656,0 c -2.444,-0.01 -4.273,0.12 -5.437,0.375 -0.583,0.127 -1.008,0.272 -1.219,0.406 -0.208,0.133 -0.188,0.176 -0.188,0.187 -0.06,0.558 0.172,0.897 0.782,1.282 l 5.093,-0.344 1.094,0 -0.06,0.812 c -2.041,25.03 -2.892,40.791 -2.563,47.094 l 0,0.09 -0.01,0.821 -0.83,0.09 c -1.4,-0.14 -2.531,0.113 -3.112,0.313 -0.581,0.2 -0.598,0.205 -0.638,0.594 -0.05,0.459 0.09,0.691 0.625,1 1.628,0.152 3.974,0.13 7.125,-0.125 l 0.03,0 0.06,0 c 2.376,0.05 4.131,-0.109 5.25,-0.375 0.559,-0.133 0.954,-0.294 1.156,-0.438 0.199,-0.143 0.219,-0.208 0.219,-0.281 l 0,-0.03 0.03,-0.125 c 0.03,-0.343 -0.181,-0.617 -0.656,-0.938 l -5.915,0.407 -0.634,-0.1 -0.585,-0.17 c -0.1,-0.569 -0.148,-2.633 -0.178,-3.638 -0.06,-2.012 0.01,-4.976 0.187,-8.907 0.361,-7.847 1.178,-19.56 2.469,-35.156 l 0,-1.031 2.125,0.219 2.375,0.406 c 0.469,-0.119 0.732,-0.322 0.937,-0.625 l 0.09,-0.813 c -0.07,-0.06 -0.273,-0.186 -0.593,-0.312 -0.639,-0.251 -1.72,-0.511 -3.219,-0.719 l -0.125,0 c -1.209,-0.08 -2.113,-0.135 -2.688,-0.125 -0.144,0 -0.207,0 -0.311,0 z"
           style="font-style:normal;font-variant:normal;font-weight:normal;font-stretch:normal;font-size:60px;line-height:125%;font-family:'Sue Ellen Francisco';-inkscape-font-specification:'Sue Ellen Francisco';text-align:end;letter-spacing:0px;word-spacing:0px;text-anchor:end;fill:#4c1625;fill-opacity:1;stroke:none"
           inkscape:export-xdpi="104"
           inkscape:export-ydpi="104" />
        <path
           sodipodi:nodetypes="cccc"
           inkscape:connector-curvature="0"
           id="path14919"
           d="m 11289.387,10468.963 7.999,3.428 c -2.082,3.004 -5.037,4.665 -8.86,4.991 z"
           style="fill:#4c1625;fill-opacity:1;stroke:none"
           inkscape:export-xdpi="104"
           inkscape:export-ydpi="104" />
        <path
           sodipodi:nodetypes="ccccc"
           inkscape:connector-curvature="0"
           id="path14921"
           d="m 11350.238,10502.041 c -2.42,-0.735 -3.582,-0.302 -5.572,-0.393 -1.028,0.675 -0.53,1.243 0.08,1.696 2.092,-0.168 1.538,-0.67 5.131,0.127 1.128,-0.309 0.747,-0.924 0.357,-1.43 z"
           style="fill:#4c1625;fill-opacity:1;stroke:none"
           inkscape:export-xdpi="104"
           inkscape:export-ydpi="104" />
        <path
           style="fill:#4c1625;fill-opacity:1;stroke:none"
           d="m 11393.536,10460.737 c 2.515,0.264 3.417,1.114 5.286,1.804 0.685,1.022 0.01,1.351 -0.736,1.53 -1.862,-0.968 -1.157,-1.215 -4.777,-1.878 -0.919,-0.722 -0.329,-1.142 0.227,-1.456 z"
           id="path14923"
           inkscape:connector-curvature="0"
           sodipodi:nodetypes="ccccc"
           inkscape:export-xdpi="104"
           inkscape:export-ydpi="104" />
      </g>
    </g>
  </g>
</svg>
