<svg xmlns="http://www.w3.org/2000/svg" id="svg" class="chart" width="840" height="200"><defs><linearGradient id="l_gradient" x1="0%" y1="0%" x2="100%" y2="0%" spreadMethod="pad"><stop offset="0%" stop-color="#39b1d5" stop-opacity="0"/><stop offset="100%" stop-color="#39b1d5" stop-opacity="1"/></linearGradient><linearGradient id="a_gradient" x1="0%" y1="0%" x2="100%" y2="0%" spreadMethod="pad"><stop offset="0%" stop-color="#8d065e" stop-opacity="0"/><stop offset="100%" stop-color="#8d065e" stop-opacity="1"/></linearGradient><linearGradient id="c_gradient" x1="0%" y1="0%" x2="100%" y2="0%" spreadMethod="pad"><stop offset="0%" stop-color="#de49a8" stop-opacity="0"/><stop offset="100%" stop-color="#de49a8" stop-opacity="1"/></linearGradient></defs><rect width="100%" height="100%" fill="white"/><path d="M20,90L20,180" stroke="#eee" stroke-width="2" fill="none"/><path d="M60,90L60,180" stroke="#eee" stroke-width="2" fill="none"/><text x="60" y="80" text-anchor="middle" font-family="'Fira Sans', Helvetica, sans-serif" font-weight="600" font-size="12" fill="#aaa">-90</text><path d="M100,90L100,180" stroke="#eee" stroke-width="2" fill="none"/><text x="100" y="80" text-anchor="middle" font-family="'Fira Sans', Helvetica, sans-serif" font-weight="600" font-size="12" fill="#aaa">-80</text><path d="M140,90L140,180" stroke="#eee" stroke-width="2" fill="none"/><text x="140" y="80" text-anchor="middle" font-family="'Fira Sans', Helvetica, sans-serif" font-weight="600" font-size="12" fill="#aaa">-70</text><path d="M180,90L180,180" stroke="#eee" stroke-width="2" fill="none"/><text x="180" y="80" text-anchor="middle" font-family="'Fira Sans', Helvetica, sans-serif" font-weight="600" font-size="12" fill="#aaa">-60</text><path d="M220,90L220,180" stroke="#eee" stroke-width="2" fill="none"/><path d="M260,90L260,180" stroke="#eee" stroke-width="2" fill="none"/><text x="260" y="80" text-anchor="middle" font-family="'Fira Sans', Helvetica, sans-serif" font-weight="600" font-size="12" fill="#aaa">-40</text><path d="M300,90L300,180" stroke="#eee" stroke-width="2" fill="none"/><text x="300" y="80" text-anchor="middle" font-family="'Fira Sans', Helvetica, sans-serif" font-weight="600" font-size="12" fill="#aaa">-30</text><path d="M340,90L340,180" stroke="#eee" stroke-width="2" fill="none"/><text x="340" y="80" text-anchor="middle" font-family="'Fira Sans', Helvetica, sans-serif" font-weight="600" font-size="12" fill="#aaa">-20</text><path d="M380,90L380,180" stroke="#eee" stroke-width="2" fill="none"/><text x="380" y="80" text-anchor="middle" font-family="'Fira Sans', Helvetica, sans-serif" font-weight="600" font-size="12" fill="#aaa">-10</text><path d="M420,90L420,180" stroke="#eee" stroke-width="2" fill="none"/><path d="M460,90L460,180" stroke="#eee" stroke-width="2" fill="none"/><text x="460" y="80" text-anchor="middle" font-family="'Fira Sans', Helvetica, sans-serif" font-weight="600" font-size="12" fill="#aaa">10</text><path d="M500,90L500,180" stroke="#eee" stroke-width="2" fill="none"/><text x="500" y="80" text-anchor="middle" font-family="'Fira Sans', Helvetica, sans-serif" font-weight="600" font-size="12" fill="#aaa">20</text><path d="M540,90L540,180" stroke="#eee" stroke-width="2" fill="none"/><text x="540" y="80" text-anchor="middle" font-family="'Fira Sans', Helvetica, sans-serif" font-weight="600" font-size="12" fill="#aaa">30</text><path d="M580,90L580,180" stroke="#eee" stroke-width="2" fill="none"/><text x="580" y="80" text-anchor="middle" font-family="'Fira Sans', Helvetica, sans-serif" font-weight="600" font-size="12" fill="#aaa">40</text><path d="M620,90L620,180" stroke="#eee" stroke-width="2" fill="none"/><path d="M660,90L660,180" stroke="#eee" stroke-width="2" fill="none"/><text x="660" y="80" text-anchor="middle" font-family="'Fira Sans', Helvetica, sans-serif" font-weight="600" font-size="12" fill="#aaa">60</text><path d="M700,90L700,180" stroke="#eee" stroke-width="2" fill="none"/><text x="700" y="80" text-anchor="middle" font-family="'Fira Sans', Helvetica, sans-serif" font-weight="600" font-size="12" fill="#aaa">70</text><path d="M740,90L740,180" stroke="#eee" stroke-width="2" fill="none"/><text x="740" y="80" text-anchor="middle" font-family="'Fira Sans', Helvetica, sans-serif" font-weight="600" font-size="12" fill="#aaa">80</text><path d="M780,90L780,180" stroke="#eee" stroke-width="2" fill="none"/><text x="780" y="80" text-anchor="middle" font-family="'Fira Sans', Helvetica, sans-serif" font-weight="600" font-size="12" fill="#aaa">90</text><path d="M820,90L820,180" stroke="#eee" stroke-width="2" fill="none"/><path d="M20,90L20,180" stroke="#ccc" stroke-width="2" fill="none"/><text x="20" y="80" text-anchor="middle" font-family="'Fira Sans', Helvetica, sans-serif" font-weight="600" font-size="12" fill="#666">-100</text><path d="M220,90L220,180" stroke="#ccc" stroke-width="2" fill="none"/><text x="220" y="80" text-anchor="middle" font-family="'Fira Sans', Helvetica, sans-serif" font-weight="600" font-size="12" fill="#666">-50</text><path d="M420,90L420,180" stroke="#ccc" stroke-width="2" fill="none"/><text x="420" y="80" text-anchor="middle" font-family="'Fira Sans', Helvetica, sans-serif" font-weight="600" font-size="12" fill="#666">0</text><path d="M620,90L620,180" stroke="#ccc" stroke-width="2" fill="none"/><text x="620" y="80" text-anchor="middle" font-family="'Fira Sans', Helvetica, sans-serif" font-weight="600" font-size="12" fill="#666">50</text><path d="M820,90L820,180" stroke="#ccc" stroke-width="2" fill="none"/><text x="820" y="80" text-anchor="middle" font-family="'Fira Sans', Helvetica, sans-serif" font-weight="600" font-size="12" fill="#666">100</text><rect x="312.48333333333335" y="50" width="381.45" height="3" fill="#c00465"/><rect x="312.48333333333335" y="50" width="381.45" height="130" opacity="0.06" fill="#c00465"/><text x="312.48333333333335" y="45" text-anchor="start" font-family="'Fira Sans', Helvetica, sans-serif" font-weight="500" font-size="18px" fill="#c00465">Julio-Claudians</text><text x="164.00555555555556" y="106" text-anchor="end" font-family="'Fira Sans', Helvetica, sans-serif" font-weight="500" font-size="12" fill="black">Augustus</text><rect x="171.00555555555556" y="100" width="307.65" height="6" style="fill: rgb(57, 177, 213);" transform=""/><rect x="312.48333333333335" y="100" width="166.17222222222222" height="6" style="fill: rgb(141, 6, 94);" transform=""/><text x="248.5388888888889" y="122" text-anchor="end" font-family="'Fira Sans', Helvetica, sans-serif" font-weight="500" font-size="12" fill="black">Tiberius</text><rect x="255.5388888888889" y="116" width="313.55555555555554" height="6" style="fill: rgb(57, 177, 213);" transform=""/><rect x="478.95" y="116" width="90.14444444444443" height="6" style="fill: rgb(141, 6, 94);" transform=""/><text x="463.5777777777778" y="138" text-anchor="end" font-family="'Fira Sans', Helvetica, sans-serif" font-weight="500" font-size="12" fill="black">Caligula</text><rect x="470.5777777777778" y="132" width="113.99444444444444" height="6" style="fill: rgb(57, 177, 213);" transform=""/><rect x="569.1166666666667" y="132" width="15.455555555555549" height="6" style="fill: rgb(141, 6, 94);" transform=""/><text x="375.55555555555554" y="154" text-anchor="end" font-family="'Fira Sans', Helvetica, sans-serif" font-weight="500" font-size="12" fill="black">Claudius</text><rect x="382.55555555555554" y="148" width="256.03333333333336" height="6" style="fill: rgb(57, 177, 213);" transform=""/><rect x="584.5833333333334" y="148" width="54.00555555555556" height="6" style="fill: rgb(141, 6, 94);" transform=""/><text x="564.8333333333334" y="170" text-anchor="end" font-family="'Fira Sans', Helvetica, sans-serif" font-weight="500" font-size="12" fill="black">Nero</text><rect x="571.8333333333334" y="164" width="122.1" height="6" style="fill: rgb(57, 177, 213);" transform=""/><rect x="639.2" y="164" width="54.73333333333335" height="6" style="fill: rgb(141, 6, 94);" transform=""/></svg>