<?xml version="1.0" encoding="UTF-8" standalone="no"?>
<!-- Created with Inkscape (http://www.inkscape.org/) -->

<svg
   xmlns:dc="http://purl.org/dc/elements/1.1/"
   xmlns:cc="http://creativecommons.org/ns#"
   xmlns:rdf="http://www.w3.org/1999/02/22-rdf-syntax-ns#"
   xmlns:svg="http://www.w3.org/2000/svg"
   xmlns="http://www.w3.org/2000/svg"
   xmlns:sodipodi="http://sodipodi.sourceforge.net/DTD/sodipodi-0.dtd"
   xmlns:inkscape="http://www.inkscape.org/namespaces/inkscape"
   width="24.65625"
   height="30.375"
   id="svg20158"
   version="1.1"
   inkscape:version="0.48.3.1 r9886"
   sodipodi:docname="logo.svg">
  <defs
     id="defs20160" />
  <sodipodi:namedview
     id="base"
     pagecolor="#ffffff"
     bordercolor="#666666"
     borderopacity="1.0"
     inkscape:pageopacity="0.0"
     inkscape:pageshadow="2"
     inkscape:zoom="3.959798"
     inkscape:cx="-104.36224"
     inkscape:cy="68.249923"
     inkscape:document-units="px"
     inkscape:current-layer="layer1"
     showgrid="false"
     fit-margin-top="3"
     fit-margin-left="3"
     fit-margin-right="3"
     fit-margin-bottom="3"
     inkscape:window-width="1920"
     inkscape:window-height="1026"
     inkscape:window-x="0"
     inkscape:window-y="26"
     inkscape:window-maximized="1" />
  <metadata
     id="metadata20163">
    <rdf:RDF>
      <cc:Work
         rdf:about="">
        <dc:format>image/svg+xml</dc:format>
        <dc:type
           rdf:resource="http://purl.org/dc/dcmitype/StillImage" />
        <dc:title />
      </cc:Work>
    </rdf:RDF>
  </metadata>
  <g
     inkscape:label="Ebene 1"
     inkscape:groupmode="layer"
     id="layer1"
     transform="translate(-324.8125,-394.3125)">
    <path
       style="font-size:medium;font-style:normal;font-variant:normal;font-weight:normal;font-stretch:normal;text-indent:0;text-align:start;text-decoration:none;line-height:normal;letter-spacing:normal;word-spacing:normal;text-transform:none;direction:ltr;block-progression:tb;writing-mode:lr-tb;text-anchor:start;baseline-shift:baseline;color:#000000;fill:#666666;fill-opacity:1;stroke:none;stroke-width:1.5;marker:none;visibility:visible;display:inline;overflow:visible;enable-background:accumulate;font-family:Sans;-inkscape-font-specification:Sans"
       d="m 327.8125,397.3125 0,0.75 0,10.6875 0,0.75 0,0.75 0,10.6875 0,0.75 0.75,0 11.4375,0 c 3.56123,0 6.46875,-2.90734 6.46875,-6.46875 0,-2.47187 -1.38941,-4.63048 -3.4375,-5.71875 2.04809,-1.08818 3.4375,-3.2466 3.4375,-5.71875 0,-3.56102 -2.90745,-6.46875 -6.46875,-6.46875 l -11.4375,0 -0.75,0 z m 1.5,1.5 10.6875,0 c 2.75056,0 4.96875,2.21845 4.96875,4.96875 0,2.75082 -2.21812,4.96875 -4.96875,4.96875 l -10.6875,0 0,-9.9375 z m 0,11.4375 10.6875,0 c 2.75056,0 4.96875,2.21845 4.96875,4.96875 0,2.75081 -2.21812,4.96875 -4.96875,4.96875 l -10.6875,0 0,-9.9375 z"
       id="path303-5"
       inkscape:connector-curvature="0" />
  </g>
</svg>
