<?xml version="1.0" encoding="UTF-8" standalone="no"?>
<!-- Created with Inkscape (http://www.inkscape.org/) -->

<svg
   xmlns:dc="http://purl.org/dc/elements/1.1/"
   xmlns:cc="http://creativecommons.org/ns#"
   xmlns:rdf="http://www.w3.org/1999/02/22-rdf-syntax-ns#"
   xmlns:svg="http://www.w3.org/2000/svg"
   xmlns="http://www.w3.org/2000/svg"
   xmlns:sodipodi="http://sodipodi.sourceforge.net/DTD/sodipodi-0.dtd"
   xmlns:inkscape="http://www.inkscape.org/namespaces/inkscape"
   width="680"
   height="239.99998"
   id="svg5569"
   version="1.1"
   inkscape:version="0.48+devel r13447 custom"
   viewBox="0 0 679.99999 239.99999"
   sodipodi:docname="timeline.svg">
  <defs
     id="defs5571" />
  <sodipodi:namedview
     id="base"
     pagecolor="#ffffff"
     bordercolor="#666666"
     borderopacity="1.0"
     inkscape:pageopacity="0.0"
     inkscape:pageshadow="2"
     inkscape:zoom="0.98994949"
     inkscape:cx="51.37255"
     inkscape:cy="-48.10261"
     inkscape:document-units="px"
     inkscape:current-layer="layer1"
     showgrid="false"
     fit-margin-top="0"
     fit-margin-left="0"
     fit-margin-right="0"
     fit-margin-bottom="0"
     inkscape:window-width="1920"
     inkscape:window-height="1080"
     inkscape:window-x="1366"
     inkscape:window-y="0"
     inkscape:window-maximized="1"
     inkscape:object-paths="true"
     inkscape:snap-intersection-paths="true"
     inkscape:object-nodes="true"
     inkscape:snap-smooth-nodes="true"
     inkscape:snap-midpoints="true">
    <inkscape:grid
       type="xygrid"
       id="grid4194"
       originx="-30.000019px"
       originy="-50.000022px" />
  </sodipodi:namedview>
  <metadata
     id="metadata5574">
    <rdf:RDF>
      <cc:Work
         rdf:about="">
        <dc:format>image/svg+xml</dc:format>
        <dc:type
           rdf:resource="http://purl.org/dc/dcmitype/StillImage" />
        <dc:title />
      </cc:Work>
    </rdf:RDF>
  </metadata>
  <g
     inkscape:label="Ebene 1"
     inkscape:groupmode="layer"
     id="layer1"
     transform="translate(148.57141,-333.79077)">
    <g
       style="fill:none;stroke:#cccccf;stroke-width:2.39046597;stroke-opacity:1"
       id="g5269"
       transform="matrix(0,0.5833353,-1,0,503.79057,-519.54652)">
      <path
         sodipodi:nodetypes="cc"
         style="fill:none;stroke:#cccccf;stroke-width:2.39046597;stroke-linecap:butt;stroke-linejoin:miter;stroke-opacity:1"
         d="m 1788.5712,362.362 42.8574,0"
         id="path5271"
         inkscape:connector-curvature="0" />
      <path
         inkscape:connector-curvature="0"
         id="path5273"
         d="m 1788.5718,612.362 42.8574,0"
         style="fill:none;stroke:#cccccf;stroke-width:2.39046597;stroke-linecap:butt;stroke-linejoin:miter;stroke-opacity:1"
         sodipodi:nodetypes="cc" />
      <path
         style="fill:none;stroke:#cccccf;stroke-width:2.39046597;stroke-linecap:butt;stroke-linejoin:miter;stroke-opacity:1"
         d="m 1788.5718,462.362 42.8574,0"
         id="path5275"
         inkscape:connector-curvature="0"
         sodipodi:nodetypes="cc" />
      <path
         style="fill:none;stroke:#cccccf;stroke-width:2.39046597;stroke-linecap:butt;stroke-linejoin:miter;stroke-opacity:1"
         d="m 1788.5712,512.362 42.8574,0"
         id="path5277"
         inkscape:connector-curvature="0"
         sodipodi:nodetypes="cc" />
      <path
         sodipodi:nodetypes="cc"
         style="fill:none;stroke:#cccccf;stroke-width:2.39046597;stroke-linecap:butt;stroke-linejoin:miter;stroke-opacity:1"
         d="m 1788.5718,562.362 42.8574,0"
         id="path5279"
         inkscape:connector-curvature="0" />
      <path
         sodipodi:nodetypes="cc"
         inkscape:connector-curvature="0"
         id="path5281"
         d="m 1788.5718,412.362 42.8574,0"
         style="fill:none;stroke:#cccccf;stroke-width:2.39046597;stroke-linecap:butt;stroke-linejoin:miter;stroke-opacity:1" />
      <path
         sodipodi:nodetypes="cc"
         style="fill:none;stroke:#cccccf;stroke-width:2.39046597;stroke-linecap:butt;stroke-linejoin:miter;stroke-opacity:1"
         d="m 1788.5718,312.362 42.8574,0"
         id="path5283"
         inkscape:connector-curvature="0" />
      <path
         style="fill:none;stroke:#cccccf;stroke-width:2.39046597;stroke-linecap:butt;stroke-linejoin:miter;stroke-opacity:1"
         d="m 1788.5712,212.362 42.8574,0"
         id="path5285"
         inkscape:connector-curvature="0"
         sodipodi:nodetypes="cc" />
      <path
         inkscape:connector-curvature="0"
         id="path5287"
         d="m 1788.5718,262.362 42.8574,0"
         style="fill:none;stroke:#cccccf;stroke-width:2.39046597;stroke-linecap:butt;stroke-linejoin:miter;stroke-opacity:1"
         sodipodi:nodetypes="cc" />
      <path
         sodipodi:nodetypes="cc"
         inkscape:connector-curvature="0"
         id="path5289"
         d="m 1788.5717,162.362 42.8574,0"
         style="fill:none;stroke:#cccccf;stroke-width:2.39046597;stroke-linecap:butt;stroke-linejoin:miter;stroke-opacity:1" />
      <path
         inkscape:connector-curvature="0"
         id="path5291"
         d="m 1788.5712,62.362 42.8574,0"
         style="fill:none;stroke:#cccccf;stroke-width:2.39046597;stroke-linecap:butt;stroke-linejoin:miter;stroke-opacity:1"
         sodipodi:nodetypes="cc" />
      <path
         style="fill:none;stroke:#cccccf;stroke-width:2.39046597;stroke-linecap:butt;stroke-linejoin:miter;stroke-opacity:1"
         d="m 1788.5717,112.362 42.8574,0"
         id="path5293"
         inkscape:connector-curvature="0"
         sodipodi:nodetypes="cc" />
      <path
         sodipodi:nodetypes="cc"
         style="fill:none;stroke:#cccccf;stroke-width:2.39046597;stroke-linecap:butt;stroke-linejoin:miter;stroke-opacity:1"
         d="m 1788.5718,12.362 42.8574,0"
         id="path5295"
         inkscape:connector-curvature="0" />
    </g>
    <g
       style="font-style:normal;font-variant:normal;font-weight:bold;font-stretch:normal;font-size:40px;line-height:125%;font-family:Helvetica;-inkscape-font-specification:'Helvetica Bold';text-align:center;letter-spacing:0px;word-spacing:0px;text-anchor:middle;fill:#fd3301;fill-opacity:1;stroke:none"
       id="text5297">
      <path
         d="m 52.131683,379.8259 q 0,2.28515 1.230469,3.73047 1.230469,1.44531 3.125,1.44531 1.855469,0 2.910156,-1.38672 1.074219,-1.40625 1.074219,-3.63281 0,-2.48047 -1.210937,-3.78907 -1.210938,-1.32812 -2.96875,-1.32812 -1.425782,0 -2.519532,0.85937 -1.640625,1.26954 -1.640625,4.10157 z m 7.832032,-12.22657 q 0,-0.68359 -0.527344,-1.5039 -0.898438,-1.32813 -2.714844,-1.32813 -2.714844,0 -3.867187,3.04688 -0.625,1.67969 -0.859375,4.96094 1.035156,-1.23047 2.402343,-1.79688 1.367188,-0.56641 3.125,-0.56641 3.769532,0 6.171875,2.5586 2.421875,2.55859 2.421875,6.54297 0,3.96484 -2.363281,6.99218 -2.363281,3.02735 -7.34375,3.02735 -5.351562,0 -7.890625,-4.47266 -1.972656,-3.49609 -1.972656,-9.02344 0,-3.24218 0.273437,-5.27343 0.488282,-3.61328 1.894532,-6.01563 1.210937,-2.05078 3.164062,-3.30078 1.972656,-1.25 4.707031,-1.25 3.945313,0 6.289063,2.03125 2.34375,2.01172 2.636719,5.37109 l -5.546875,0 z"
         style="fill:#ea4e16;fill-opacity:1"
         id="path4196" />
    </g>
    <g
       style="font-style:normal;font-variant:normal;font-weight:bold;font-stretch:normal;font-size:40px;line-height:125%;font-family:Helvetica;-inkscape-font-specification:'Helvetica Bold';text-align:center;letter-spacing:0px;word-spacing:0px;text-anchor:middle;fill:#fd3301;fill-opacity:1;stroke:none"
       id="text5301">
      <path
         d="m 370.08093,502.69699 -3.20312,0 0,6.09375 -5.44922,0 0,-6.09375 -11.21094,0 0,-4.86328 10.41016,-17.1875 6.25,0 0,17.69531 3.20312,0 0,4.35547 z m -8.65234,-4.35547 0,-12.22656 -7.08984,12.22656 7.08984,0 z"
         style="font-style:normal;font-variant:normal;font-weight:bold;font-stretch:normal;font-size:40px;font-family:Helvetica;-inkscape-font-specification:'Helvetica Bold';text-align:center;text-anchor:middle;fill:#ea4e16;fill-opacity:1"
         id="path4199" />
      <path
         d="m 378.26453,500.56808 q 0,2.08985 1.07422,3.24219 1.09375,1.15235 3.00781,1.15235 1.91406,0 2.98828,-1.15235 1.09375,-1.15234 1.09375,-3.24219 0,-2.16796 -1.11328,-3.28125 -1.09375,-1.13281 -2.96875,-1.13281 -1.875,0 -2.98828,1.13281 -1.09375,1.11329 -1.09375,3.28125 z m -5.78125,0.3711 q 0,-2.38281 1.07422,-4.31641 1.09375,-1.93359 3.18359,-2.91015 -2.05078,-1.36719 -2.67578,-2.94922 -0.60547,-1.60157 -0.60547,-2.98828 0,-3.08594 2.32422,-5.25391 2.32422,-2.1875 6.5625,-2.1875 4.23828,0 6.5625,2.1875 2.32422,2.16797 2.32422,5.25391 0,1.38671 -0.625,2.98828 -0.60547,1.58203 -2.65625,2.7539 2.08984,1.17188 3.14453,3.10547 1.05469,1.9336 1.05469,4.31641 0,3.57422 -2.65625,6.09375 -2.63672,2.5 -7.38282,2.5 -4.74609,0 -7.1875,-2.5 -2.4414,-2.51953 -2.4414,-6.09375 z m 6.28906,-12.53906 q 0,1.54296 0.9375,2.51953 0.95703,0.97656 2.63672,0.97656 1.69922,0 2.61719,-0.97656 0.9375,-0.97657 0.9375,-2.51953 0,-1.67969 -0.9375,-2.61719 -0.91797,-0.95703 -2.61719,-0.95703 -1.67969,0 -2.63672,0.95703 -0.9375,0.9375 -0.9375,2.61719 z"
         style="font-style:normal;font-variant:normal;font-weight:bold;font-stretch:normal;font-size:40px;font-family:Helvetica;-inkscape-font-specification:'Helvetica Bold';text-align:center;text-anchor:middle;fill:#ea4e16;fill-opacity:1"
         id="path4201" />
    </g>
    <g
       transform="matrix(0,0.58333537,-1,0,503.79057,-639.54666)"
       id="g5305"
       style="fill:none;stroke:#cccccf;stroke-width:2.39046597;stroke-opacity:1">
      <path
         style="fill:none;stroke:#cccccf;stroke-width:2.39046597;stroke-linecap:butt;stroke-linejoin:miter;stroke-opacity:1"
         d="m 1788.5712,112.362 42.8574,0"
         id="path5307"
         inkscape:connector-curvature="0"
         sodipodi:nodetypes="cc" />
      <path
         inkscape:connector-curvature="0"
         id="path5309"
         d="m 1788.5712,62.362 42.8574,0"
         style="fill:none;stroke:#cccccf;stroke-width:2.39046597;stroke-linecap:butt;stroke-linejoin:miter;stroke-opacity:1"
         sodipodi:nodetypes="cc" />
      <path
         style="fill:none;stroke:#cccccf;stroke-width:2.39046597;stroke-linecap:butt;stroke-linejoin:miter;stroke-opacity:1"
         d="m 1788.5712,212.362 42.8574,0"
         id="path5311"
         inkscape:connector-curvature="0"
         sodipodi:nodetypes="cc" />
      <path
         inkscape:connector-curvature="0"
         id="path5313"
         d="m 1788.5712,262.362 42.8574,0"
         style="fill:none;stroke:#cccccf;stroke-width:2.39046597;stroke-linecap:butt;stroke-linejoin:miter;stroke-opacity:1"
         sodipodi:nodetypes="cc" />
      <path
         inkscape:connector-curvature="0"
         id="path5315"
         d="m 1788.5712,362.362 42.8574,0"
         style="fill:none;stroke:#cccccf;stroke-width:2.39046597;stroke-linecap:butt;stroke-linejoin:miter;stroke-opacity:1"
         sodipodi:nodetypes="cc" />
      <path
         style="fill:none;stroke:#cccccf;stroke-width:2.39046597;stroke-linecap:butt;stroke-linejoin:miter;stroke-opacity:1"
         d="m 1788.5712,412.362 42.8574,0"
         id="path5317"
         inkscape:connector-curvature="0"
         sodipodi:nodetypes="cc" />
      <path
         style="fill:none;stroke:#cccccf;stroke-width:2.39046597;stroke-linecap:butt;stroke-linejoin:miter;stroke-opacity:1"
         d="m 1788.5712,512.362 42.8574,0"
         id="path5319"
         inkscape:connector-curvature="0"
         sodipodi:nodetypes="cc" />
      <path
         inkscape:connector-curvature="0"
         id="path5321"
         d="m 1788.5712,562.362 42.8574,0"
         style="fill:none;stroke:#cccccf;stroke-width:2.39046597;stroke-linecap:butt;stroke-linejoin:miter;stroke-opacity:1"
         sodipodi:nodetypes="cc" />
      <path
         sodipodi:nodetypes="cc"
         style="fill:none;stroke:#cccccf;stroke-width:2.39046597;stroke-linecap:butt;stroke-linejoin:miter;stroke-opacity:1"
         d="m 1788.5718,612.362 42.8574,0"
         id="path5323"
         inkscape:connector-curvature="0" />
      <path
         sodipodi:nodetypes="cc"
         inkscape:connector-curvature="0"
         id="path5325"
         d="m 1788.5718,462.362 42.8574,0"
         style="fill:none;stroke:#cccccf;stroke-width:2.39046597;stroke-linecap:butt;stroke-linejoin:miter;stroke-opacity:1" />
      <path
         sodipodi:nodetypes="cc"
         inkscape:connector-curvature="0"
         id="path5327"
         d="m 1788.5712,487.362 42.8574,0"
         style="fill:none;stroke:#cccccf;stroke-width:2.39046597;stroke-linecap:butt;stroke-linejoin:miter;stroke-opacity:1" />
      <path
         sodipodi:nodetypes="cc"
         style="fill:none;stroke:#cccccf;stroke-width:2.39046597;stroke-linecap:butt;stroke-linejoin:miter;stroke-opacity:1"
         d="m 1788.5712,537.362 42.8574,0"
         id="path5329"
         inkscape:connector-curvature="0" />
      <path
         inkscape:connector-curvature="0"
         id="path5331"
         d="m 1788.5718,587.362 42.8574,0"
         style="fill:none;stroke:#cccccf;stroke-width:2.39046597;stroke-linecap:butt;stroke-linejoin:miter;stroke-opacity:1"
         sodipodi:nodetypes="cc" />
      <path
         sodipodi:nodetypes="cc"
         style="fill:none;stroke:#cccccf;stroke-width:2.39046597;stroke-linecap:butt;stroke-linejoin:miter;stroke-opacity:1"
         d="m 1788.5712,337.362 42.8574,0"
         id="path5333"
         inkscape:connector-curvature="0" />
      <path
         sodipodi:nodetypes="cc"
         inkscape:connector-curvature="0"
         id="path5335"
         d="m 1788.5712,387.362 42.8574,0"
         style="fill:none;stroke:#cccccf;stroke-width:2.39046597;stroke-linecap:butt;stroke-linejoin:miter;stroke-opacity:1" />
      <path
         style="fill:none;stroke:#cccccf;stroke-width:2.39046597;stroke-linecap:butt;stroke-linejoin:miter;stroke-opacity:1"
         d="m 1788.5718,437.362 42.8574,0"
         id="path5337"
         inkscape:connector-curvature="0"
         sodipodi:nodetypes="cc" />
      <path
         inkscape:connector-curvature="0"
         id="path5339"
         d="m 1788.5718,312.362 42.8574,0"
         style="fill:none;stroke:#cccccf;stroke-width:2.39046597;stroke-linecap:butt;stroke-linejoin:miter;stroke-opacity:1"
         sodipodi:nodetypes="cc" />
      <path
         sodipodi:nodetypes="cc"
         inkscape:connector-curvature="0"
         id="path5341"
         d="m 1788.5712,187.362 42.8574,0"
         style="fill:none;stroke:#cccccf;stroke-width:2.39046597;stroke-linecap:butt;stroke-linejoin:miter;stroke-opacity:1" />
      <path
         sodipodi:nodetypes="cc"
         style="fill:none;stroke:#cccccf;stroke-width:2.39046597;stroke-linecap:butt;stroke-linejoin:miter;stroke-opacity:1"
         d="m 1788.5712,237.362 42.8574,0"
         id="path5343"
         inkscape:connector-curvature="0" />
      <path
         sodipodi:nodetypes="cc"
         style="fill:none;stroke:#cccccf;stroke-width:2.39046597;stroke-linecap:butt;stroke-linejoin:miter;stroke-opacity:1"
         d="m 1788.5718,287.362 42.8574,0"
         id="path5345"
         inkscape:connector-curvature="0" />
      <path
         style="fill:none;stroke:#cccccf;stroke-width:2.39046597;stroke-linecap:butt;stroke-linejoin:miter;stroke-opacity:1"
         d="m 1788.5717,162.362 42.8574,0"
         id="path5347"
         inkscape:connector-curvature="0"
         sodipodi:nodetypes="cc" />
      <path
         sodipodi:nodetypes="cc"
         inkscape:connector-curvature="0"
         id="path5349"
         d="m 1788.5712,87.362 42.8574,0"
         style="fill:none;stroke:#cccccf;stroke-width:2.39046597;stroke-linecap:butt;stroke-linejoin:miter;stroke-opacity:1" />
      <path
         sodipodi:nodetypes="cc"
         style="fill:none;stroke:#cccccf;stroke-width:2.39046597;stroke-linecap:butt;stroke-linejoin:miter;stroke-opacity:1"
         d="m 1788.5712,37.362 42.8574,0"
         id="path5351"
         inkscape:connector-curvature="0" />
      <path
         sodipodi:nodetypes="cc"
         inkscape:connector-curvature="0"
         id="path5353"
         d="m 1788.5717,137.362 42.8574,0"
         style="fill:none;stroke:#cccccf;stroke-width:2.39046597;stroke-linecap:butt;stroke-linejoin:miter;stroke-opacity:1" />
      <path
         inkscape:connector-curvature="0"
         id="path5355"
         d="m 1788.5718,12.362 42.8574,0"
         style="fill:none;stroke:#cccccf;stroke-width:2.39046597;stroke-linecap:butt;stroke-linejoin:miter;stroke-opacity:1"
         sodipodi:nodetypes="cc" />
    </g>
    <g
       transform="matrix(0,0.62500678,-1,0,503.79057,-1083.7257)"
       id="g5357"
       style="stroke:#000000;stroke-width:2.30940104;stroke-opacity:1">
      <path
         style="fill:none;stroke:#000000;stroke-width:2.30940104;stroke-linecap:butt;stroke-linejoin:miter;stroke-opacity:1"
         d="m 2380,12.362183 40,0"
         id="path5359"
         inkscape:connector-curvature="0" />
      <path
         inkscape:connector-curvature="0"
         id="path5361"
         d="m 2380,612.36218 40,0"
         style="fill:none;stroke:#000000;stroke-width:2.30940104;stroke-linecap:butt;stroke-linejoin:miter;stroke-opacity:1" />
      <path
         style="fill:none;stroke:#000000;stroke-width:2.30940104;stroke-linecap:butt;stroke-linejoin:miter;stroke-opacity:1"
         d="m 2380,312.36218 40,0"
         id="path5363"
         inkscape:connector-curvature="0" />
      <path
         inkscape:connector-curvature="0"
         id="path5365"
         d="m 2380,162.36218 40,0"
         style="fill:none;stroke:#000000;stroke-width:2.30940104;stroke-linecap:butt;stroke-linejoin:miter;stroke-opacity:1" />
      <path
         style="fill:none;stroke:#000000;stroke-width:2.30940104;stroke-linecap:butt;stroke-linejoin:miter;stroke-opacity:1"
         d="m 2380,462.36218 40,0"
         id="path5367"
         inkscape:connector-curvature="0" />
    </g>
    <g
       transform="matrix(0,0.62500687,-1,0,503.79057,-963.72572)"
       id="g5369"
       style="stroke:#000000;stroke-width:2.30940104;stroke-opacity:1">
      <path
         style="fill:none;stroke:#000000;stroke-width:2.30940104;stroke-linecap:butt;stroke-linejoin:miter;stroke-opacity:1"
         d="m 2380,12.362183 40,0"
         id="path5371"
         inkscape:connector-curvature="0" />
      <path
         inkscape:connector-curvature="0"
         id="path5373"
         d="m 2380,612.36218 40,0"
         style="fill:none;stroke:#000000;stroke-width:2.30940104;stroke-linecap:butt;stroke-linejoin:miter;stroke-opacity:1" />
      <path
         style="fill:none;stroke:#000000;stroke-width:2.30940104;stroke-linecap:butt;stroke-linejoin:miter;stroke-opacity:1"
         d="m 2380,312.36218 40,0"
         id="path5375"
         inkscape:connector-curvature="0" />
      <path
         inkscape:connector-curvature="0"
         id="path5377"
         d="m 2380,162.36218 40,0"
         style="fill:none;stroke:#000000;stroke-width:2.30940104;stroke-linecap:butt;stroke-linejoin:miter;stroke-opacity:1" />
      <path
         style="fill:none;stroke:#000000;stroke-width:2.30940104;stroke-linecap:butt;stroke-linejoin:miter;stroke-opacity:1"
         d="m 2380,462.36218 40,0"
         id="path5379"
         inkscape:connector-curvature="0" />
    </g>
    <g
       transform="translate(-17678.571,831.42857)"
       id="g5425">
      <path
         style="fill:none;stroke:#ea4e16;stroke-width:4.56434774;stroke-linecap:butt;stroke-linejoin:miter;stroke-miterlimit:4;stroke-dasharray:none;stroke-opacity:1"
         d="m 18050,-282.63779 0,-25.00001"
         id="path5427"
         inkscape:connector-curvature="0" />
      <path
         inkscape:connector-curvature="0"
         id="path5429"
         d="m 17735,-402.6378 0,-25"
         style="fill:none;stroke:#ea4e16;stroke-width:4.56434727;stroke-linecap:butt;stroke-linejoin:miter;stroke-miterlimit:4;stroke-dasharray:none;stroke-opacity:1" />
    </g>
  </g>
</svg>
