<svg xmlns="http://www.w3.org/2000/svg" viewBox="0 0 821.70446 480.38109" height="512406.501" width="876484.762"><g transform="translate(266.416 -153.145)"><path color="#000" overflow="visible" fill="#333" d="M-266.416 153.145h821.704v480.38h-821.704z"/><circle r="79.01" cy="563.998" cx="-190.564" color="#000" overflow="visible" fill="#414141"/><path d="M251.892 633.526v-480.38" fill="none" stroke="#014665" stroke-width="18.962"/><path d="M466.8 323.807H359.346l.06-50.622v-56.887H125.424v240.19H-7.313v50.567l.06 63.263H-231.64" opacity=".4" fill="none" stroke="#ea1616" stroke-width="1.896" stroke-linecap="round" stroke-linejoin="round"/><path d="M-231.65 570.318H-7.26V507.11h132.736V254.278h94.812l-.06-37.98 63.264.056v56.887l75.906-.055-.06 50.622h107.454" fill="none" stroke="#ea1616" stroke-width="1.896" stroke-linecap="round" stroke-linejoin="round"/><path d="M466.8 336.45H-7.26v82.17l-75.906-.057h-50.567V557.62l-97.916.057" opacity=".55" fill="none" stroke="#00b890" stroke-width="1.896" stroke-linecap="round" stroke-linejoin="round"/><path d="M-231.65 557.677h148.54V418.62h75.85v-82.17H466.8" fill="none" stroke="#00b890" stroke-width="1.896" stroke-linecap="round" stroke-linejoin="round"/><path d="M-190.564 570.318v-12.64" fill="none" stroke="#4b4b4b" stroke-width="8.217" stroke-linecap="round"/><path d="M54.99 500.79l6.32 6.32-6.32 6.32" fill="none" stroke="#ea1616" stroke-width="1.896" stroke-linecap="round"/><path d="M44.264 462.865l-6.32-6.32 6.32-6.322" fill="none" stroke="#7d2828" stroke-width="1.896" stroke-linecap="round"/><path d="M174.143 247.957l6.32 6.32-6.32 6.322" fill="none" stroke="#ea1616" stroke-width="1.896" stroke-linecap="round"/><path d="M301.198 222.674l-6.32-6.32 6.32-6.32" fill="none" stroke="#7d2828" stroke-width="1.896" stroke-linecap="round"/><text y="622.231" x="88.193" style="line-height:110.00000238%;-inkscape-font-specification:'Fira Sans';text-align:start" transform="rotate(30)" color="#000" font-size="6.321" font-family="Fira Sans" overflow="visible" fill="#fff" stroke-width="25"><tspan y="622.231" x="88.193">Casanova</tspan></text><text style="line-height:110.00000238%;-inkscape-font-specification:'Fira Sans Bold';text-align:start" x="126.951" y="607.151" transform="rotate(30)" color="#000" font-weight="bold" font-size="9.481" font-family="Fira Sans" overflow="visible" fill="#fff" stroke-width="25"><tspan x="126.951" y="607.151">via Ortles</tspan></text><text y="585.43" x="151.931" style="line-height:110.00000238%;-inkscape-font-specification:'Fira Sans';text-align:start" transform="rotate(30)" color="#000" font-size="6.321" font-family="Fira Sans" overflow="visible" fill="#fff" stroke-width="25"><tspan y="585.43" x="151.931">via Resia S. Pio X</tspan></text><text style="line-height:110.00000238%;-inkscape-font-specification:'Fira Sans';text-align:start" x="181.185" y="568.541" transform="rotate(30)" color="#000" font-size="6.321" font-family="Fira Sans" overflow="visible" fill="#fff" stroke-width="25"><tspan x="181.185" y="568.541">via Barletta</tspan></text><text y="552.738" x="208.557" style="line-height:110.00000238%;-inkscape-font-specification:'Fira Sans';text-align:start" transform="rotate(30)" color="#000" font-size="6.321" font-family="Fira Sans" overflow="visible" fill="#fff" stroke-width="25"><tspan y="552.738" x="208.557">via Bari</tspan></text><text style="line-height:110.00000238%;-inkscape-font-specification:'Fira Sans';text-align:start" x="273.283" y="475.226" transform="rotate(30)" color="#000" font-size="6.321" font-family="Fira Sans" overflow="visible" fill="#fff" stroke-width="25"><tspan x="273.283" y="475.226">S. Maria in Augia</tspan></text><text y="399.921" x="-204.606" style="line-height:110.00000238%;-inkscape-font-specification:'Fira Sans';text-align:start" transform="rotate(-30)" color="#000" font-size="6.321" font-family="Fira Sans" overflow="visible" fill="#fff" stroke-width="25"><tspan y="399.921" x="-204.606">Scuola San Filippo Negri</tspan></text><text style="line-height:110.00000238%;-inkscape-font-specification:'Fira Sans';text-align:start" x="-174.501" y="417.304" transform="rotate(-30)" color="#000" font-size="6.321" font-family="Fira Sans" overflow="visible" fill="#fff" stroke-width="25"><tspan x="-174.501" y="417.304">via Palermo</tspan></text><text y="434.687" x="-144.395" style="line-height:110.00000238%;-inkscape-font-specification:'Fira Sans';text-align:start" transform="rotate(-30)" color="#000" font-size="6.321" font-family="Fira Sans" overflow="visible" fill="#fff" stroke-width="25"><tspan y="434.687" x="-144.395">via Regina Pacis</tspan></text><text style="line-height:110.00000238%;-inkscape-font-specification:'Fira Sans';text-align:start" x="270.01" y="444.271" transform="rotate(30)" color="#000" font-size="6.321" font-family="Fira Sans" overflow="visible" fill="#fff" stroke-width="25"><tspan x="270.01" y="444.271">via Montecassino</tspan></text><text style="line-height:110.00000238%;-inkscape-font-specification:'Fira Sans';text-align:start" x="294.643" y="430.051" transform="rotate(30)" color="#000" font-size="6.321" font-family="Fira Sans" overflow="visible" fill="#fff" stroke-width="25"><tspan x="294.643" y="430.051">via Udine</tspan></text><text y="415.828" x="319.275" style="line-height:110.00000238%;-inkscape-font-specification:'Fira Sans';text-align:start" transform="rotate(30)" color="#000" font-size="6.321" font-family="Fira Sans" overflow="visible" fill="#fff" stroke-width="25"><tspan y="415.828" x="319.275">via Milano</tspan></text><text style="line-height:110.00000238%;-inkscape-font-specification:'Fira Sans';text-align:start" x="343.908" y="401.607" transform="rotate(30)" color="#000" font-size="6.321" font-family="Fira Sans" overflow="visible" fill="#fff" stroke-width="25"><tspan x="343.908" y="401.607">via Aosta</tspan></text><text y="497.629" x="135.74" style="line-height:110.00000238%;-inkscape-font-specification:'Fira Sans';text-align:start" color="#000" font-size="6.321" font-family="Fira Sans" overflow="visible" fill="#fff" stroke-width="25"><tspan y="497.629" x="135.74">piazza Matteotti</tspan></text><text style="line-height:110.00000238%;-inkscape-font-specification:'Fira Sans';text-align:start" x="318.791" y="219.045" transform="rotate(30)" color="#000" font-size="6.321" font-family="Fira Sans" overflow="visible" fill="#fff" stroke-width="25"><tspan x="318.791" y="219.045">via Vicenza</tspan></text><text y="200.082" x="351.635" style="line-height:110.00000238%;-inkscape-font-specification:'Fira Sans';text-align:start" transform="rotate(30)" color="#000" font-size="6.321" font-family="Fira Sans" overflow="visible" fill="#fff" stroke-width="25"><tspan y="200.082" x="351.635">Caserma Carabinieri</tspan></text><text style="line-height:110.00000238%;-inkscape-font-specification:'Fira Sans';text-align:start" x="132.58" y="445.483" color="#000" font-size="6.321" font-family="Fira Sans" overflow="visible" fill="#fff" stroke-width="25"><tspan x="132.58" y="445.483">via Firenze</tspan></text><text y="306.189" x="-126.77" style="line-height:110.00000238%;-inkscape-font-specification:'Fira Sans';text-align:start" transform="rotate(-30)" color="#000" font-size="6.321" font-family="Fira Sans" overflow="visible" fill="#fff" stroke-width="25"><tspan y="306.189" x="-126.77">via Amalfi</tspan></text><text style="line-height:110.00000238%;-inkscape-font-specification:'Fira Sans';text-align:start" x="-151.403" y="291.966" transform="rotate(-30)" color="#000" font-size="6.321" font-family="Fira Sans" overflow="visible" fill="#fff" stroke-width="25"><tspan x="-151.403" y="291.966">via Sorrento</tspan></text><text style="line-height:110.00000238%;-inkscape-font-specification:'Fira Sans';text-align:start" x="135.74" y="478.667" color="#000" font-size="6.321" font-family="Fira Sans" overflow="visible" fill="#fff" stroke-width="25"><tspan x="135.74" y="478.667">via Torino</tspan></text><text y="396.497" x="132.58" style="line-height:110.00000238%;-inkscape-font-specification:'Fira Sans';text-align:start" color="#000" font-size="6.321" font-family="Fira Sans" overflow="visible" fill="#fff" stroke-width="25"><tspan y="396.497" x="132.58">via di Novacella</tspan></text><text style="line-height:110.00000238%;-inkscape-font-specification:'Fira Sans';text-align:start" x="389.955" y="177.959" transform="rotate(30)" color="#000" font-size="6.321" font-family="Fira Sans" overflow="visible" fill="#fff" stroke-width="25"><tspan x="389.955" y="177.959">Ponte Druso</tspan></text><text style="line-height:110.00000238%;-inkscape-font-specification:'Fira Sans';text-align:end" x="117.576" y="292.203" color="#000" font-size="6.321" font-family="Fira Sans" text-anchor="end" overflow="visible" fill="#fff" stroke-width="25"><tspan x="117.576" y="292.203">Tribunale</tspan></text><text y="158.945" x="258.549" style="line-height:110.00000238%;-inkscape-font-specification:'Fira Sans';text-align:start" transform="rotate(30)" color="#000" font-size="6.321" font-family="Fira Sans" overflow="visible" fill="#fff" stroke-width="25"><tspan y="158.945" x="258.549">via Cesare Battisti</tspan></text><text style="line-height:110.00000238%;-inkscape-font-specification:'Fira Sans';text-align:end" x="117.576" y="238.477" color="#000" font-size="6.321" font-family="Fira Sans" text-anchor="end" overflow="visible" fill="#fff" stroke-width="25"><tspan x="117.576" y="238.477">piazza Mazzini</tspan></text><text y="262.23" x="37.284" style="line-height:110.00000238%;-inkscape-font-specification:'Fira Sans';text-align:start" transform="rotate(-30)" color="#000" font-size="6.321" font-family="Fira Sans" overflow="visible" fill="#fff" stroke-width="25"><tspan y="262.23" x="37.284">via Longon</tspan></text><text style="line-height:110.00000238%;-inkscape-font-specification:'Fira Sans';text-align:start" x="70.128" y="281.192" transform="rotate(-30)" color="#000" font-size="6.321" font-family="Fira Sans" overflow="visible" fill="#fff" stroke-width="25"><tspan x="70.128" y="281.192">piazza Vittoria</tspan></text><text y="130.502" x="307.814" style="line-height:110.00000238%;-inkscape-font-specification:'Fira Sans';text-align:start" transform="rotate(30)" color="#000" font-size="6.321" font-family="Fira Sans" overflow="visible" fill="#fff" stroke-width="25"><tspan y="130.502" x="307.814">piazza Vittoria</tspan></text><text style="line-height:110.00000238%;-inkscape-font-specification:'Fira Sans';text-align:start" x="291.397" y="247.957" color="#000" font-size="6.321" font-family="Fira Sans" overflow="visible" fill="#fff" stroke-width="25"><tspan x="291.397" y="247.957">via Rosmini</tspan></text><text transform="rotate(-30)" y="339.659" x="171.397" style="line-height:110.00000238%;-inkscape-font-specification:'Fira Sans';text-align:start" color="#000" font-size="6.321" font-family="Fira Sans" overflow="visible" fill="#fff" stroke-width="25"><tspan y="339.659" x="171.397">via Cassa di Risparmio</tspan></text><text style="line-height:110.00000238%;-inkscape-font-specification:'Fira Sans';text-align:start" x="369.611" y="247.957" color="#000" font-size="6.321" font-family="Fira Sans" overflow="visible" fill="#fff" stroke-width="25"><tspan x="369.611" y="247.957">piazza Università</tspan></text><text transform="rotate(30)" y="89.246" x="417.193" style="line-height:110.00000238%;-inkscape-font-specification:'Fira Sans';text-align:start" color="#000" font-size="6.321" font-family="Fira Sans" overflow="visible" fill="#fff" stroke-width="25"><tspan y="89.246" x="417.193">via Ospedale</tspan></text><text style="line-height:110.00000238%;-inkscape-font-specification:'Fira Sans';text-align:start" x="169.671" y="462.741" transform="rotate(-30)" color="#000" font-size="6.321" font-family="Fira Sans" overflow="visible" fill="#fff" stroke-width="25"><tspan x="169.671" y="462.741">piazza Domenicani</tspan></text><text y="476.962" x="194.304" style="line-height:110.00000238%;-inkscape-font-specification:'Fira Sans';text-align:start" transform="rotate(-30)" color="#000" font-size="6.321" font-family="Fira Sans" overflow="visible" fill="#fff" stroke-width="25"><tspan y="476.962" x="194.304">piazza Walther</tspan></text><text style="line-height:110.00000238%;-inkscape-font-specification:'Fira Sans';text-align:start" x="476.279" y="330.128" color="#000" font-size="6.321" font-family="Fira Sans" overflow="visible" fill="#fff" stroke-width="25"><tspan x="476.279" y="330.128">Stazione Bolzano</tspan></text><text style="line-height:110.00000238%;-inkscape-font-specification:'Fira Sans';text-align:start" x="218.937" y="491.185" transform="rotate(-30)" color="#000" font-size="6.321" font-family="Fira Sans" overflow="visible" fill="#fff" stroke-width="25"><tspan x="218.937" y="491.185">Stazione Bolzano</tspan></text><text y="149.515" x="439.221" style="line-height:110.00000238%;-inkscape-font-specification:'Fira Sans';text-align:start" transform="rotate(30)" color="#000" font-size="6.321" font-family="Fira Sans" overflow="visible" fill="#fff" stroke-width="25"><tspan y="149.515" x="439.221">piazza Verdi</tspan></text><text transform="rotate(30)" y="92.629" x="537.752" style="line-height:110.00000238%;-inkscape-font-specification:'Fira Sans';text-align:start" color="#000" font-size="6.321" font-family="Fira Sans" overflow="visible" fill="#fff" stroke-width="25"><tspan y="92.629" x="537.752">via Perathoner</tspan></text><text style="line-height:110.00000238%;-inkscape-font-specification:'Fira Sans';text-align:start" x="255.088" y="525.875" transform="rotate(30)" color="#000" font-size="6.321" font-family="Fira Sans" overflow="visible" fill="#fff" stroke-width="25"><tspan x="255.088" y="525.875">Parco delle</tspan><tspan x="255.088" y="532.828">Semirurali</tspan></text><text style="line-height:110.00000238%;-inkscape-font-specification:'Fira Sans';text-align:start" x=".639" y="402.742" color="#000" font-size="6.321" font-family="Fira Sans" overflow="visible" fill="#fff" stroke-width="25"><tspan x=".639" y="402.742">via Del Ronco</tspan></text><text y="323.622" x="-260.911" style="line-height:110.00000238%;-inkscape-font-specification:'Fira Sans';text-align:start" transform="rotate(-30)" color="#000" font-size="6.321" font-family="Fira Sans" overflow="visible" fill="#fff" stroke-width="25"><tspan y="323.622" x="-260.911">Casa di Riposo</tspan></text><text style="line-height:110.00000238%;-inkscape-font-specification:'Fira Sans';text-align:start" x=".639" y="380.619" color="#000" font-size="6.321" font-family="Fira Sans" overflow="visible" fill="#fff" stroke-width="25"><tspan x=".639" y="380.619">Scuola Schweitzer</tspan></text><text y="358.496" x=".639" style="line-height:110.00000238%;-inkscape-font-specification:'Fira Sans';text-align:start" color="#000" font-size="6.321" font-family="Fira Sans" overflow="visible" fill="#fff" stroke-width="25"><tspan y="358.496" x=".639">Scuola Max Valier</tspan></text><text y="447.063" x="-75.209" style="line-height:110.00000238%;-inkscape-font-specification:'Fira Sans';text-align:start" color="#000" font-size="6.321" font-family="Fira Sans" overflow="visible" fill="#fff" stroke-width="25"><tspan y="447.063" x="-75.209">via Parma</tspan></text><text style="line-height:110.00000238%;-inkscape-font-specification:'Fira Sans';text-align:start" x="-75.209" y="513.431" color="#000" font-size="6.321" font-family="Fira Sans" overflow="visible" fill="#fff" stroke-width="25"><tspan x="-75.209" y="513.431">via Piacenza</tspan></text><text style="line-height:110.00000238%;-inkscape-font-specification:'Fira Sans';text-align:end" x="-143.158" y="497.629" color="#000" font-size="6.321" font-family="Fira Sans" text-anchor="end" overflow="visible" fill="#fff" stroke-width="25"><tspan x="-143.158" y="497.629">via Malles</tspan></text><text y="459.578" x="-143.158" style="line-height:110.00000238%;-inkscape-font-specification:'Fira Sans';text-align:end" color="#000" font-size="6.321" font-family="Fira Sans" text-anchor="end" overflow="visible" fill="#fff" stroke-width="25"><tspan y="459.578" x="-143.158">via Glorenza</tspan></text><text style="line-height:110.00000238%;-inkscape-font-specification:'Fira Sans';text-align:start" x="-299.231" y="301.499" transform="rotate(-30)" color="#000" font-size="6.321" font-family="Fira Sans" overflow="visible" fill="#fff" stroke-width="25"><tspan x="-299.231" y="301.499">Campi Resia</tspan></text><text style="line-height:110.00000238%;-inkscape-font-specification:'Fira Sans';text-align:start" x="-102.138" y="320.409" transform="rotate(-30)" color="#000" font-size="6.321" font-family="Fira Sans" overflow="visible" fill="#fff" stroke-width="25"><tspan x="-102.138" y="320.409">via Gaismair</tspan></text><text y="334.632" x="-77.505" style="line-height:110.00000238%;-inkscape-font-specification:'Fira Sans';text-align:start" transform="rotate(-30)" color="#000" font-size="6.321" font-family="Fira Sans" overflow="visible" fill="#fff" stroke-width="25"><tspan y="334.632" x="-77.505">piazza Adriano</tspan></text><text y="484.988" x=".639" style="line-height:110.00000238%;-inkscape-font-specification:'Fira Sans';text-align:start" color="#000" font-size="6.321" font-family="Fira Sans" overflow="visible" fill="#fff" stroke-width="25"><tspan y="484.988" x=".639">via Cagliari</tspan></text><circle r="3.16" cy="323.807" cx="466.799" color="#000" overflow="visible" fill="#fff"/><circle cx="466.799" cy="336.449" r="3.16" color="#000" overflow="visible" fill="#fff"/><path d="M-231.65 570.318v-12.64M-190.564 570.318v-12.64M-124.196 570.318v-12.64" fill="none" stroke="#414141" stroke-width="8.217" stroke-linecap="round"/><path d="M-92.592 570.318v-12.64" fill="none" stroke="#333" stroke-width="8.217" stroke-linecap="round"/><text style="line-height:110.00000238%;-inkscape-font-specification:'Fira Sans';text-align:start" x="-241.131" y="203.712" color="#000" font-size="29.629" font-family="Fira Sans" letter-spacing=".632" overflow="visible" fill="#fff" stroke-width="25"><tspan x="-241.131" y="203.712">via Ortles</tspan></text><path d="M-231.65 570.318v-12.64M-190.564 570.318v-12.64" fill="none" stroke="#fff" stroke-width="4.425" stroke-linecap="round"/><path d="M-158.96 570.318v-12.64" fill="none" stroke="#4b4b4b" stroke-width="8.217" stroke-linecap="round"/><path d="M-158.96 570.318v-12.64" fill="none" stroke="#414141" stroke-width="8.217" stroke-linecap="round"/><text style="line-height:110.00000238%;-inkscape-font-specification:'Fira Sans Bold';text-align:center" x="-225.33" y="265.972" color="#000" font-weight="bold" font-size="15.802" font-family="Fira Sans" text-anchor="middle" overflow="visible" fill="#fff" stroke-width="25"><tspan x="-225.33" y="265.972">3</tspan></text><path d="M466.8 336.45v-12.643" fill="none" stroke="#333" stroke-width="8.217" stroke-linecap="round"/><path d="M-124.196 570.318v-12.64M-92.592 570.318v-12.64" fill="none" stroke="#fff" stroke-width="4.425" stroke-linecap="round"/><g transform="matrix(.316 0 0 .316 -266.414 153.145)" stroke="#333" color="#000" fill="#fff" stroke-width="6"><circle r="10" cy="580" cx="1820" overflow="visible"/><circle cx="2180" cy="580" r="10" overflow="visible"/><circle r="10" cy="540" cx="2140" overflow="visible"/><circle cx="2050" cy="540" r="10" overflow="visible"/><circle cx="1980" cy="290" r="10" overflow="visible"/><circle r="10" cy="200" cx="1857.838" overflow="visible"/><circle cx="1740" cy="290" r="10" overflow="visible"/><circle r="10" cy="380" cx="1855" overflow="visible"/><circle r="10" cy="320" cx="1310" overflow="visible"/><circle cx="1490" cy="320" r="10" overflow="visible"/><circle r="10" cy="200" cx="1371.272" overflow="visible"/><circle cx="1489.6" cy="200" r="10" overflow="visible"/><circle r="10" cy="260" cx="1240" overflow="visible"/><circle r="10" cy="430" cx="1240.002" overflow="visible"/><circle cx="2230" cy="540" r="10" overflow="visible"/><circle cx="580" cy="1130" r="10" overflow="visible"/><circle r="10" cy="920" cx="580" overflow="visible"/><circle cx="420" cy="960" r="10" overflow="visible"/><circle r="10" cy="1080" cx="420" overflow="visible"/><circle r="10" cy="1040" cx="820" overflow="visible"/><circle cx="917.43" cy="960" r="10" overflow="visible"/><circle r="10" cy="960" cx="1030" overflow="visible"/><circle cx="1139.482" cy="960" r="10" overflow="visible"/><circle r="10" cy="1120" cx="890" overflow="visible"/><circle cx="980" cy="1120" r="10" overflow="visible"/><circle r="10" cy="1120" cx="1071.182" overflow="visible"/><circle cx="1160" cy="1120" r="10" overflow="visible"/><circle r="10" cy="1080" cx="1240" overflow="visible"/><circle cx="650" cy="840" r="10" overflow="visible"/><circle r="10" cy="780" cx="820" overflow="visible"/><circle cx="820" cy="710" r="10" overflow="visible"/><circle r="10" cy="640" cx="820" overflow="visible"/><circle cx="900" cy="580" r="10" overflow="visible"/><circle r="10" cy="580" cx="990" overflow="visible"/><circle r="10" cy="580" cx="1380" overflow="visible"/><circle cx="1500" cy="580" r="10" overflow="visible"/><circle cx="1640" cy="580" r="10" overflow="visible" stroke="#014665"/><circle r="10" cy="840" cx="500" overflow="visible"/><circle r="10" cy="915" cx="1240.002" overflow="visible"/><circle cx="1240" cy="1020" r="10" overflow="visible"/><circle cx="1240.002" cy="760" r="10" overflow="visible"/><circle cx="1080" cy="580" r="10" overflow="visible"/><circle r="10" cy="580" cx="1170" overflow="visible"/><circle r="10" cy="1320" cx="720" overflow="visible"/><circle cx="820" cy="1240" r="10" overflow="visible"/></g><path d="M-89.43 481.827l6.32-6.32 6.32 6.32" fill="none" stroke="#00b890" stroke-width="1.896" stroke-linecap="round"/><path d="M-127.356 476.75l-6.32 6.322-6.322-6.32" fill="none" stroke="#177c66" stroke-width="1.896" stroke-linecap="round"/><path d="M338.15 266.92l6.32 6.32-6.32 6.32" fill="none" stroke="#ea1616" stroke-width="1.896" stroke-linecap="round"/><path d="M149.498 222.674l-6.32-6.32 6.32-6.32" fill="none" stroke="#7d2828" stroke-width="1.896" stroke-linecap="round"/><path d="M-190.564 541.875l6.32-11.062h-12.64z" fill="#fff" fill-rule="evenodd"/><text style="line-height:110.00000238%;-inkscape-font-specification:'Fira Sans Bold';text-align:center" x="-191.428" y="516.592" color="#000" font-weight="bold" font-size="7.901" font-family="Fira Sans" letter-spacing=".474" text-anchor="middle" overflow="visible" fill="#fff" stroke-width="25"><tspan x="-190.02" y="516.592">YOU ARE </tspan><tspan x="-191.191" y="525.283">HERE</tspan></text><path d="M-158.96 570.318v-12.64M466.8 336.45v-12.643" fill="none" stroke="#fff" stroke-width="4.425" stroke-linecap="round"/><text y="228.995" x="-241.131" style="line-height:110.00000238%;-inkscape-font-specification:'Fira Sans';text-align:start" color="#000" font-size="17.777" font-family="Fira Sans" overflow="visible" fill="#999" stroke-width="25"><tspan y="228.995" x="-241.131">Bolzano</tspan></text><g transform="matrix(.316 0 0 .316 -197.039 260.654)" color="#000"><circle r="39.825" cy="-.175" cx=".311" overflow="visible" fill="#00b890"/><text y="13.825" x=".311" style="line-height:110.00000238%;-inkscape-font-specification:'Fira Sans Bold';text-align:center" font-weight="bold" font-size="40" font-family="Fira Sans" text-anchor="middle" overflow="visible" fill="#fff" stroke-width="25"><tspan y="13.825" x=".311">16</tspan></text></g><g transform="matrix(.316 0 0 .316 -228.643 260.654)" color="#000"><circle r="39.825" cy="-.175" cx=".311" overflow="visible" fill="#ea1616"/><text y="13.825" x=".311" style="line-height:110.00000238%;-inkscape-font-specification:'Fira Sans Bold';text-align:center" font-weight="bold" font-size="40" font-family="Fira Sans" text-anchor="middle" overflow="visible" fill="#fff" stroke-width="25"><tspan y="13.825" x=".311">3</tspan></text></g><g transform="matrix(.316 0 0 .316 -27.567 418.674)" color="#000"><circle r="39.825" cy="-.175" cx=".311" overflow="visible" fill="#00b890"/><text y="13.825" x=".311" style="line-height:110.00000238%;-inkscape-font-specification:'Fira Sans Bold';text-align:center" font-weight="bold" font-size="40" font-family="Fira Sans" text-anchor="middle" overflow="visible" fill="#fff" stroke-width="25"><tspan y="13.825" x=".311">16</tspan></text></g><g transform="matrix(.316 0 0 .316 343.055 336.504)" color="#000"><circle cx=".311" cy="-.175" r="39.825" overflow="visible" fill="#177c66"/><text style="line-height:110.00000238%;-inkscape-font-specification:'Fira Sans Bold';text-align:center" x=".311" y="13.825" font-weight="bold" font-size="40" font-family="Fira Sans" text-anchor="middle" overflow="visible" fill="#fff" stroke-width="25"><tspan x=".311" y="13.825">16</tspan></text></g><g transform="matrix(.316 0 0 .316 125.378 358.163)" color="#000"><circle r="39.825" cy="-.175" cx=".311" overflow="visible" fill="#ea1616"/><text y="13.825" x=".311" style="line-height:110.00000238%;-inkscape-font-specification:'Fira Sans Bold';text-align:center" font-weight="bold" font-size="40" font-family="Fira Sans" text-anchor="middle" overflow="visible" fill="#fff" stroke-width="25"><tspan y="13.825" x=".311">3</tspan></text></g><g transform="matrix(.316 0 0 .316 340.474 216.353)" color="#000"><circle r="39.825" cy="-.175" cx=".311" overflow="visible" fill="#7d2828"/><text y="13.825" x=".311" style="line-height:110.00000238%;-inkscape-font-specification:'Fira Sans Bold';text-align:center" font-weight="bold" font-size="40" font-family="Fira Sans" text-anchor="middle" overflow="visible" fill="#fff" stroke-width="25"><tspan y="13.825" x=".311">3</tspan></text></g><g transform="matrix(.316 0 0 .316 -60.817 570.374)" color="#000"><circle r="39.825" cy="-.175" cx=".311" overflow="visible" fill="#ea1616"/><text y="13.825" x=".311" style="line-height:110.00000238%;-inkscape-font-specification:'Fira Sans Bold';text-align:center" font-weight="bold" font-size="40" font-family="Fira Sans" text-anchor="middle" overflow="visible" fill="#fff" stroke-width="25"><tspan y="13.825" x=".311">3</tspan></text></g></g></svg>